  0
SECTION
  2
HEADER
  9
$ANGBASE
 50
0.0
  9
$ANGDIR
 70
0
  9
$AUNITS
 70
0
  9
$AUPREC
 70
0
  9
$ATTMODE
 70
1
  9
$DWGCODEPAGE
  3
ansi_1252
  9
$TDCREATE
 40
2461244.8725463
  9
$CECOLOR
 62
3
  9
$CELTSCALE
 40
1.0
  9
$CELWEIGHT
370
29
  9
$CLAYER
  8
0
  9
$CELTYPE
  6
ByLayer
  9
$CMLJUST
 70
0
  9
$CMLSCALE
 40
1.0
  9
$CMLSTYLE
  2
Standard
  9
$DIMSTYLE
  2
Standard
  9
$LWDISPLAY
290
0
  9
$EXTNAMES
290
0
  9
$HANDSEED
  5
648
  9
$INSUNITS
 70
1
  9
$LUNITS
 70
2
  9
$LUPREC
 70
4
  9
$LTSCALE
 40
1.0
  9
$MEASUREMENT
 70
1
  9
$MIRRTEXT
 70
0
  9
$INSBASE
 10
0.0
 20
0.0
 30
0.0
  9
$SPLINESEGS
 70
8
  9
$PSLTSCALE
 70
1
  9
$PDMODE
 70
0
  9
$PDSIZE
 40
0.0
  9
$PLINEGEN
 70
0
  9
$SURFU
 70
6
  9
$SURFV
 70
6
  9
$TEXTSIZE
 40
62.5
  9
$TEXTSTYLE
  7
Text 25
  9
$TDINDWG
 40
0.11380787037037
  9
$TDUCREATE
 40
2461285.94627302
  9
$TDUUPDATE
 40
2461285.94627302
  9
$TDUPDATE
 40
2461270.91987269
  9
$ACADVER
  1
AC1032
  0
ENDSEC
  0
SECTION
  2
CLASSES
  0
CLASS
  1
ACDBDICTIONARYWDFLT
  2
AcDbDictionaryWithDefault
  3
ObjectDBX Classes
 90
0
 91
1
280
0
281
0
  0
CLASS
  1
ACDBPLACEHOLDER
  2
AcDbPlaceHolder
  3
ObjectDBX Classes
 90
0
 91
1
280
0
281
0
  0
CLASS
  1
LAYOUT
  2
AcDbLayout
  3
ObjectDBX Classes
 90
0
 91
3
280
0
281
0
  0
CLASS
  1
DICTIONARYVAR
  2
AcDbDictionaryVar
  3
ObjectDBX Classes
 90
0
 91
11
280
0
281
0
  0
CLASS
  1
TABLESTYLE
  2
AcDbTableStyle
  3
ObjectDBX Classes
 90
4095
 91
1
280
0
281
0
  0
CLASS
  1
MATERIAL
  2
AcDbMaterial
  3
ObjectDBX Classes
 90
1153
 91
3
280
0
281
0
  0
CLASS
  1
VISUALSTYLE
  2
AcDbVisualStyle
  3
ObjectDBX Classes
 90
4095
 91
24
280
0
281
0
  0
CLASS
  1
SCALE
  2
AcDbScale
  3
ObjectDBX Classes
 90
1153
 91
33
280
0
281
0
  0
CLASS
  1
MLEADERSTYLE
  2
AcDbMLeaderStyle
  3
ACDB_MLEADERSTYLE_CLASS
 90
4095
 91
4
280
0
281
0
  0
CLASS
  1
CELLSTYLEMAP
  2
AcDbCellStyleMap
  3
ObjectDBX Classes
 90
1152
 91
0
280
0
281
0
  0
CLASS
  1
EXACXREFPANELOBJECT
  2
ExAcXREFPanelObject
  3
EXAC_ESW
 90
1025
 91
0
280
0
281
0
  0
CLASS
  1
NPOCOLLECTION
  2
AcDbImpNonPersistentObjectsCollection
  3
ObjectDBX Classes
 90
1153
 91
0
280
0
281
0
  0
CLASS
  1
LAYER_INDEX
  2
AcDbLayerIndex
  3
ObjectDBX Classes
 90
0
 91
0
280
0
281
0
  0
CLASS
  1
SPATIAL_INDEX
  2
AcDbSpatialIndex
  3
ObjectDBX Classes
 90
0
 91
0
280
0
281
0
  0
CLASS
  1
IDBUFFER
  2
AcDbIdBuffer
  3
ObjectDBX Classes
 90
0
 91
0
280
0
281
0
  0
CLASS
  1
ACDBSECTIONVIEWSTYLE
  2
AcDbSectionViewStyle
  3
ObjectDBX Classes
 90
1025
 91
1
280
0
281
0
  0
CLASS
  1
ACDBDETAILVIEWSTYLE
  2
AcDbDetailViewStyle
  3
ObjectDBX Classes
 90
1025
 91
1
280
0
281
0
  0
CLASS
  1
SORTENTSTABLE
  2
AcDbSortentsTable
  3
ObjectDBX Classes
 90
0
 91
2
280
0
281
0
  0
CLASS
  1
DIMASSOC
  2
AcDbDimAssoc
  3
"AcDbDimAssoc|Product Desc:     AcDim ARX App For Dimension|Company:          Autodesk, Inc.|WEB Address:      www.autodesk.com"
 90
0
 91
26
280
0
281
0
  0
CLASS
  1
MULTILEADER
  2
AcDbMLeader
  3
ACDB_MLEADER_CLASS
 90
1025
 91
1
280
0
281
1
  0
CLASS
  1
MESH
  2
AcDbSubDMesh
  3
ObjectDBX Classes
 90
0
 91
0
280
0
281
1
  0
CLASS
  1
ACDB_TEXTOBJECTCONTEXTDATA_CLASS
  2
AcDbTextObjectContextData
  3
ObjectDBX Classes
 90
1153
 91
0
280
0
281
0
  0
CLASS
  1
WIPEOUT
  2
AcDbWipeout
  3
WipeOut
 90
32895
 91
0
280
0
281
1
  0
CLASS
  1
WIPEOUTVARIABLES
  2
AcDbWipeoutVariables
  3
WipeOut
 90
32768
 91
0
280
0
281
0
  0
CLASS
  1
ACAD_TABLE
  2
AcDbTable
  3
ObjectDBX Classes
 90
1025
 91
0
280
0
281
1
  0
CLASS
  1
TABLECONTENT
  2
AcDbTableContent
  3
ObjectDBX Classes
 90
1152
 91
0
280
0
281
0
  0
CLASS
  1
TABLEGEOMETRY
  2
AcDbTableGeometry
  3
ObjectDBX Classes
 90
1152
 91
0
280
0
281
0
  0
CLASS
  1
IMAGE
  2
AcDbRasterImage
  3
ISM
 90
32895
 91
0
280
0
281
1
  0
CLASS
  1
IMAGEDEF
  2
AcDbRasterImageDef
  3
ISM
 90
0
 91
0
280
0
281
0
  0
CLASS
  1
IMAGEDEF_REACTOR
  2
AcDbRasterImageDefReactor
  3
ISM
 90
1
 91
0
280
0
281
0
  0
CLASS
  1
DBCOLOR
  2
AcDbColor
  3
ObjectDBX Classes
 90
0
 91
0
280
0
281
0
  0
CLASS
  1
GEODATA
  2
AcDbGeoData
  3
ObjectDBX Classes
 90
4095
 91
0
280
0
281
0
  0
CLASS
  1
PDFUNDERLAY
  2
AcDbPdfReference
  3
ObjectDBX Classes
 90
4095
 91
0
280
0
281
1
  0
CLASS
  1
PDFDEFINITION
  2
AcDbPdfDefinition
  3
ObjectDBX Classes
 90
1153
 91
0
280
0
281
0
  0
CLASS
  1
RASTERVARIABLES
  2
AcDbRasterVariables
  3
ISM
 90
0
 91
0
280
0
281
0
  0
CLASS
  1
SPATIAL_FILTER
  2
AcDbSpatialFilter
  3
ObjectDBX Classes
 90
0
 91
0
280
0
281
0
  0
CLASS
  1
ACDB_MLEADEROBJECTCONTEXTDATA_CLASS
  2
AcDbMLeaderObjectContextData
  3
ObjectDBX Classes
 90
1025
 91
0
280
0
281
0
  0
CLASS
  1
PLOTSETTINGS
  2
AcDbPlotSettings
  3
ObjectDBX Classes
 90
0
 91
0
280
0
281
0
  0
CLASS
  1
FIELD
  2
AcDbField
  3
ObjectDBX Classes
 90
1152
 91
0
280
0
281
0
  0
CLASS
  1
FIELDLIST
  2
AcDbFieldList
  3
ObjectDBX Classes
 90
1152
 91
0
280
0
281
0
  0
CLASS
  1
ACDB_MTEXTATTRIBUTEOBJECTCONTEXTDATA_CLASS
  2
AcDbMTextAttributeObjectContextData
  3
ObjectDBX Classes
 90
1153
 91
0
280
0
281
0
  0
CLASS
  1
ACDB_BLKREFOBJECTCONTEXTDATA_CLASS
  2
AcDbBlkRefObjectContextData
  3
ObjectDBX Classes
 90
1153
 91
0
280
0
281
0
  0
ENDSEC
  0
SECTION
  2
TABLES
  0
TABLE
  2
VPORT
  5
8
330
0
100
AcDbSymbolTable
 70
1
  0
VPORT
  5
94
330
8
100
AcDbSymbolTableRecord
100
AcDbViewportTableRecord
  2
*Active
 70
0
 10
0.0
 20
0.0
 11
1.0
 21
1.0
 12
32351.5876661022
 22
11507.9663029076
 13
0.0
 23
0.0
 14
0.5
 24
0.5
 15
0.5
 25
0.5
 16
0.0
 26
0.0
 36
1.0
 17
0.0
 27
0.0
 37
0.0
 40
34092.1721852879
 41
2.6864406779661
 75
0
 76
1
1001
ACAD_NAV_VCDISPLAY
1070
3
  0
ENDTAB
  0
TABLE
  2
LTYPE
  5
5
330
0
100
AcDbSymbolTable
 70
4
  0
LTYPE
  5
16
330
5
100
AcDbSymbolTableRecord
100
AcDbLinetypeTableRecord
  2
Continuous
 70
0
  3
Solid line
 72
65
 73
0
 40
0.0
  0
LTYPE
  5
288
330
5
100
AcDbSymbolTableRecord
100
AcDbLinetypeTableRecord
  2
HIDDEN
 70
0
  3
Hidden __ __ __ __ __ __ __ __ __ __ __ __ __ _
 72
65
 73
2
 40
9.525
 49
6.35
 74
0
 49
-3.175
 74
0
  0
LTYPE
  5
14
330
5
100
AcDbSymbolTableRecord
100
AcDbLinetypeTableRecord
  2
ByBlock
 70
0
  3

 72
65
 73
0
 40
0.0
  0
LTYPE
  5
15
330
5
100
AcDbSymbolTableRecord
100
AcDbLinetypeTableRecord
  2
ByLayer
 70
0
  3

 72
65
 73
0
 40
0.0
  0
ENDTAB
  0
TABLE
  2
LAYER
  5
2
102
{ACAD_XDICTIONARY
360
18E
102
}
330
0
100
AcDbSymbolTable
 70
21
  0
LAYER
  5
10
102
{ACAD_XDICTIONARY
360
E6
102
}
330
2
100
AcDbSymbolTableRecord
100
AcDbLayerTableRecord
  2
0
 70
0
 62
7
  6
Continuous
290
1
370
-3
390
0
  0
LAYER
  5
257
330
2
100
AcDbSymbolTableRecord
100
AcDbLayerTableRecord
  2
Defpoints
 70
0
 62
7
  6
Continuous
290
0
370
-3
390
0
  0
LAYER
  5
289
102
{ACAD_XDICTIONARY
360
28A
102
}
330
2
100
AcDbSymbolTableRecord
100
AcDbLayerTableRecord
  2
WALLS
 70
0
 62
4
  6
Continuous
290
1
370
20
390
0
1001
RAK
1000
{ACET-LAYISO
1070
0
1070
4
1000
Continuous
1071
20
1071
1
1005
F
1000
ACET-LAYISO}
  0
LAYER
  5
28B
102
{ACAD_XDICTIONARY
360
28C
102
}
330
2
100
AcDbSymbolTableRecord
100
AcDbLayerTableRecord
  2
View Port
 70
0
 62
3
  6
Continuous
290
0
370
-3
390
0
  0
LAYER
  5
28D
102
{ACAD_XDICTIONARY
360
28E
102
}
330
2
100
AcDbSymbolTableRecord
100
AcDbLayerTableRecord
  2
DIM50
 70
0
 62
2
  6
Continuous
290
1
370
-3
390
0
  0
LAYER
  5
31A
330
2
100
AcDbSymbolTableRecord
100
AcDbLayerTableRecord
  2
Hatch
 70
0
 62
4
  6
Continuous
290
1
370
20
390
0
1001
AcAecLayerStandard
1000

1000

1001
AcCmTransparency
1071
33554483
  0
LAYER
  5
36E
102
{ACAD_XDICTIONARY
360
36F
102
}
330
2
100
AcDbSymbolTableRecord
100
AcDbLayerTableRecord
  2
Leader
 70
0
 62
1
  6
Continuous
290
1
370
-3
390
0
1001
AcAecLayerStandard
1000

1000

  0
LAYER
  5
397
102
{ACAD_XDICTIONARY
360
398
102
}
330
2
100
AcDbSymbolTableRecord
100
AcDbLayerTableRecord
  2
Beam
 70
0
 62
6
  6
Continuous
290
1
370
-3
390
0
1001
AcAecLayerStandard
1000

1000

  0
LAYER
  5
399
102
{ACAD_XDICTIONARY
360
39A
102
}
330
2
100
AcDbSymbolTableRecord
100
AcDbLayerTableRecord
  2
Conc Hatch
 70
0
 62
9
  6
Continuous
290
1
370
-3
390
0
1001
AcAecLayerStandard
1000

1000

1001
AcCmTransparency
1071
33554483
  0
LAYER
  5
39B
102
{ACAD_XDICTIONARY
360
39C
102
}
330
2
100
AcDbSymbolTableRecord
100
AcDbLayerTableRecord
  2
Reinforcement
 70
0
 62
5
  6
Continuous
290
1
370
-3
390
0
  0
LAYER
  5
4FD
330
2
100
AcDbSymbolTableRecord
100
AcDbLayerTableRecord
  2
WOOD_45X195
 70
0
 62
7
  6
Continuous
290
1
370
-3
390
0
1001
AcAecLayerStandard
1000

1000

1001
AcCmTransparency
1071
0
  0
LAYER
  5
4FE
330
2
100
AcDbSymbolTableRecord
100
AcDbLayerTableRecord
  2
WOOD_45X70
 70
0
 62
6
  6
Continuous
290
1
370
-3
390
0
1001
AcAecLayerStandard
1000

1000

1001
AcCmTransparency
1071
0
  0
LAYER
  5
4FF
330
2
100
AcDbSymbolTableRecord
100
AcDbLayerTableRecord
  2
CLADDING_22X2120
 70
0
 62
3
  6
Continuous
290
1
370
-3
390
0
1001
AcAecLayerStandard
1000

1000

1001
AcCmTransparency
1071
0
  0
LAYER
  5
500
330
2
100
AcDbSymbolTableRecord
100
AcDbLayerTableRecord
  2
JOIST_45X195
 70
0
 62
4
  6
Continuous
290
1
370
-3
390
0
1001
AcAecLayerStandard
1000

1000

1001
AcCmTransparency
1071
0
  0
LAYER
  5
501
330
2
100
AcDbSymbolTableRecord
100
AcDbLayerTableRecord
  2
BEAM_115X315
 70
0
 62
2
  6
Continuous
290
1
370
-3
390
0
1001
AcAecLayerStandard
1000

1000

1001
AcCmTransparency
1071
0
  0
LAYER
  5
502
330
2
100
AcDbSymbolTableRecord
100
AcDbLayerTableRecord
  2
BEAM_90X225
 70
0
 62
1
  6
Continuous
290
1
370
-3
390
0
1001
AcAecLayerStandard
1000

1000

1001
AcCmTransparency
1071
0
  0
LAYER
  5
503
330
2
100
AcDbSymbolTableRecord
100
AcDbLayerTableRecord
  2
RAFTER_45X145
 70
0
 62
5
  6
Continuous
290
1
370
-3
390
0
1001
AcAecLayerStandard
1000

1000

1001
AcCmTransparency
1071
0
  0
LAYER
  5
504
330
2
100
AcDbSymbolTableRecord
100
AcDbLayerTableRecord
  2
DOOR
 70
0
 62
3
  6
Continuous
290
1
370
-3
390
0
1001
AcAecLayerStandard
1000

1000

1001
AcCmTransparency
1071
0
  0
LAYER
  5
505
330
2
100
AcDbSymbolTableRecord
100
AcDbLayerTableRecord
  2
WINDOW
 70
0
 62
1
  6
Continuous
290
1
370
-3
390
0
1001
AcAecLayerStandard
1000

1000

1001
AcCmTransparency
1071
0
  0
LAYER
  5
622
330
2
100
AcDbSymbolTableRecord
100
AcDbLayerTableRecord
  2
RIDGE_50X150
 70
0
 62
4
  6
Continuous
290
1
370
-3
390
0
1001
AcAecLayerStandard
1000

1000

1001
AcCmTransparency
1071
0
  0
LAYER
  5
635
330
2
100
AcDbSymbolTableRecord
100
AcDbLayerTableRecord
  2
ROOF_COVER
 70
0
 62
2
  6
Continuous
290
1
370
-3
390
0
1001
AcAecLayerStandard
1000

1000

1001
AcCmTransparency
1071
0
  0
ENDTAB
  0
TABLE
  2
STYLE
  5
3
330
0
100
AcDbSymbolTable
 70
8
  0
STYLE
  5
11
330
3
100
AcDbSymbolTableRecord
100
AcDbTextStyleTableRecord
  2
Standard
 70
0
  3
arial.ttf
 40
0.0
 41
1.0
 42
0.2
 50
0.0
 71
0
1001
ACAD
1000
Arial
1071
34
  0
STYLE
  5
DC
330
3
100
AcDbSymbolTableRecord
100
AcDbTextStyleTableRecord
  2
Annotative
 70
0
  3
arial.ttf
 40
0.0
 41
1.0
 42
0.2
 50
0.0
 71
0
1001
AcadAnnotative
1000
AnnotativeData
1002
{
1070
1
1070
1
1002
}
1001
ACAD
1000
Arial
1071
34
  0
STYLE
  5
28F
330
3
100
AcDbSymbolTableRecord
100
AcDbTextStyleTableRecord
  2
Text 25
 70
0
  3
arial.ttf
 40
62.5
 41
0.7
 42
62.5
 50
0.0
 71
0
1001
ACAD
1000
Arial
1071
34
  0
STYLE
  5
290
330
3
100
AcDbSymbolTableRecord
100
AcDbTextStyleTableRecord
  2
Text 50
 70
0
  3
arial.ttf
 40
125.0
 41
0.7
 42
125.0
 50
0.0
 71
0
1001
ACAD
1000
Arial
1071
34
  0
STYLE
  5
291
330
3
100
AcDbSymbolTableRecord
100
AcDbTextStyleTableRecord
  2
Text 10
 70
0
  3
arial.ttf
 40
25.0
 41
0.7
 42
25.0
 50
0.0
 71
0
1001
ACAD
1000
Arial
1071
34
  0
STYLE
  5
292
330
3
100
AcDbSymbolTableRecord
100
AcDbTextStyleTableRecord
  2
Arial
 70
0
  3
arial.ttf
 40
175.0
 41
1.0
 42
175.0
 50
0.0
 71
0
1001
ACAD
1000
Arial
1071
34
  0
STYLE
  5
293
330
3
100
AcDbSymbolTableRecord
100
AcDbTextStyleTableRecord
  2
Text 5
 70
0
  3
arial.ttf
 40
12.5
 41
0.7
 42
175.0
 50
0.0
 71
0
1001
ACAD
1000
Arial
1071
34
  0
STYLE
  5
39D
330
3
100
AcDbSymbolTableRecord
100
AcDbTextStyleTableRecord
  2
Text  100
 70
0
  3
arial.ttf
 40
250.0
 41
0.7
 42
250.0
 50
0.0
 71
0
1001
ACAD
1000
Arial
1071
34
  0
ENDTAB
  0
TABLE
  2
VIEW
  5
6
330
0
100
AcDbSymbolTable
 70
0
  0
ENDTAB
  0
TABLE
  2
UCS
  5
7
330
0
100
AcDbSymbolTable
 70
0
  0
ENDTAB
  0
TABLE
  2
APPID
  5
9
330
0
100
AcDbSymbolTable
 70
20
  0
APPID
  5
12
330
9
100
AcDbSymbolTableRecord
100
AcDbRegAppTableRecord
  2
ACAD
 70
0
  0
APPID
  5
DD
330
9
100
AcDbSymbolTableRecord
100
AcDbRegAppTableRecord
  2
AcadAnnoPO
 70
0
  0
APPID
  5
DE
330
9
100
AcDbSymbolTableRecord
100
AcDbRegAppTableRecord
  2
AcadAnnotative
 70
0
  0
APPID
  5
DF
330
9
100
AcDbSymbolTableRecord
100
AcDbRegAppTableRecord
  2
ACAD_DSTYLE_DIMJAG
 70
0
  0
APPID
  5
E0
330
9
100
AcDbSymbolTableRecord
100
AcDbRegAppTableRecord
  2
ACAD_DSTYLE_DIMTALN
 70
0
  0
APPID
  5
107
330
9
100
AcDbSymbolTableRecord
100
AcDbRegAppTableRecord
  2
ACAD_MLEADERVER
 70
0
  0
APPID
  5
1A6
330
9
100
AcDbSymbolTableRecord
100
AcDbRegAppTableRecord
  2
ACAD_NAV_VCDISPLAY
 70
0
  0
APPID
  5
244
330
9
100
AcDbSymbolTableRecord
100
AcDbRegAppTableRecord
  2
ACAD_EXEMPT_FROM_CAD_STANDARDS
 70
0
  0
APPID
  5
254
330
9
100
AcDbSymbolTableRecord
100
AcDbRegAppTableRecord
  2
Acad_TC
 70
0
  0
APPID
  5
29A
330
9
100
AcDbSymbolTableRecord
100
AcDbRegAppTableRecord
  2
RAK
 70
0
  0
APPID
  5
29B
330
9
100
AcDbSymbolTableRecord
100
AcDbRegAppTableRecord
  2
ACAD_PSEXT
 70
0
  0
APPID
  5
29C
330
9
100
AcDbSymbolTableRecord
100
AcDbRegAppTableRecord
  2
ACAD_DSTYLE_DIMBREAK
 70
0
  0
APPID
  5
29D
330
9
100
AcDbSymbolTableRecord
100
AcDbRegAppTableRecord
  2
ACAD_DSTYLE_DIMJOGGED_JOGANGLE_SYMBOL
 70
0
  0
APPID
  5
29E
330
9
100
AcDbSymbolTableRecord
100
AcDbRegAppTableRecord
  2
SDHandle
 70
0
  0
APPID
  5
29F
330
9
100
AcDbSymbolTableRecord
100
AcDbRegAppTableRecord
  2
ParentHandle
 70
0
  0
APPID
  5
2A0
330
9
100
AcDbSymbolTableRecord
100
AcDbRegAppTableRecord
  2
PLOTTRANSPARENCY
 70
0
  0
APPID
  5
317
330
9
100
AcDbSymbolTableRecord
100
AcDbRegAppTableRecord
  2
GradientColor1ACI
 70
0
  0
APPID
  5
318
330
9
100
AcDbSymbolTableRecord
100
AcDbRegAppTableRecord
  2
GradientColor2ACI
 70
0
  0
APPID
  5
31B
330
9
100
AcDbSymbolTableRecord
100
AcDbRegAppTableRecord
  2
AcAecLayerStandard
 70
0
  0
APPID
  5
31C
330
9
100
AcDbSymbolTableRecord
100
AcDbRegAppTableRecord
  2
AcCmTransparency
 70
0
  0
ENDTAB
  0
TABLE
  2
DIMSTYLE
  5
A
330
0
100
AcDbSymbolTable
 70
11
100
AcDbDimStyleTable
  0
DIMSTYLE
105
27
330
A
100
AcDbSymbolTableRecord
100
AcDbDimStyleTableRecord
  2
Standard
 70
0
  3

  4

 40
1.0
 41
0.18
 42
0.0625
 43
0.38
 44
0.18
 45
0.0
 46
0.0
 47
0.0
 48
0.0
 49
1.0
 50
45.0
 70
0
 90
0
140
0.18
141
0.09
142
0.0
143
25.4
144
1.0
145
0.0
146
1.0
147
0.09
148
0.0
 71
0
 72
0
 73
1
 74
1
 75
0
 76
0
 77
0
 78
0
 79
0
170
0
171
2
172
0
173
0
174
0
175
0
176
0
177
0
178
0
179
0
271
4
272
4
273
2
274
2
275
0
276
0
277
2
278
46
279
0
280
0
281
0
282
0
283
1
284
0
285
0
286
0
287
3
288
0
289
3
290
0
340
11
371
-2
372
-2
  0
DIMSTYLE
105
E1
330
A
100
AcDbSymbolTableRecord
100
AcDbDimStyleTableRecord
  2
Annotative
 70
0
  3

  4

 40
0.0
 41
0.18
 42
0.0625
 43
0.38
 44
0.18
 45
0.0
 46
0.0
 47
0.0
 48
0.0
 49
1.0
 50
45.0
 70
0
 90
0
140
0.18
141
0.09
142
0.0
143
25.4
144
1.0
145
0.0
146
1.0
147
0.09
148
0.0
 71
0
 72
0
 73
1
 74
1
 75
0
 76
0
 77
0
 78
0
 79
0
170
0
171
2
172
0
173
0
174
0
175
0
176
0
177
0
178
0
179
0
271
4
272
4
273
2
274
2
275
0
276
0
277
2
278
46
279
0
280
0
281
0
282
0
283
1
284
0
285
0
286
0
287
3
288
0
289
3
290
0
340
11
371
-2
372
-2
1001
AcadAnnotative
1000
AnnotativeData
1002
{
1070
1
1070
1
1002
}
1001
ACAD_DSTYLE_DIMJAG
1070
388
1040
1.5
1001
ACAD_DSTYLE_DIMTALN
1070
392
1070
0
  0
DIMSTYLE
105
294
330
A
100
AcDbSymbolTableRecord
100
AcDbDimStyleTableRecord
  2
Dim 25
 70
0
  3

  4

 40
25.0
 41
2.5
 42
0.0
 43
3.75
 44
1.5
 45
0.0
 46
1.25
 47
0.0
 48
0.0
 49
1.5
 50
90.0
 70
0
 90
0
140
12.5
141
2.5
142
0.0
143
25.4
144
1.0
145
0.0
146
1.0
147
0.625
148
0.0
 71
0
 72
0
 73
0
 74
0
 75
0
 76
0
 77
1
 78
0
 79
0
170
0
171
2
172
0
173
1
174
0
175
0
176
1
177
1
178
4
179
0
271
0
272
0
273
2
274
2
275
0
276
0
277
2
278
46
279
0
280
0
281
0
282
0
283
1
284
0
285
0
286
0
287
3
288
0
289
3
290
1
340
28F
343
271
344
271
371
-1
372
-1
1001
ACAD_DSTYLE_DIMJAG
1070
388
1040
1.5
1001
ACAD_DSTYLE_DIMTALN
1070
392
1070
0
  0
DIMSTYLE
105
295
330
A
100
AcDbSymbolTableRecord
100
AcDbDimStyleTableRecord
  2
Dim 50
 70
0
  3

  4

 40
50.0
 41
2.5
 42
0.0
 43
3.75
 44
1.5
 45
0.0
 46
1.25
 47
0.0
 48
0.0
 49
1.5
 50
90.0
 70
0
 90
0
140
12.5
141
2.5
142
0.0
143
25.4
144
1.0
145
0.0
146
1.0
147
0.625
148
0.0
 71
0
 72
0
 73
0
 74
0
 75
0
 76
0
 77
1
 78
0
 79
0
170
0
171
2
172
0
173
1
174
0
175
0
176
1
177
1
178
4
179
0
271
0
272
0
273
2
274
2
275
0
276
0
277
2
278
46
279
0
280
0
281
0
282
0
283
1
284
0
285
0
286
0
287
3
288
0
289
3
290
1
340
290
343
271
344
271
371
-1
372
-1
1001
ACAD_DSTYLE_DIMBREAK
1070
391
1040
3.75
1001
ACAD_DSTYLE_DIMJAG
1070
388
1040
1.5
1001
ACAD_DSTYLE_DIMTALN
1070
392
1070
0
  0
DIMSTYLE
105
296
330
A
100
AcDbSymbolTableRecord
100
AcDbDimStyleTableRecord
  2
Dim 10
 70
0
  3

  4

 40
10.0
 41
2.5
 42
0.625
 43
3.75
 44
1.25
 45
0.0
 46
1.25
 47
0.0
 48
0.0
 49
2.0
 50
90.0
 70
0
 90
0
140
2.5
141
2.5
142
0.0
143
25.4
144
1.0
145
0.0
146
1.0
147
0.625
148
0.0
 71
0
 72
0
 73
0
 74
0
 75
0
 76
0
 77
1
 78
0
 79
0
170
0
171
2
172
0
173
0
174
0
175
0
176
1
177
1
178
4
179
3
271
0
272
0
273
2
274
2
275
0
276
0
277
2
278
46
279
0
280
0
281
0
282
0
283
1
284
0
285
0
286
0
287
3
288
0
289
3
290
1
340
291
371
-1
372
-1
1001
ACAD_DSTYLE_DIMJOGGED_JOGANGLE_SYMBOL
1070
384
1040
1.5707963267949
  0
DIMSTYLE
105
297
330
A
100
AcDbSymbolTableRecord
100
AcDbDimStyleTableRecord
  2
100
 70
0
  3

  4

 40
1.0
 41
100.0
 42
0.0
 43
0.38
 44
100.0
 45
0.0
 46
0.0
 47
0.0
 48
0.0
 49
100.0
 50
45.0
 70
0
 90
0
140
175.0
141
0.09
142
0.0
143
25.4
144
1.0
145
0.0
146
1.0
147
75.0
148
0.0
 71
0
 72
0
 73
0
 74
0
 75
0
 76
0
 77
1
 78
0
 79
0
170
0
171
2
172
0
173
0
174
0
175
0
176
7
177
7
178
7
179
0
271
0
272
0
273
2
274
2
275
0
276
0
277
2
278
46
279
0
280
0
281
0
282
0
283
1
284
0
285
0
286
0
287
3
288
0
289
3
290
1
340
292
371
20
372
20
1001
ACAD_DSTYLE_DIMJAG
1070
388
1040
1.5
1001
ACAD_DSTYLE_DIMTALN
1070
392
1070
0
  0
DIMSTYLE
105
298
330
A
100
AcDbSymbolTableRecord
100
AcDbDimStyleTableRecord
  2
Dim 25 Rebar Label
 70
0
  3

  4

 40
25.0
 41
2.5
 42
0.0
 43
0.38
 44
1.5
 45
0.0
 46
0.0
 47
1.0
 48
1.0
 49
1.5
 50
45.0
 70
0
 90
0
140
100.0
141
0.09
142
0.0
143
25.4
144
1.0
145
0.0
146
1.0
147
0.625
148
0.0
 71
0
 72
0
 73
0
 74
1
 75
0
 76
0
 77
1
 78
8
 79
0
170
0
171
2
172
0
173
1
174
0
175
0
176
1
177
5
178
4
179
1
271
0
272
4
273
2
274
2
275
0
276
0
277
2
278
46
279
0
280
0
281
0
282
0
283
1
284
0
285
0
286
0
287
3
288
0
289
3
290
1
340
28F
371
-1
372
-1
  0
DIMSTYLE
105
299
330
A
100
AcDbSymbolTableRecord
100
AcDbDimStyleTableRecord
  2
Dim 5
 70
0
  3

  4

 40
5.0
 41
2.5
 42
0.0
 43
3.75
 44
1.5
 45
0.0
 46
1.25
 47
0.0
 48
0.0
 49
1.5
 50
90.0
 70
0
 90
0
140
12.5
141
2.5
142
0.0
143
25.4
144
1.0
145
0.0
146
1.0
147
0.625
148
0.0
 71
0
 72
0
 73
0
 74
0
 75
0
 76
0
 77
1
 78
0
 79
0
170
0
171
2
172
0
173
1
174
0
175
0
176
1
177
1
178
4
179
0
271
0
272
0
273
2
274
2
275
0
276
0
277
2
278
46
279
0
280
0
281
0
282
0
283
1
284
0
285
0
286
0
287
3
288
0
289
3
290
1
340
293
343
271
344
271
371
-1
372
-1
1001
ACAD_DSTYLE_DIMBREAK
1070
391
1040
0.125
1001
ACAD_DSTYLE_DIMJAG
1070
388
1040
1.5
1001
ACAD_DSTYLE_DIMTALN
1070
392
1070
0
  0
DIMSTYLE
105
39E
330
A
100
AcDbSymbolTableRecord
100
AcDbDimStyleTableRecord
  2
Dim  25
 70
0
  3

  4

 40
25.0
 41
2.5
 42
0.625
 43
3.75
 44
1.25
 45
0.0
 46
1.25
 47
0.0
 48
0.0
 49
3.0
 50
90.0
 70
0
 90
0
140
62.5
141
2.5
142
0.0
143
0.03937007874016
144
1.0
145
0.0
146
1.0
147
0.625
148
0.0
 71
0
 72
0
 73
0
 74
0
 75
0
 76
0
 77
1
 78
8
 79
0
170
0
171
3
172
1
173
0
174
0
175
0
176
1
177
1
178
4
179
0
271
0
272
0
273
2
274
3
275
0
276
0
277
2
278
44
279
2
280
0
281
0
282
0
283
0
284
8
285
0
286
0
287
3
288
0
289
3
290
1
340
28F
371
-1
372
-1
1001
ACAD_DSTYLE_DIMBREAK
1070
391
1040
3.75
1001
ACAD_DSTYLE_DIMJAG
1070
388
1040
1.5
1001
ACAD_DSTYLE_DIMTALN
1070
392
1070
0
  0
DIMSTYLE
105
39F
330
A
100
AcDbSymbolTableRecord
100
AcDbDimStyleTableRecord
  2
Dim 100
 70
0
  3

  4

 40
100.0
 41
2.5
 42
0.625
 43
3.75
 44
1.25
 45
0.0
 46
1.25
 47
0.0
 48
0.0
 49
2.0
 50
90.0
 70
0
 90
0
140
2.5
141
2.5
142
0.0
143
25.4
144
1.0
145
0.0
146
1.0
147
0.625
148
0.0
 71
0
 72
0
 73
0
 74
0
 75
0
 76
0
 77
1
 78
0
 79
0
170
0
171
2
172
0
173
0
174
0
175
0
176
1
177
1
178
4
179
0
271
0
272
0
273
2
274
2
275
0
276
0
277
2
278
46
279
0
280
0
281
0
282
0
283
1
284
0
285
0
286
0
287
3
288
0
289
3
290
1
340
39D
371
-1
372
-1
1001
ACAD_DSTYLE_DIMJOGGED_JOGANGLE_SYMBOL
1070
384
1040
1.5707963267949
  0
DIMSTYLE
105
506
330
A
100
AcDbSymbolTableRecord
100
AcDbDimStyleTableRecord
  2
Copy of Standard
 70
0
  3

  4

 40
1.0
 41
100.0
 42
0.0
 43
0.38
 44
25.0
 45
0.0
 46
0.0
 47
0.0
 48
0.0
 49
25.0
 50
45.0
 70
0
 90
0
140
100.0
141
0.09
142
0.0
143
25.4
144
1.0
145
0.0
146
1.0
147
0.09
148
0.0
 71
0
 72
0
 73
0
 74
0
 75
0
 76
0
 77
0
 78
0
 79
0
170
0
171
2
172
0
173
0
174
0
175
0
176
0
177
0
178
0
179
0
271
4
272
4
273
2
274
2
275
0
276
0
277
2
278
46
279
0
280
0
281
0
282
0
283
1
284
0
285
0
286
0
287
3
288
0
289
3
290
1
340
11
371
-2
372
-2
1001
ACAD_DSTYLE_DIMBREAK
1070
391
1040
0.125
1001
ACAD_DSTYLE_DIMJAG
1070
388
1040
1.5
1001
ACAD_DSTYLE_DIMTALN
1070
392
1070
0
  0
ENDTAB
  0
TABLE
  2
BLOCK_RECORD
  5
1
330
0
100
AcDbSymbolTable
 70
31
  0
BLOCK_RECORD
  5
5D
330
1
100
AcDbSymbolTableRecord
100
AcDbBlockTableRecord
  2
*Paper_Space0
 70
0
340
5E
 70
0
280
1
281
0
  0
BLOCK_RECORD
  5
271
330
1
100
AcDbSymbolTableRecord
100
AcDbBlockTableRecord
  2
_ArchTick
 70
0
 70
0
280
1
281
0
  0
BLOCK_RECORD
  5
275
330
1
100
AcDbSymbolTableRecord
100
AcDbBlockTableRecord
  2
_Closed
 70
0
 70
0
280
1
281
0
  0
BLOCK_RECORD
  5
454
330
1
100
AcDbSymbolTableRecord
100
AcDbBlockTableRecord
  2
*D8
 70
0
 70
0
280
1
281
0
  0
BLOCK_RECORD
  5
461
330
1
100
AcDbSymbolTableRecord
100
AcDbBlockTableRecord
  2
*D9
 70
0
 70
0
280
1
281
0
  0
BLOCK_RECORD
  5
46E
330
1
100
AcDbSymbolTableRecord
100
AcDbBlockTableRecord
  2
*D10
 70
0
 70
0
280
1
281
0
  0
BLOCK_RECORD
  5
47B
330
1
100
AcDbSymbolTableRecord
100
AcDbBlockTableRecord
  2
*D11
 70
0
 70
0
280
1
281
0
  0
BLOCK_RECORD
  5
488
330
1
100
AcDbSymbolTableRecord
100
AcDbBlockTableRecord
  2
*D12
 70
0
 70
0
280
1
281
0
  0
BLOCK_RECORD
  5
495
330
1
100
AcDbSymbolTableRecord
100
AcDbBlockTableRecord
  2
*D13
 70
0
 70
0
280
1
281
0
  0
BLOCK_RECORD
  5
4A2
330
1
100
AcDbSymbolTableRecord
100
AcDbBlockTableRecord
  2
*D14
 70
0
 70
0
280
1
281
0
  0
BLOCK_RECORD
  5
4AF
330
1
100
AcDbSymbolTableRecord
100
AcDbBlockTableRecord
  2
*D15
 70
0
 70
0
280
1
281
0
  0
BLOCK_RECORD
  5
4BC
330
1
100
AcDbSymbolTableRecord
100
AcDbBlockTableRecord
  2
*D16
 70
0
 70
0
280
1
281
0
  0
BLOCK_RECORD
  5
4C9
330
1
100
AcDbSymbolTableRecord
100
AcDbBlockTableRecord
  2
*D17
 70
0
 70
0
280
1
281
0
  0
BLOCK_RECORD
  5
4D6
330
1
100
AcDbSymbolTableRecord
100
AcDbBlockTableRecord
  2
*D18
 70
0
 70
0
280
1
281
0
  0
BLOCK_RECORD
  5
4E3
330
1
100
AcDbSymbolTableRecord
100
AcDbBlockTableRecord
  2
*D19
 70
0
 70
0
280
1
281
0
  0
BLOCK_RECORD
  5
4F0
330
1
100
AcDbSymbolTableRecord
100
AcDbBlockTableRecord
  2
*D20
 70
0
 70
0
280
1
281
0
  0
BLOCK_RECORD
  5
578
330
1
100
AcDbSymbolTableRecord
100
AcDbBlockTableRecord
  2
*D22
 70
0
 70
0
280
1
281
0
  0
BLOCK_RECORD
  5
585
330
1
100
AcDbSymbolTableRecord
100
AcDbBlockTableRecord
  2
*D23
 70
0
 70
0
280
1
281
0
  0
BLOCK_RECORD
  5
592
330
1
100
AcDbSymbolTableRecord
100
AcDbBlockTableRecord
  2
*D24
 70
0
 70
0
280
1
281
0
  0
BLOCK_RECORD
  5
59F
330
1
100
AcDbSymbolTableRecord
100
AcDbBlockTableRecord
  2
*D25
 70
0
 70
0
280
1
281
0
  0
BLOCK_RECORD
  5
5AC
330
1
100
AcDbSymbolTableRecord
100
AcDbBlockTableRecord
  2
*D26
 70
0
 70
0
280
1
281
0
  0
BLOCK_RECORD
  5
5B9
330
1
100
AcDbSymbolTableRecord
100
AcDbBlockTableRecord
  2
*D27
 70
0
 70
0
280
1
281
0
  0
BLOCK_RECORD
  5
5C6
330
1
100
AcDbSymbolTableRecord
100
AcDbBlockTableRecord
  2
*D28
 70
0
 70
0
280
1
281
0
  0
BLOCK_RECORD
  5
5D3
330
1
100
AcDbSymbolTableRecord
100
AcDbBlockTableRecord
  2
*D29
 70
0
 70
0
280
1
281
0
  0
BLOCK_RECORD
  5
5E0
330
1
100
AcDbSymbolTableRecord
100
AcDbBlockTableRecord
  2
*D30
 70
0
 70
0
280
1
281
0
  0
BLOCK_RECORD
  5
5ED
330
1
100
AcDbSymbolTableRecord
100
AcDbBlockTableRecord
  2
*D31
 70
0
 70
0
280
1
281
0
  0
BLOCK_RECORD
  5
5FA
330
1
100
AcDbSymbolTableRecord
100
AcDbBlockTableRecord
  2
*D32
 70
0
 70
0
280
1
281
0
  0
BLOCK_RECORD
  5
607
330
1
100
AcDbSymbolTableRecord
100
AcDbBlockTableRecord
  2
*D33
 70
0
 70
0
280
1
281
0
  0
BLOCK_RECORD
  5
614
330
1
100
AcDbSymbolTableRecord
100
AcDbBlockTableRecord
  2
*D34
 70
0
 70
0
280
1
281
0
  0
BLOCK_RECORD
  5
1F
102
{ACAD_XDICTIONARY
360
15D
102
}
330
1
100
AcDbSymbolTableRecord
100
AcDbBlockTableRecord
  2
*Model_Space
 70
0
340
22
 70
0
280
1
281
0
  0
BLOCK_RECORD
  5
58
330
1
100
AcDbSymbolTableRecord
100
AcDbBlockTableRecord
  2
*Paper_Space
 70
0
340
59
 70
0
280
1
281
0
  0
ENDTAB
  0
ENDSEC
  0
SECTION
  2
BLOCKS
  0
BLOCK
  5
5F
330
5D
100
AcDbEntity
  8
0
  6
ByLayer
 62
256
 48
1.0
 60
0
 67
1
370
-1
100
AcDbBlockBegin
  2
*Paper_Space0
 70
0
 10
0.0
 20
0.0
 30
0.0
  3
*Paper_Space0
  4

  0
ENDBLK
  5
60
330
5D
100
AcDbEntity
  8
0
100
AcDbBlockEnd
  0
BLOCK
  5
272
330
271
100
AcDbEntity
  8
0
  6
ByLayer
 62
256
 48
1.0
 60
0
370
-1
100
AcDbBlockBegin
  2
_ArchTick
 70
0
 10
0.0
 20
0.0
 30
0.0
  3
_ArchTick
  4

  0
LWPOLYLINE
  5
273
330
271
100
AcDbEntity
  8
WALLS
  6
ByLayer
 62
0
440
33554687
 48
1.0
 60
0
370
-1
100
AcDbPolyline
 90
2
 70
0
 38
0.0
 39
0.0
 10
-0.5
 20
-0.5
 40
0.0
 41
0.0
 42
0.0
 10
0.5
 20
0.5
 40
0.0
 41
0.0
 42
0.0
210
0.0
220
0.0
230
1.0
  0
ENDBLK
  5
274
330
271
100
AcDbEntity
  8
0
100
AcDbBlockEnd
  0
BLOCK
  5
276
330
275
100
AcDbEntity
  8
0
  6
ByLayer
 62
256
 48
1.0
 60
0
370
18
100
AcDbBlockBegin
  2
_Closed
 70
0
 10
0.0
 20
0.0
 30
0.0
  3
_Closed
  4

  0
LINE
  5
277
330
275
100
AcDbEntity
  8
0
  6
ByBlock
 62
0
440
33554687
 48
1.0
 60
0
370
-2
100
AcDbLine
 10
-1.0
 20
0.166666666666667
 30
0.0
 11
0.0
 21
0.0
 31
0.0
 39
0.0
210
0.0
220
0.0
230
1.0
  0
LINE
  5
278
330
275
100
AcDbEntity
  8
0
  6
ByBlock
 62
0
440
33554687
 48
1.0
 60
0
370
-2
100
AcDbLine
 10
0.0
 20
0.0
 30
0.0
 11
-1.0
 21
-0.166666666666667
 31
0.0
 39
0.0
210
0.0
220
0.0
230
1.0
  0
LINE
  5
279
330
275
100
AcDbEntity
  8
0
  6
ByBlock
 62
0
440
33554687
 48
1.0
 60
0
370
-2
100
AcDbLine
 10
-1.0
 20
0.166666666666667
 30
0.0
 11
-1.0
 21
-0.166666666666667
 31
0.0
 39
0.0
210
0.0
220
0.0
230
1.0
  0
LINE
  5
27A
330
275
100
AcDbEntity
  8
0
  6
ByBlock
 62
0
440
33554687
 48
1.0
 60
0
370
-2
100
AcDbLine
 10
0.0
 20
0.0
 30
0.0
 11
-1.0
 21
0.0
 31
0.0
 39
0.0
210
0.0
220
0.0
230
1.0
  0
ENDBLK
  5
27B
330
275
100
AcDbEntity
  8
0
100
AcDbBlockEnd
  0
BLOCK
  5
455
330
454
100
AcDbEntity
  8
0
  6
ByLayer
 62
256
 48
1.0
 60
0
370
-1
100
AcDbBlockBegin
  2
*D8
 70
1
 10
0.0
 20
0.0
 30
0.0
  3
*D8
  4

  0
LINE
  5
456
330
454
100
AcDbEntity
  8
0
  6
ByLayer
 62
0
440
16777216
 48
1.0
 60
0
370
-2
100
AcDbLine
 10
5127.89946123775
 20
7750.0
 30
0.0
 11
5077.89946123775
 21
7750.0
 31
0.0
 39
0.0
210
0.0
220
0.0
230
1.0
  0
LINE
  5
457
330
454
100
AcDbEntity
  8
0
  6
ByLayer
 62
0
440
16777216
 48
1.0
 60
0
370
-2
100
AcDbLine
 10
5127.89946123775
 20
5250.0
 30
0.0
 11
5077.89946123775
 21
5250.0
 31
0.0
 39
0.0
210
0.0
220
0.0
230
1.0
  0
LINE
  5
458
330
454
100
AcDbEntity
  8
0
  6
ByLayer
 62
0
440
16777216
 48
1.0
 60
0
370
-2
100
AcDbLine
 10
5102.89946123775
 20
7650.0
 30
0.0
 11
5102.89946123775
 21
6824.88536152797
 31
0.0
 39
0.0
210
0.0
220
0.0
230
1.0
  0
LINE
  5
459
330
454
100
AcDbEntity
  8
0
  6
ByLayer
 62
0
440
16777216
 48
1.0
 60
0
370
-2
100
AcDbLine
 10
5102.89946123775
 20
5350.0
 30
0.0
 11
5102.89946123775
 21
6175.11463847204
 31
0.0
 39
0.0
210
0.0
220
0.0
230
1.0
  0
SOLID
  5
45A
330
454
100
AcDbEntity
  8
0
  6
ByLayer
 62
0
440
16777216
 48
1.0
 60
0
370
-1
100
AcDbTrace
 10
5086.23279457108
 20
7650.0
 30
0.0
 11
5119.56612790442
 21
7650.0
 31
0.0
 12
5102.89946123775
 22
7750.0
 32
0.0
 13
5102.89946123775
 23
7750.0
 33
0.0
 39
0.0
210
0.0
220
0.0
230
1.0
  0
SOLID
  5
45B
330
454
100
AcDbEntity
  8
0
  6
ByLayer
 62
0
440
16777216
 48
1.0
 60
0
370
-1
100
AcDbTrace
 10
5086.23279457108
 20
5350.0
 30
0.0
 11
5119.56612790442
 21
5350.0
 31
0.0
 12
5102.89946123775
 22
5250.0
 32
0.0
 13
5102.89946123775
 23
5250.0
 33
0.0
 39
0.0
210
0.0
220
0.0
230
1.0
  0
MTEXT
  5
45C
330
454
100
AcDbEntity
  8
0
  6
ByLayer
 62
0
440
16777216
 48
1.0
 60
0
370
-1
100
AcDbMText
 10
5102.89946123775
 20
6500.0
 30
0.0
 40
100.0
 41
0.0
 44
1.0
 46
0.0
 71
5
 72
1
  1
\A1;2500.0000
  7
Standard
 73
1
 11
0.0000000000000001
 21
1.0
 31
0.0
210
0.0
220
0.0
230
1.0
  0
POINT
  5
45D
330
454
100
AcDbEntity
  8
Defpoints
  6
ByLayer
 62
0
440
16777216
 48
1.0
 60
0
370
-1
100
AcDbPoint
 10
5250.0
 20
7750.0
 30
0.0
 39
0.0
210
0.0
220
0.0
230
1.0
 50
0.0
  0
POINT
  5
45E
330
454
100
AcDbEntity
  8
Defpoints
  6
ByLayer
 62
0
440
16777216
 48
1.0
 60
0
370
-1
100
AcDbPoint
 10
5250.0
 20
5250.0
 30
0.0
 39
0.0
210
0.0
220
0.0
230
1.0
 50
0.0
  0
POINT
  5
45F
330
454
100
AcDbEntity
  8
Defpoints
  6
ByLayer
 62
0
440
16777216
 48
1.0
 60
0
370
-1
100
AcDbPoint
 10
5102.89946123775
 20
5250.0
 30
0.0
 39
0.0
210
0.0
220
0.0
230
1.0
 50
0.0
  0
ENDBLK
  5
460
330
454
100
AcDbEntity
  8
0
100
AcDbBlockEnd
  0
BLOCK
  5
462
330
461
100
AcDbEntity
  8
0
  6
ByLayer
 62
256
 48
1.0
 60
0
370
-1
100
AcDbBlockBegin
  2
*D9
 70
1
 10
0.0
 20
0.0
 30
0.0
  3
*D9
  4

  0
LINE
  5
463
330
461
100
AcDbEntity
  8
0
  6
ByLayer
 62
0
440
16777216
 48
1.0
 60
0
370
-2
100
AcDbLine
 10
5000.0
 20
4807.81582562305
 30
0.0
 11
5000.0
 21
4757.81582562305
 31
0.0
 39
0.0
210
0.0
220
0.0
230
1.0
  0
LINE
  5
464
330
461
100
AcDbEntity
  8
0
  6
ByLayer
 62
0
440
16777216
 48
1.0
 60
0
370
-2
100
AcDbLine
 10
9000.0
 20
4807.81582562305
 30
0.0
 11
9000.0
 21
4757.81582562305
 31
0.0
 39
0.0
210
0.0
220
0.0
230
1.0
  0
LINE
  5
465
330
461
100
AcDbEntity
  8
0
  6
ByLayer
 62
0
440
16777216
 48
1.0
 60
0
370
-2
100
AcDbLine
 10
5100.0
 20
4782.81582562305
 30
0.0
 11
6673.95502046385
 21
4782.81582562305
 31
0.0
 39
0.0
210
0.0
220
0.0
230
1.0
  0
LINE
  5
466
330
461
100
AcDbEntity
  8
0
  6
ByLayer
 62
0
440
16777216
 48
1.0
 60
0
370
-2
100
AcDbLine
 10
8900.0
 20
4782.81582562305
 30
0.0
 11
7326.04497953615
 21
4782.81582562305
 31
0.0
 39
0.0
210
0.0
220
0.0
230
1.0
  0
SOLID
  5
467
330
461
100
AcDbEntity
  8
0
  6
ByLayer
 62
0
440
16777216
 48
1.0
 60
0
370
-1
100
AcDbTrace
 10
5100.0
 20
4799.48249228971
 30
0.0
 11
5100.0
 21
4766.14915895638
 31
0.0
 12
5000.0
 22
4782.81582562305
 32
0.0
 13
5000.0
 23
4782.81582562305
 33
0.0
 39
0.0
210
0.0
220
0.0
230
1.0
  0
SOLID
  5
468
330
461
100
AcDbEntity
  8
0
  6
ByLayer
 62
0
440
16777216
 48
1.0
 60
0
370
-1
100
AcDbTrace
 10
8900.0
 20
4799.48249228971
 30
0.0
 11
8900.0
 21
4766.14915895638
 31
0.0
 12
9000.0
 22
4782.81582562305
 32
0.0
 13
9000.0
 23
4782.81582562305
 33
0.0
 39
0.0
210
0.0
220
0.0
230
1.0
  0
MTEXT
  5
469
330
461
100
AcDbEntity
  8
0
  6
ByLayer
 62
0
440
16777216
 48
1.0
 60
0
370
-1
100
AcDbMText
 10
7000.0
 20
4782.81582562305
 30
0.0
 40
100.0
 41
0.0
 44
1.0
 46
0.0
 71
5
 72
1
  1
\A1;4000.0000
  7
Standard
 73
1
 11
1.0
 21
0.0
 31
0.0
210
0.0
220
0.0
230
1.0
  0
POINT
  5
46A
330
461
100
AcDbEntity
  8
Defpoints
  6
ByLayer
 62
0
440
16777216
 48
1.0
 60
0
370
-1
100
AcDbPoint
 10
5000.0
 20
5000.0
 30
0.0
 39
0.0
210
0.0
220
0.0
230
1.0
 50
0.0
  0
POINT
  5
46B
330
461
100
AcDbEntity
  8
Defpoints
  6
ByLayer
 62
0
440
16777216
 48
1.0
 60
0
370
-1
100
AcDbPoint
 10
9000.0
 20
5000.0
 30
0.0
 39
0.0
210
0.0
220
0.0
230
1.0
 50
0.0
  0
POINT
  5
46C
330
461
100
AcDbEntity
  8
Defpoints
  6
ByLayer
 62
0
440
16777216
 48
1.0
 60
0
370
-1
100
AcDbPoint
 10
9000.0
 20
4782.81582562305
 30
0.0
 39
0.0
210
0.0
220
0.0
230
1.0
 50
0.0
  0
ENDBLK
  5
46D
330
461
100
AcDbEntity
  8
0
100
AcDbBlockEnd
  0
BLOCK
  5
46F
330
46E
100
AcDbEntity
  8
0
  6
ByLayer
 62
256
 48
1.0
 60
0
370
-1
100
AcDbBlockBegin
  2
*D10
 70
1
 10
0.0
 20
0.0
 30
0.0
  3
*D10
  4

  0
LINE
  5
470
330
46E
100
AcDbEntity
  8
0
  6
ByLayer
 62
0
440
16777216
 48
1.0
 60
0
370
-2
100
AcDbLine
 10
5250.0
 20
5149.56711138454
 30
0.0
 11
5250.0
 21
5099.56711138454
 31
0.0
 39
0.0
210
0.0
220
0.0
230
1.0
  0
LINE
  5
471
330
46E
100
AcDbEntity
  8
0
  6
ByLayer
 62
0
440
16777216
 48
1.0
 60
0
370
-2
100
AcDbLine
 10
8750.0
 20
5149.56711138454
 30
0.0
 11
8750.0
 21
5099.56711138454
 31
0.0
 39
0.0
210
0.0
220
0.0
230
1.0
  0
LINE
  5
472
330
46E
100
AcDbEntity
  8
0
  6
ByLayer
 62
0
440
16777216
 48
1.0
 60
0
370
-2
100
AcDbLine
 10
5350.0
 20
5124.56711138454
 30
0.0
 11
6676.00140518417
 21
5124.56711138454
 31
0.0
 39
0.0
210
0.0
220
0.0
230
1.0
  0
LINE
  5
473
330
46E
100
AcDbEntity
  8
0
  6
ByLayer
 62
0
440
16777216
 48
1.0
 60
0
370
-2
100
AcDbLine
 10
8650.0
 20
5124.56711138454
 30
0.0
 11
7323.99859481583
 21
5124.56711138454
 31
0.0
 39
0.0
210
0.0
220
0.0
230
1.0
  0
SOLID
  5
474
330
46E
100
AcDbEntity
  8
0
  6
ByLayer
 62
0
440
16777216
 48
1.0
 60
0
370
-1
100
AcDbTrace
 10
5350.0
 20
5141.23377805121
 30
0.0
 11
5350.0
 21
5107.90044471788
 31
0.0
 12
5250.0
 22
5124.56711138454
 32
0.0
 13
5250.0
 23
5124.56711138454
 33
0.0
 39
0.0
210
0.0
220
0.0
230
1.0
  0
SOLID
  5
475
330
46E
100
AcDbEntity
  8
0
  6
ByLayer
 62
0
440
16777216
 48
1.0
 60
0
370
-1
100
AcDbTrace
 10
8650.0
 20
5141.23377805121
 30
0.0
 11
8650.0
 21
5107.90044471788
 31
0.0
 12
8750.0
 22
5124.56711138454
 32
0.0
 13
8750.0
 23
5124.56711138454
 33
0.0
 39
0.0
210
0.0
220
0.0
230
1.0
  0
MTEXT
  5
476
330
46E
100
AcDbEntity
  8
0
  6
ByLayer
 62
0
440
16777216
 48
1.0
 60
0
370
-1
100
AcDbMText
 10
7000.0
 20
5124.56711138454
 30
0.0
 40
100.0
 41
0.0
 44
1.0
 46
0.0
 71
5
 72
1
  1
\A1;3500.0000
  7
Standard
 73
1
 11
1.0
 21
0.0
 31
0.0
210
0.0
220
0.0
230
1.0
  0
POINT
  5
477
330
46E
100
AcDbEntity
  8
Defpoints
  6
ByLayer
 62
0
440
16777216
 48
1.0
 60
0
370
-1
100
AcDbPoint
 10
5250.0
 20
5250.0
 30
0.0
 39
0.0
210
0.0
220
0.0
230
1.0
 50
0.0
  0
POINT
  5
478
330
46E
100
AcDbEntity
  8
Defpoints
  6
ByLayer
 62
0
440
16777216
 48
1.0
 60
0
370
-1
100
AcDbPoint
 10
8750.0
 20
5250.0
 30
0.0
 39
0.0
210
0.0
220
0.0
230
1.0
 50
0.0
  0
POINT
  5
479
330
46E
100
AcDbEntity
  8
Defpoints
  6
ByLayer
 62
0
440
16777216
 48
1.0
 60
0
370
-1
100
AcDbPoint
 10
8750.0
 20
5124.56711138454
 30
0.0
 39
0.0
210
0.0
220
0.0
230
1.0
 50
0.0
  0
ENDBLK
  5
47A
330
46E
100
AcDbEntity
  8
0
100
AcDbBlockEnd
  0
BLOCK
  5
47C
330
47B
100
AcDbEntity
  8
0
  6
ByLayer
 62
256
 48
1.0
 60
0
370
-1
100
AcDbBlockBegin
  2
*D11
 70
1
 10
0.0
 20
0.0
 30
0.0
  3
*D11
  4

  0
LINE
  5
47D
330
47B
100
AcDbEntity
  8
0
  6
ByLayer
 62
0
440
16777216
 48
1.0
 60
0
370
-2
100
AcDbLine
 10
9179.09415914628
 20
8000.0
 30
0.0
 11
9229.09415914628
 21
8000.0
 31
0.0
 39
0.0
210
0.0
220
0.0
230
1.0
  0
LINE
  5
47E
330
47B
100
AcDbEntity
  8
0
  6
ByLayer
 62
0
440
16777216
 48
1.0
 60
0
370
-2
100
AcDbLine
 10
9179.09415914628
 20
5000.0
 30
0.0
 11
9229.09415914628
 21
5000.0
 31
0.0
 39
0.0
210
0.0
220
0.0
230
1.0
  0
LINE
  5
47F
330
47B
100
AcDbEntity
  8
0
  6
ByLayer
 62
0
440
16777216
 48
1.0
 60
0
370
-2
100
AcDbLine
 10
9204.09415914628
 20
7900.0
 30
0.0
 11
9204.09415914628
 21
6823.99859481583
 31
0.0
 39
0.0
210
0.0
220
0.0
230
1.0
  0
LINE
  5
480
330
47B
100
AcDbEntity
  8
0
  6
ByLayer
 62
0
440
16777216
 48
1.0
 60
0
370
-2
100
AcDbLine
 10
9204.09415914628
 20
5100.0
 30
0.0
 11
9204.09415914628
 21
6176.00140518418
 31
0.0
 39
0.0
210
0.0
220
0.0
230
1.0
  0
SOLID
  5
481
330
47B
100
AcDbEntity
  8
0
  6
ByLayer
 62
0
440
16777216
 48
1.0
 60
0
370
-1
100
AcDbTrace
 10
9187.42749247961
 20
7900.0
 30
0.0
 11
9220.76082581294
 21
7900.0
 31
0.0
 12
9204.09415914628
 22
8000.0
 32
0.0
 13
9204.09415914628
 23
8000.0
 33
0.0
 39
0.0
210
0.0
220
0.0
230
1.0
  0
SOLID
  5
482
330
47B
100
AcDbEntity
  8
0
  6
ByLayer
 62
0
440
16777216
 48
1.0
 60
0
370
-1
100
AcDbTrace
 10
9187.42749247961
 20
5100.0
 30
0.0
 11
9220.76082581294
 21
5100.0
 31
0.0
 12
9204.09415914628
 22
5000.0
 32
0.0
 13
9204.09415914628
 23
5000.0
 33
0.0
 39
0.0
210
0.0
220
0.0
230
1.0
  0
MTEXT
  5
483
330
47B
100
AcDbEntity
  8
0
  6
ByLayer
 62
0
440
16777216
 48
1.0
 60
0
370
-1
100
AcDbMText
 10
9204.09415914628
 20
6500.0
 30
0.0
 40
100.0
 41
0.0
 44
1.0
 46
0.0
 71
5
 72
1
  1
\A1;3000.0000
  7
Standard
 73
1
 11
0.0000000000000001
 21
1.0
 31
0.0
210
0.0
220
0.0
230
1.0
  0
POINT
  5
484
330
47B
100
AcDbEntity
  8
Defpoints
  6
ByLayer
 62
0
440
16777216
 48
1.0
 60
0
370
-1
100
AcDbPoint
 10
5000.0
 20
8000.0
 30
0.0
 39
0.0
210
0.0
220
0.0
230
1.0
 50
0.0
  0
POINT
  5
485
330
47B
100
AcDbEntity
  8
Defpoints
  6
ByLayer
 62
0
440
16777216
 48
1.0
 60
0
370
-1
100
AcDbPoint
 10
5000.0
 20
5000.0
 30
0.0
 39
0.0
210
0.0
220
0.0
230
1.0
 50
0.0
  0
POINT
  5
486
330
47B
100
AcDbEntity
  8
Defpoints
  6
ByLayer
 62
0
440
16777216
 48
1.0
 60
0
370
-1
100
AcDbPoint
 10
9204.09415914628
 20
5000.0
 30
0.0
 39
0.0
210
0.0
220
0.0
230
1.0
 50
0.0
  0
ENDBLK
  5
487
330
47B
100
AcDbEntity
  8
0
100
AcDbBlockEnd
  0
BLOCK
  5
489
330
488
100
AcDbEntity
  8
0
  6
ByLayer
 62
256
 48
1.0
 60
0
370
-1
100
AcDbBlockBegin
  2
*D12
 70
1
 10
0.0
 20
0.0
 30
0.0
  3
*D12
  4

  0
LINE
  5
48A
330
488
100
AcDbEntity
  8
0
  6
ByLayer
 62
0
440
16777216
 48
1.0
 60
0
370
-2
100
AcDbLine
 10
9000.0
 20
8100.97183455292
 30
0.0
 11
9000.0
 21
8150.97183455292
 31
0.0
 39
0.0
210
0.0
220
0.0
230
1.0
  0
LINE
  5
48B
330
488
100
AcDbEntity
  8
0
  6
ByLayer
 62
0
440
16777216
 48
1.0
 60
0
370
-2
100
AcDbLine
 10
5000.0
 20
8100.97183455292
 30
0.0
 11
5000.0
 21
8150.97183455292
 31
0.0
 39
0.0
210
0.0
220
0.0
230
1.0
  0
LINE
  5
48C
330
488
100
AcDbEntity
  8
0
  6
ByLayer
 62
0
440
16777216
 48
1.0
 60
0
370
-2
100
AcDbLine
 10
8900.0
 20
8125.97183455292
 30
0.0
 11
7326.04497953615
 21
8125.97183455292
 31
0.0
 39
0.0
210
0.0
220
0.0
230
1.0
  0
LINE
  5
48D
330
488
100
AcDbEntity
  8
0
  6
ByLayer
 62
0
440
16777216
 48
1.0
 60
0
370
-2
100
AcDbLine
 10
5100.0
 20
8125.97183455292
 30
0.0
 11
6673.95502046385
 21
8125.97183455292
 31
0.0
 39
0.0
210
0.0
220
0.0
230
1.0
  0
SOLID
  5
48E
330
488
100
AcDbEntity
  8
0
  6
ByLayer
 62
0
440
16777216
 48
1.0
 60
0
370
-1
100
AcDbTrace
 10
8900.0
 20
8142.63850121959
 30
0.0
 11
8900.0
 21
8109.30516788625
 31
0.0
 12
9000.0
 22
8125.97183455292
 32
0.0
 13
9000.0
 23
8125.97183455292
 33
0.0
 39
0.0
210
0.0
220
0.0
230
1.0
  0
SOLID
  5
48F
330
488
100
AcDbEntity
  8
0
  6
ByLayer
 62
0
440
16777216
 48
1.0
 60
0
370
-1
100
AcDbTrace
 10
5100.0
 20
8142.63850121959
 30
0.0
 11
5100.0
 21
8109.30516788625
 31
0.0
 12
5000.0
 22
8125.97183455292
 32
0.0
 13
5000.0
 23
8125.97183455292
 33
0.0
 39
0.0
210
0.0
220
0.0
230
1.0
  0
MTEXT
  5
490
330
488
100
AcDbEntity
  8
0
  6
ByLayer
 62
0
440
16777216
 48
1.0
 60
0
370
-1
100
AcDbMText
 10
7000.0
 20
8125.97183455292
 30
0.0
 40
100.0
 41
0.0
 44
1.0
 46
0.0
 71
5
 72
1
  1
\A1;4000.0000
  7
Standard
 73
1
 11
1.0
 21
0.0
 31
0.0
210
0.0
220
0.0
230
1.0
  0
POINT
  5
491
330
488
100
AcDbEntity
  8
Defpoints
  6
ByLayer
 62
0
440
16777216
 48
1.0
 60
0
370
-1
100
AcDbPoint
 10
9000.0
 20
8000.0
 30
0.0
 39
0.0
210
0.0
220
0.0
230
1.0
 50
0.0
  0
POINT
  5
492
330
488
100
AcDbEntity
  8
Defpoints
  6
ByLayer
 62
0
440
16777216
 48
1.0
 60
0
370
-1
100
AcDbPoint
 10
5000.0
 20
8000.0
 30
0.0
 39
0.0
210
0.0
220
0.0
230
1.0
 50
0.0
  0
POINT
  5
493
330
488
100
AcDbEntity
  8
Defpoints
  6
ByLayer
 62
0
440
16777216
 48
1.0
 60
0
370
-1
100
AcDbPoint
 10
5000.0
 20
8125.97183455292
 30
0.0
 39
0.0
210
0.0
220
0.0
230
1.0
 50
0.0
  0
ENDBLK
  5
494
330
488
100
AcDbEntity
  8
0
100
AcDbBlockEnd
  0
BLOCK
  5
496
330
495
100
AcDbEntity
  8
0
  6
ByLayer
 62
256
 48
1.0
 60
0
370
-1
100
AcDbBlockBegin
  2
*D13
 70
1
 10
0.0
 20
0.0
 30
0.0
  3
*D13
  4

  0
LINE
  5
497
330
495
100
AcDbEntity
  8
0
  6
ByLayer
 62
0
440
16777216
 48
1.0
 60
0
370
-2
100
AcDbLine
 10
4600.0
 20
4444.15847720976
 30
0.0
 11
4600.0
 21
4394.15847720976
 31
0.0
 39
0.0
210
0.0
220
0.0
230
1.0
  0
LINE
  5
498
330
495
100
AcDbEntity
  8
0
  6
ByLayer
 62
0
440
16777216
 48
1.0
 60
0
370
-2
100
AcDbLine
 10
9400.0
 20
4444.15847720976
 30
0.0
 11
9400.0
 21
4394.15847720976
 31
0.0
 39
0.0
210
0.0
220
0.0
230
1.0
  0
LINE
  5
499
330
495
100
AcDbEntity
  8
0
  6
ByLayer
 62
0
440
16777216
 48
1.0
 60
0
370
-2
100
AcDbLine
 10
4700.0
 20
4419.15847720976
 30
0.0
 11
6673.95502046385
 21
4419.15847720976
 31
0.0
 39
0.0
210
0.0
220
0.0
230
1.0
  0
LINE
  5
49A
330
495
100
AcDbEntity
  8
0
  6
ByLayer
 62
0
440
16777216
 48
1.0
 60
0
370
-2
100
AcDbLine
 10
9300.0
 20
4419.15847720976
 30
0.0
 11
7326.04497953615
 21
4419.15847720976
 31
0.0
 39
0.0
210
0.0
220
0.0
230
1.0
  0
SOLID
  5
49B
330
495
100
AcDbEntity
  8
0
  6
ByLayer
 62
0
440
16777216
 48
1.0
 60
0
370
-1
100
AcDbTrace
 10
4700.0
 20
4435.82514387642
 30
0.0
 11
4700.0
 21
4402.49181054309
 31
0.0
 12
4600.0
 22
4419.15847720976
 32
0.0
 13
4600.0
 23
4419.15847720976
 33
0.0
 39
0.0
210
0.0
220
0.0
230
1.0
  0
SOLID
  5
49C
330
495
100
AcDbEntity
  8
0
  6
ByLayer
 62
0
440
16777216
 48
1.0
 60
0
370
-1
100
AcDbTrace
 10
9300.0
 20
4435.82514387642
 30
0.0
 11
9300.0
 21
4402.49181054309
 31
0.0
 12
9400.0
 22
4419.15847720976
 32
0.0
 13
9400.0
 23
4419.15847720976
 33
0.0
 39
0.0
210
0.0
220
0.0
230
1.0
  0
MTEXT
  5
49D
330
495
100
AcDbEntity
  8
0
  6
ByLayer
 62
0
440
16777216
 48
1.0
 60
0
370
-1
100
AcDbMText
 10
7000.0
 20
4419.15847720976
 30
0.0
 40
100.0
 41
0.0
 44
1.0
 46
0.0
 71
5
 72
1
  1
\A1;4800.0000
  7
Standard
 73
1
 11
1.0
 21
0.0
 31
0.0
210
0.0
220
0.0
230
1.0
  0
POINT
  5
49E
330
495
100
AcDbEntity
  8
Defpoints
  6
ByLayer
 62
0
440
16777216
 48
1.0
 60
0
370
-1
100
AcDbPoint
 10
4600.0
 20
8237.86868094516
 30
0.0
 39
0.0
210
0.0
220
0.0
230
1.0
 50
0.0
  0
POINT
  5
49F
330
495
100
AcDbEntity
  8
Defpoints
  6
ByLayer
 62
0
440
16777216
 48
1.0
 60
0
370
-1
100
AcDbPoint
 10
9400.0
 20
8237.86868094516
 30
0.0
 39
0.0
210
0.0
220
0.0
230
1.0
 50
0.0
  0
POINT
  5
4A0
330
495
100
AcDbEntity
  8
Defpoints
  6
ByLayer
 62
0
440
16777216
 48
1.0
 60
0
370
-1
100
AcDbPoint
 10
9400.0
 20
4419.15847720976
 30
0.0
 39
0.0
210
0.0
220
0.0
230
1.0
 50
0.0
  0
ENDBLK
  5
4A1
330
495
100
AcDbEntity
  8
0
100
AcDbBlockEnd
  0
BLOCK
  5
4A3
330
4A2
100
AcDbEntity
  8
0
  6
ByLayer
 62
256
 48
1.0
 60
0
370
-1
100
AcDbBlockBegin
  2
*D14
 70
1
 10
0.0
 20
0.0
 30
0.0
  3
*D14
  4

  0
LINE
  5
4A4
330
4A2
100
AcDbEntity
  8
0
  6
ByLayer
 62
0
440
16777216
 48
1.0
 60
0
370
-2
100
AcDbLine
 10
4420.01172881156
 20
8400.0
 30
0.0
 11
4370.01172881156
 21
8400.0
 31
0.0
 39
0.0
210
0.0
220
0.0
230
1.0
  0
LINE
  5
4A5
330
4A2
100
AcDbEntity
  8
0
  6
ByLayer
 62
0
440
16777216
 48
1.0
 60
0
370
-2
100
AcDbLine
 10
4420.01172881156
 20
4600.0
 30
0.0
 11
4370.01172881156
 21
4600.0
 31
0.0
 39
0.0
210
0.0
220
0.0
230
1.0
  0
LINE
  5
4A6
330
4A2
100
AcDbEntity
  8
0
  6
ByLayer
 62
0
440
16777216
 48
1.0
 60
0
370
-2
100
AcDbLine
 10
4395.01172881156
 20
8300.0
 30
0.0
 11
4395.01172881156
 21
6823.99859481583
 31
0.0
 39
0.0
210
0.0
220
0.0
230
1.0
  0
LINE
  5
4A7
330
4A2
100
AcDbEntity
  8
0
  6
ByLayer
 62
0
440
16777216
 48
1.0
 60
0
370
-2
100
AcDbLine
 10
4395.01172881156
 20
4700.0
 30
0.0
 11
4395.01172881156
 21
6176.00140518418
 31
0.0
 39
0.0
210
0.0
220
0.0
230
1.0
  0
SOLID
  5
4A8
330
4A2
100
AcDbEntity
  8
0
  6
ByLayer
 62
0
440
16777216
 48
1.0
 60
0
370
-1
100
AcDbTrace
 10
4378.34506214489
 20
8300.0
 30
0.0
 11
4411.67839547823
 21
8300.0
 31
0.0
 12
4395.01172881156
 22
8400.0
 32
0.0
 13
4395.01172881156
 23
8400.0
 33
0.0
 39
0.0
210
0.0
220
0.0
230
1.0
  0
SOLID
  5
4A9
330
4A2
100
AcDbEntity
  8
0
  6
ByLayer
 62
0
440
16777216
 48
1.0
 60
0
370
-1
100
AcDbTrace
 10
4378.34506214489
 20
4700.0
 30
0.0
 11
4411.67839547823
 21
4700.0
 31
0.0
 12
4395.01172881156
 22
4600.0
 32
0.0
 13
4395.01172881156
 23
4600.0
 33
0.0
 39
0.0
210
0.0
220
0.0
230
1.0
  0
MTEXT
  5
4AA
330
4A2
100
AcDbEntity
  8
0
  6
ByLayer
 62
0
440
16777216
 48
1.0
 60
0
370
-1
100
AcDbMText
 10
4395.01172881156
 20
6500.0
 30
0.0
 40
100.0
 41
0.0
 44
1.0
 46
0.0
 71
5
 72
1
  1
\A1;3800.0000
  7
Standard
 73
1
 11
0.0000000000000001
 21
1.0
 31
0.0
210
0.0
220
0.0
230
1.0
  0
POINT
  5
4AB
330
4A2
100
AcDbEntity
  8
Defpoints
  6
ByLayer
 62
0
440
16777216
 48
1.0
 60
0
370
-1
100
AcDbPoint
 10
4600.0
 20
8400.0
 30
0.0
 39
0.0
210
0.0
220
0.0
230
1.0
 50
0.0
  0
POINT
  5
4AC
330
4A2
100
AcDbEntity
  8
Defpoints
  6
ByLayer
 62
0
440
16777216
 48
1.0
 60
0
370
-1
100
AcDbPoint
 10
4600.0
 20
4600.0
 30
0.0
 39
0.0
210
0.0
220
0.0
230
1.0
 50
0.0
  0
POINT
  5
4AD
330
4A2
100
AcDbEntity
  8
Defpoints
  6
ByLayer
 62
0
440
16777216
 48
1.0
 60
0
370
-1
100
AcDbPoint
 10
4395.01172881156
 20
4600.0
 30
0.0
 39
0.0
210
0.0
220
0.0
230
1.0
 50
0.0
  0
ENDBLK
  5
4AE
330
4A2
100
AcDbEntity
  8
0
100
AcDbBlockEnd
  0
BLOCK
  5
4B0
330
4AF
100
AcDbEntity
  8
0
  6
ByLayer
 62
256
 48
1.0
 60
0
370
-1
100
AcDbBlockBegin
  2
*D15
 70
1
 10
0.0
 20
0.0
 30
0.0
  3
*D15
  4

  0
LINE
  5
4B1
330
4AF
100
AcDbEntity
  8
0
  6
ByLayer
 62
0
440
16777216
 48
1.0
 60
0
370
-2
100
AcDbLine
 10
5912.79502846856
 20
5393.43006125912
 30
0.0
 11
5912.79502846856
 21
5343.43006125912
 31
0.0
 39
0.0
210
0.0
220
0.0
230
1.0
  0
LINE
  5
4B2
330
4AF
100
AcDbEntity
  8
0
  6
ByLayer
 62
0
440
16777216
 48
1.0
 60
0
370
-2
100
AcDbLine
 10
6812.79502846856
 20
5393.43006125912
 30
0.0
 11
6812.79502846856
 21
5343.43006125912
 31
0.0
 39
0.0
210
0.0
220
0.0
230
1.0
  0
LINE
  5
4B3
330
4AF
100
AcDbEntity
  8
0
  6
ByLayer
 62
0
440
16777216
 48
1.0
 60
0
370
-2
100
AcDbLine
 10
6012.79502846856
 20
5368.43006125912
 30
0.0
 11
6077.60953051495
 21
5368.43006125912
 31
0.0
 39
0.0
210
0.0
220
0.0
230
1.0
  0
LINE
  5
4B4
330
4AF
100
AcDbEntity
  8
0
  6
ByLayer
 62
0
440
16777216
 48
1.0
 60
0
370
-2
100
AcDbLine
 10
6712.79502846856
 20
5368.43006125912
 30
0.0
 11
6647.98052642218
 21
5368.43006125912
 31
0.0
 39
0.0
210
0.0
220
0.0
230
1.0
  0
SOLID
  5
4B5
330
4AF
100
AcDbEntity
  8
0
  6
ByLayer
 62
0
440
16777216
 48
1.0
 60
0
370
-1
100
AcDbTrace
 10
6012.79502846856
 20
5385.09672792578
 30
0.0
 11
6012.79502846856
 21
5351.76339459245
 31
0.0
 12
5912.79502846856
 22
5368.43006125912
 32
0.0
 13
5912.79502846856
 23
5368.43006125912
 33
0.0
 39
0.0
210
0.0
220
0.0
230
1.0
  0
SOLID
  5
4B6
330
4AF
100
AcDbEntity
  8
0
  6
ByLayer
 62
0
440
16777216
 48
1.0
 60
0
370
-1
100
AcDbTrace
 10
6712.79502846856
 20
5385.09672792578
 30
0.0
 11
6712.79502846856
 21
5351.76339459245
 31
0.0
 12
6812.79502846856
 22
5368.43006125912
 32
0.0
 13
6812.79502846856
 23
5368.43006125912
 33
0.0
 39
0.0
210
0.0
220
0.0
230
1.0
  0
MTEXT
  5
4B7
330
4AF
100
AcDbEntity
  8
0
  6
ByLayer
 62
0
440
16777216
 48
1.0
 60
0
370
-1
100
AcDbMText
 10
6362.79502846856
 20
5368.43006125912
 30
0.0
 40
100.0
 41
0.0
 44
1.0
 46
0.0
 71
5
 72
1
  1
\A1;900.0000
  7
Standard
 73
1
 11
1.0
 21
0.0
 31
0.0
210
0.0
220
0.0
230
1.0
  0
POINT
  5
4B8
330
4AF
100
AcDbEntity
  8
Defpoints
  6
ByLayer
 62
0
440
16777216
 48
1.0
 60
0
370
-1
100
AcDbPoint
 10
5912.79502846856
 20
5459.39033697548
 30
0.0
 39
0.0
210
0.0
220
0.0
230
1.0
 50
0.0
  0
POINT
  5
4B9
330
4AF
100
AcDbEntity
  8
Defpoints
  6
ByLayer
 62
0
440
16777216
 48
1.0
 60
0
370
-1
100
AcDbPoint
 10
6812.79502846856
 20
5459.39033697548
 30
0.0
 39
0.0
210
0.0
220
0.0
230
1.0
 50
0.0
  0
POINT
  5
4BA
330
4AF
100
AcDbEntity
  8
Defpoints
  6
ByLayer
 62
0
440
16777216
 48
1.0
 60
0
370
-1
100
AcDbPoint
 10
6812.79502846856
 20
5368.43006125912
 30
0.0
 39
0.0
210
0.0
220
0.0
230
1.0
 50
0.0
  0
ENDBLK
  5
4BB
330
4AF
100
AcDbEntity
  8
0
100
AcDbBlockEnd
  0
BLOCK
  5
4BD
330
4BC
100
AcDbEntity
  8
0
  6
ByLayer
 62
256
 48
1.0
 60
0
370
-1
100
AcDbBlockBegin
  2
*D16
 70
1
 10
0.0
 20
0.0
 30
0.0
  3
*D16
  4

  0
LINE
  5
4BE
330
4BC
100
AcDbEntity
  8
0
  6
ByLayer
 62
0
440
16777216
 48
1.0
 60
0
370
-2
100
AcDbLine
 10
7594.45181892888
 20
6258.62322171984
 30
0.0
 11
7594.45181892888
 21
6208.62322171984
 31
0.0
 39
0.0
210
0.0
220
0.0
230
1.0
  0
LINE
  5
4BF
330
4BC
100
AcDbEntity
  8
0
  6
ByLayer
 62
0
440
16777216
 48
1.0
 60
0
370
-2
100
AcDbLine
 10
8494.45181892888
 20
6258.62322171984
 30
0.0
 11
8494.45181892888
 21
6208.62322171984
 31
0.0
 39
0.0
210
0.0
220
0.0
230
1.0
  0
LINE
  5
4C0
330
4BC
100
AcDbEntity
  8
0
  6
ByLayer
 62
0
440
16777216
 48
1.0
 60
0
370
-2
100
AcDbLine
 10
7694.45181892888
 20
6233.62322171984
 30
0.0
 11
7759.26632097526
 21
6233.62322171984
 31
0.0
 39
0.0
210
0.0
220
0.0
230
1.0
  0
LINE
  5
4C1
330
4BC
100
AcDbEntity
  8
0
  6
ByLayer
 62
0
440
16777216
 48
1.0
 60
0
370
-2
100
AcDbLine
 10
8394.45181892888
 20
6233.62322171984
 30
0.0
 11
8329.63731688249
 21
6233.62322171984
 31
0.0
 39
0.0
210
0.0
220
0.0
230
1.0
  0
SOLID
  5
4C2
330
4BC
100
AcDbEntity
  8
0
  6
ByLayer
 62
0
440
16777216
 48
1.0
 60
0
370
-1
100
AcDbTrace
 10
7694.45181892888
 20
6250.28988838651
 30
0.0
 11
7694.45181892888
 21
6216.95655505317
 31
0.0
 12
7594.45181892888
 22
6233.62322171984
 32
0.0
 13
7594.45181892888
 23
6233.62322171984
 33
0.0
 39
0.0
210
0.0
220
0.0
230
1.0
  0
SOLID
  5
4C3
330
4BC
100
AcDbEntity
  8
0
  6
ByLayer
 62
0
440
16777216
 48
1.0
 60
0
370
-1
100
AcDbTrace
 10
8394.45181892888
 20
6250.28988838651
 30
0.0
 11
8394.45181892888
 21
6216.95655505317
 31
0.0
 12
8494.45181892888
 22
6233.62322171984
 32
0.0
 13
8494.45181892888
 23
6233.62322171984
 33
0.0
 39
0.0
210
0.0
220
0.0
230
1.0
  0
MTEXT
  5
4C4
330
4BC
100
AcDbEntity
  8
0
  6
ByLayer
 62
0
440
16777216
 48
1.0
 60
0
370
-1
100
AcDbMText
 10
8044.45181892888
 20
6233.62322171984
 30
0.0
 40
100.0
 41
0.0
 44
1.0
 46
0.0
 71
5
 72
1
  1
\A1;900.0000
  7
Standard
 73
1
 11
1.0
 21
0.0
 31
0.0
210
0.0
220
0.0
230
1.0
  0
POINT
  5
4C5
330
4BC
100
AcDbEntity
  8
Defpoints
  6
ByLayer
 62
0
440
16777216
 48
1.0
 60
0
370
-1
100
AcDbPoint
 10
7594.45181892888
 20
6376.95492706786
 30
0.0
 39
0.0
210
0.0
220
0.0
230
1.0
 50
0.0
  0
POINT
  5
4C6
330
4BC
100
AcDbEntity
  8
Defpoints
  6
ByLayer
 62
0
440
16777216
 48
1.0
 60
0
370
-1
100
AcDbPoint
 10
8494.45181892888
 20
6376.95492706786
 30
0.0
 39
0.0
210
0.0
220
0.0
230
1.0
 50
0.0
  0
POINT
  5
4C7
330
4BC
100
AcDbEntity
  8
Defpoints
  6
ByLayer
 62
0
440
16777216
 48
1.0
 60
0
370
-1
100
AcDbPoint
 10
8494.45181892888
 20
6233.62322171984
 30
0.0
 39
0.0
210
0.0
220
0.0
230
1.0
 50
0.0
  0
ENDBLK
  5
4C8
330
4BC
100
AcDbEntity
  8
0
100
AcDbBlockEnd
  0
BLOCK
  5
4CA
330
4C9
100
AcDbEntity
  8
0
  6
ByLayer
 62
256
 48
1.0
 60
0
370
-1
100
AcDbBlockBegin
  2
*D17
 70
1
 10
0.0
 20
0.0
 30
0.0
  3
*D17
  4

  0
LINE
  5
4CB
330
4C9
100
AcDbEntity
  8
0
  6
ByLayer
 62
0
440
16777216
 48
1.0
 60
0
370
-2
100
AcDbLine
 10
8598.85908434005
 20
7576.95492706786
 30
0.0
 11
8648.85908434005
 21
7576.95492706786
 31
0.0
 39
0.0
210
0.0
220
0.0
230
1.0
  0
LINE
  5
4CC
330
4C9
100
AcDbEntity
  8
0
  6
ByLayer
 62
0
440
16777216
 48
1.0
 60
0
370
-2
100
AcDbLine
 10
8598.85908434005
 20
6376.95492706786
 30
0.0
 11
8648.85908434005
 21
6376.95492706786
 31
0.0
 39
0.0
210
0.0
220
0.0
230
1.0
  0
LINE
  5
4CD
330
4C9
100
AcDbEntity
  8
0
  6
ByLayer
 62
0
440
16777216
 48
1.0
 60
0
370
-2
100
AcDbLine
 10
8623.85908434005
 20
7476.95492706786
 30
0.0
 11
8623.85908434005
 21
7296.28094343894
 31
0.0
 39
0.0
210
0.0
220
0.0
230
1.0
  0
LINE
  5
4CE
330
4C9
100
AcDbEntity
  8
0
  6
ByLayer
 62
0
440
16777216
 48
1.0
 60
0
370
-2
100
AcDbLine
 10
8623.85908434005
 20
6476.95492706786
 30
0.0
 11
8623.85908434005
 21
6657.62891069679
 31
0.0
 39
0.0
210
0.0
220
0.0
230
1.0
  0
SOLID
  5
4CF
330
4C9
100
AcDbEntity
  8
0
  6
ByLayer
 62
0
440
16777216
 48
1.0
 60
0
370
-1
100
AcDbTrace
 10
8607.19241767339
 20
7476.95492706786
 30
0.0
 11
8640.52575100672
 21
7476.95492706786
 31
0.0
 12
8623.85908434005
 22
7576.95492706786
 32
0.0
 13
8623.85908434005
 23
7576.95492706786
 33
0.0
 39
0.0
210
0.0
220
0.0
230
1.0
  0
SOLID
  5
4D0
330
4C9
100
AcDbEntity
  8
0
  6
ByLayer
 62
0
440
16777216
 48
1.0
 60
0
370
-1
100
AcDbTrace
 10
8607.19241767339
 20
6476.95492706786
 30
0.0
 11
8640.52575100672
 21
6476.95492706786
 31
0.0
 12
8623.85908434005
 22
6376.95492706786
 32
0.0
 13
8623.85908434005
 23
6376.95492706786
 33
0.0
 39
0.0
210
0.0
220
0.0
230
1.0
  0
MTEXT
  5
4D1
330
4C9
100
AcDbEntity
  8
0
  6
ByLayer
 62
0
440
16777216
 48
1.0
 60
0
370
-1
100
AcDbMText
 10
8623.85908434005
 20
6976.95492706786
 30
0.0
 40
100.0
 41
0.0
 44
1.0
 46
0.0
 71
5
 72
1
  1
\A1;1200.0000
  7
Standard
 73
1
 11
0.0000000000000001
 21
1.0
 31
0.0
210
0.0
220
0.0
230
1.0
  0
POINT
  5
4D2
330
4C9
100
AcDbEntity
  8
Defpoints
  6
ByLayer
 62
0
440
16777216
 48
1.0
 60
0
370
-1
100
AcDbPoint
 10
8494.45181892888
 20
7576.95492706786
 30
0.0
 39
0.0
210
0.0
220
0.0
230
1.0
 50
0.0
  0
POINT
  5
4D3
330
4C9
100
AcDbEntity
  8
Defpoints
  6
ByLayer
 62
0
440
16777216
 48
1.0
 60
0
370
-1
100
AcDbPoint
 10
8494.45181892888
 20
6376.95492706786
 30
0.0
 39
0.0
210
0.0
220
0.0
230
1.0
 50
0.0
  0
POINT
  5
4D4
330
4C9
100
AcDbEntity
  8
Defpoints
  6
ByLayer
 62
0
440
16777216
 48
1.0
 60
0
370
-1
100
AcDbPoint
 10
8623.85908434005
 20
6376.95492706786
 30
0.0
 39
0.0
210
0.0
220
0.0
230
1.0
 50
0.0
  0
ENDBLK
  5
4D5
330
4C9
100
AcDbEntity
  8
0
100
AcDbBlockEnd
  0
BLOCK
  5
4D7
330
4D6
100
AcDbEntity
  8
0
  6
ByLayer
 62
256
 48
1.0
 60
0
370
-1
100
AcDbBlockBegin
  2
*D18
 70
1
 10
0.0
 20
0.0
 30
0.0
  3
*D18
  4

  0
LINE
  5
4D8
330
4D6
100
AcDbEntity
  8
0
  6
ByLayer
 62
0
440
16777216
 48
1.0
 60
0
370
-2
100
AcDbLine
 10
4342.46996931246
 20
8657.53003068754
 30
0.0
 11
4307.11463025313
 21
8692.88536974687
 31
0.0
 39
0.0
210
0.0
220
0.0
230
1.0
  0
LINE
  5
4D9
330
4D6
100
AcDbEntity
  8
0
  6
ByLayer
 62
0
440
16777216
 48
1.0
 60
0
370
-2
100
AcDbLine
 10
6742.46996931246
 20
11057.5300306875
 30
0.0
 11
6707.11463025313
 21
11092.8853697469
 31
0.0
 39
0.0
210
0.0
220
0.0
230
1.0
  0
LINE
  5
4DA
330
4D6
100
AcDbEntity
  8
0
  6
ByLayer
 62
0
440
16777216
 48
1.0
 60
0
370
-2
100
AcDbLine
 10
4395.50297790145
 20
8745.91837833586
 30
0.0
 11
5295.30482629024
 21
9645.72022672465
 31
0.0
 39
0.0
210
0.0
220
0.0
230
1.0
  0
LINE
  5
4DB
330
4D6
100
AcDbEntity
  8
0
  6
ByLayer
 62
0
440
16777216
 48
1.0
 60
0
370
-2
100
AcDbLine
 10
6654.08162166414
 20
11004.4970220986
 30
0.0
 11
5754.27977327535
 21
10104.6951737098
 31
0.0
 39
0.0
210
0.0
220
0.0
230
1.0
  0
SOLID
  5
4DC
330
4D6
100
AcDbEntity
  8
0
  6
ByLayer
 62
0
440
16777216
 48
1.0
 60
0
370
-1
100
AcDbTrace
 10
4383.71786488167
 20
8757.70349135564
 30
0.0
 11
4407.28809092122
 21
8734.13326531609
 31
0.0
 12
4324.79229978279
 22
8675.20770021721
 32
0.0
 13
4324.79229978279
 23
8675.20770021721
 33
0.0
 39
0.0
210
0.0
220
0.0
230
1.0
  0
SOLID
  5
4DD
330
4D6
100
AcDbEntity
  8
0
  6
ByLayer
 62
0
440
16777216
 48
1.0
 60
0
370
-1
100
AcDbTrace
 10
6642.29650864436
 20
11016.2821351183
 30
0.0
 11
6665.86673468391
 21
10992.7119090788
 31
0.0
 12
6724.79229978279
 22
11075.2077002172
 32
0.0
 13
6724.79229978279
 23
11075.2077002172
 33
0.0
 39
0.0
210
0.0
220
0.0
230
1.0
  0
MTEXT
  5
4DE
330
4D6
100
AcDbEntity
  8
0
  6
ByLayer
 62
0
440
16777216
 48
1.0
 60
0
370
-1
100
AcDbMText
 10
5524.7922997828
 20
9875.20770021721
 30
0.0
 40
100.0
 41
0.0
 44
1.0
 46
0.0
 71
5
 72
1
  1
\A1;3394.1125
  7
Standard
 73
1
 11
0.707106781186548
 21
0.707106781186548
 31
0.0
210
0.0
220
0.0
230
1.0
  0
POINT
  5
4DF
330
4D6
100
AcDbEntity
  8
Defpoints
  6
ByLayer
 62
0
440
16777216
 48
1.0
 60
0
370
-1
100
AcDbPoint
 10
4600.0
 20
8400.0
 30
0.0
 39
0.0
210
0.0
220
0.0
230
1.0
 50
0.0
  0
POINT
  5
4E0
330
4D6
100
AcDbEntity
  8
Defpoints
  6
ByLayer
 62
0
440
16777216
 48
1.0
 60
0
370
-1
100
AcDbPoint
 10
7000.0
 20
10800.0
 30
0.0
 39
0.0
210
0.0
220
0.0
230
1.0
 50
0.0
  0
POINT
  5
4E1
330
4D6
100
AcDbEntity
  8
Defpoints
  6
ByLayer
 62
0
440
16777216
 48
1.0
 60
0
370
-1
100
AcDbPoint
 10
6724.79229978279
 20
11075.2077002172
 30
0.0
 39
0.0
210
0.0
220
0.0
230
1.0
 50
0.0
  0
ENDBLK
  5
4E2
330
4D6
100
AcDbEntity
  8
0
100
AcDbBlockEnd
  0
BLOCK
  5
4E4
330
4E3
100
AcDbEntity
  8
0
  6
ByLayer
 62
256
 48
1.0
 60
0
370
-1
100
AcDbBlockBegin
  2
*D19
 70
1
 10
0.0
 20
0.0
 30
0.0
  3
*D19
  4

  0
LINE
  5
4E5
330
4E3
100
AcDbEntity
  8
0
  6
ByLayer
 62
0
440
16777216
 48
1.0
 60
0
370
-2
100
AcDbLine
 10
7217.44777542825
 20
11017.4477754282
 30
0.0
 11
7252.80311448758
 21
11052.8031144876
 31
0.0
 39
0.0
210
0.0
220
0.0
230
1.0
  0
LINE
  5
4E6
330
4E3
100
AcDbEntity
  8
0
  6
ByLayer
 62
0
440
16777216
 48
1.0
 60
0
370
-2
100
AcDbLine
 10
9617.44777542825
 20
8617.44777542825
 30
0.0
 11
9652.80311448758
 21
8652.80311448758
 31
0.0
 39
0.0
210
0.0
220
0.0
230
1.0
  0
LINE
  5
4E7
330
4E3
100
AcDbEntity
  8
0
  6
ByLayer
 62
0
440
16777216
 48
1.0
 60
0
370
-2
100
AcDbLine
 10
7305.83612307657
 20
10964.4147668393
 30
0.0
 11
8205.63797146535
 21
10064.6129184505
 31
0.0
 39
0.0
210
0.0
220
0.0
230
1.0
  0
LINE
  5
4E8
330
4E3
100
AcDbEntity
  8
0
  6
ByLayer
 62
0
440
16777216
 48
1.0
 60
0
370
-2
100
AcDbLine
 10
9564.41476683926
 20
8705.83612307657
 30
0.0
 11
8664.61291845047
 21
9605.63797146536
 31
0.0
 39
0.0
210
0.0
220
0.0
230
1.0
  0
SOLID
  5
4E9
330
4E3
100
AcDbEntity
  8
0
  6
ByLayer
 62
0
440
16777216
 48
1.0
 60
0
370
-1
100
AcDbTrace
 10
7317.62123609634
 20
10976.199879859
 30
0.0
 11
7294.05101005679
 21
10952.6296538195
 31
0.0
 12
7235.12544495791
 22
11035.1254449579
 32
0.0
 13
7235.12544495791
 23
11035.1254449579
 33
0.0
 39
0.0
210
0.0
220
0.0
230
1.0
  0
SOLID
  5
4EA
330
4E3
100
AcDbEntity
  8
0
  6
ByLayer
 62
0
440
16777216
 48
1.0
 60
0
370
-1
100
AcDbTrace
 10
9576.19987985903
 20
8717.62123609634
 30
0.0
 11
9552.62965381948
 21
8694.05101005679
 31
0.0
 12
9635.12544495791
 22
8635.12544495792
 32
0.0
 13
9635.12544495791
 23
8635.12544495792
 33
0.0
 39
0.0
210
0.0
220
0.0
230
1.0
  0
MTEXT
  5
4EB
330
4E3
100
AcDbEntity
  8
0
  6
ByLayer
 62
0
440
16777216
 48
1.0
 60
0
370
-1
100
AcDbMText
 10
8435.12544495791
 20
9835.12544495791
 30
0.0
 40
100.0
 41
0.0
 44
1.0
 46
0.0
 71
5
 72
1
  1
\A1;3394.1125
  7
Standard
 73
1
 11
0.707106781186548
 21
-0.707106781186548
 31
0.0
210
0.0
220
0.0
230
1.0
  0
POINT
  5
4EC
330
4E3
100
AcDbEntity
  8
Defpoints
  6
ByLayer
 62
0
440
16777216
 48
1.0
 60
0
370
-1
100
AcDbPoint
 10
7000.0
 20
10800.0
 30
0.0
 39
0.0
210
0.0
220
0.0
230
1.0
 50
0.0
  0
POINT
  5
4ED
330
4E3
100
AcDbEntity
  8
Defpoints
  6
ByLayer
 62
0
440
16777216
 48
1.0
 60
0
370
-1
100
AcDbPoint
 10
9400.0
 20
8400.0
 30
0.0
 39
0.0
210
0.0
220
0.0
230
1.0
 50
0.0
  0
POINT
  5
4EE
330
4E3
100
AcDbEntity
  8
Defpoints
  6
ByLayer
 62
0
440
16777216
 48
1.0
 60
0
370
-1
100
AcDbPoint
 10
9635.12544495791
 20
8635.12544495792
 30
0.0
 39
0.0
210
0.0
220
0.0
230
1.0
 50
0.0
  0
ENDBLK
  5
4EF
330
4E3
100
AcDbEntity
  8
0
100
AcDbBlockEnd
  0
BLOCK
  5
4F1
330
4F0
100
AcDbEntity
  8
0
  6
ByLayer
 62
256
 48
1.0
 60
0
370
-1
100
AcDbBlockBegin
  2
*D20
 70
1
 10
0.0
 20
0.0
 30
0.0
  3
*D20
  4

  0
LINE
  5
4F2
330
4F0
100
AcDbEntity
  8
0
  6
ByLayer
 62
0
440
16777216
 48
1.0
 60
0
370
-2
100
AcDbLine
 10
6967.43186586515
 20
7576.95492706786
 30
0.0
 11
7017.43186586515
 21
7576.95492706786
 31
0.0
 39
0.0
210
0.0
220
0.0
230
1.0
  0
LINE
  5
4F3
330
4F0
100
AcDbEntity
  8
0
  6
ByLayer
 62
0
440
16777216
 48
1.0
 60
0
370
-2
100
AcDbLine
 10
6967.43186586515
 20
5459.39033697548
 30
0.0
 11
7017.43186586515
 21
5459.39033697548
 31
0.0
 39
0.0
210
0.0
220
0.0
230
1.0
  0
LINE
  5
4F4
330
4F0
100
AcDbEntity
  8
0
  6
ByLayer
 62
0
440
16777216
 48
1.0
 60
0
370
-2
100
AcDbLine
 10
6992.43186586515
 20
7476.95492706786
 30
0.0
 11
6992.43186586515
 21
6843.19441919766
 31
0.0
 39
0.0
210
0.0
220
0.0
230
1.0
  0
LINE
  5
4F5
330
4F0
100
AcDbEntity
  8
0
  6
ByLayer
 62
0
440
16777216
 48
1.0
 60
0
370
-2
100
AcDbLine
 10
6992.43186586515
 20
5559.39033697548
 30
0.0
 11
6992.43186586515
 21
6193.15084484569
 31
0.0
 39
0.0
210
0.0
220
0.0
230
1.0
  0
SOLID
  5
4F6
330
4F0
100
AcDbEntity
  8
0
  6
ByLayer
 62
0
440
16777216
 48
1.0
 60
0
370
-1
100
AcDbTrace
 10
6975.76519919848
 20
7476.95492706786
 30
0.0
 11
7009.09853253181
 21
7476.95492706786
 31
0.0
 12
6992.43186586515
 22
7576.95492706786
 32
0.0
 13
6992.43186586515
 23
7576.95492706786
 33
0.0
 39
0.0
210
0.0
220
0.0
230
1.0
  0
SOLID
  5
4F7
330
4F0
100
AcDbEntity
  8
0
  6
ByLayer
 62
0
440
16777216
 48
1.0
 60
0
370
-1
100
AcDbTrace
 10
6975.76519919848
 20
5559.39033697548
 30
0.0
 11
7009.09853253181
 21
5559.39033697548
 31
0.0
 12
6992.43186586515
 22
5459.39033697548
 32
0.0
 13
6992.43186586515
 23
5459.39033697548
 33
0.0
 39
0.0
210
0.0
220
0.0
230
1.0
  0
MTEXT
  5
4F8
330
4F0
100
AcDbEntity
  8
0
  6
ByLayer
 62
0
440
16777216
 48
1.0
 60
0
370
-1
100
AcDbMText
 10
6992.43186586515
 20
6518.17263202167
 30
0.0
 40
100.0
 41
0.0
 44
1.0
 46
0.0
 71
5
 72
1
  1
\A1;2117.5646
  7
Standard
 73
1
 11
0.0000000000000001
 21
1.0
 31
0.0
210
0.0
220
0.0
230
1.0
  0
POINT
  5
4F9
330
4F0
100
AcDbEntity
  8
Defpoints
  6
ByLayer
 62
0
440
16777216
 48
1.0
 60
0
370
-1
100
AcDbPoint
 10
6812.79502846857
 20
7576.95492706786
 30
0.0
 39
0.0
210
0.0
220
0.0
230
1.0
 50
0.0
  0
POINT
  5
4FA
330
4F0
100
AcDbEntity
  8
Defpoints
  6
ByLayer
 62
0
440
16777216
 48
1.0
 60
0
370
-1
100
AcDbPoint
 10
6812.79502846857
 20
5459.39033697548
 30
0.0
 39
0.0
210
0.0
220
0.0
230
1.0
 50
0.0
  0
POINT
  5
4FB
330
4F0
100
AcDbEntity
  8
Defpoints
  6
ByLayer
 62
0
440
16777216
 48
1.0
 60
0
370
-1
100
AcDbPoint
 10
6992.43186586515
 20
5459.39033697548
 30
0.0
 39
0.0
210
0.0
220
0.0
230
1.0
 50
0.0
  0
ENDBLK
  5
4FC
330
4F0
100
AcDbEntity
  8
0
100
AcDbBlockEnd
  0
BLOCK
  5
579
330
578
100
AcDbEntity
  8
0
  6
ByLayer
 62
3
 48
1.0
 60
0
370
-1
100
AcDbBlockBegin
  2
*D22
 70
1
 10
0.0
 20
0.0
 30
0.0
  3
*D22
  4

  0
LINE
  5
57B
330
578
100
AcDbEntity
  8
0
  6
ByLayer
 62
0
440
16777216
 48
1.0
 60
0
370
-2
100
AcDbLine
 10
47226.2638698951
 20
20993.358450704
 30
0.0
 11
47176.2638698951
 21
20993.358450704
 31
0.0
 39
0.0
210
0.0
220
0.0
230
1.0
  0
LINE
  5
57C
330
578
100
AcDbEntity
  8
0
  6
ByLayer
 62
0
440
16777216
 48
1.0
 60
0
370
-2
100
AcDbLine
 10
47226.2638698951
 20
18493.358450704
 30
0.0
 11
47176.2638698951
 21
18493.358450704
 31
0.0
 39
0.0
210
0.0
220
0.0
230
1.0
  0
LINE
  5
57D
330
578
100
AcDbEntity
  8
0
  6
ByLayer
 62
0
440
16777216
 48
1.0
 60
0
370
-2
100
AcDbLine
 10
47201.2638698951
 20
20893.358450704
 30
0.0
 11
47201.2638698951
 21
20068.2438122319
 31
0.0
 39
0.0
210
0.0
220
0.0
230
1.0
  0
LINE
  5
57E
330
578
100
AcDbEntity
  8
0
  6
ByLayer
 62
0
440
16777216
 48
1.0
 60
0
370
-2
100
AcDbLine
 10
47201.2638698951
 20
18593.358450704
 30
0.0
 11
47201.2638698951
 21
19418.473089176
 31
0.0
 39
0.0
210
0.0
220
0.0
230
1.0
  0
SOLID
  5
57F
330
578
100
AcDbEntity
  8
0
  6
ByLayer
 62
0
440
16777216
 48
1.0
 60
0
370
-1
100
AcDbTrace
 10
47184.5972032284
 20
20893.358450704
 30
0.0
 11
47217.9305365617
 21
20893.358450704
 31
0.0
 12
47201.2638698951
 22
20993.358450704
 32
0.0
 13
47201.2638698951
 23
20993.358450704
 33
0.0
 39
0.0
210
0.0
220
0.0
230
1.0
  0
SOLID
  5
580
330
578
100
AcDbEntity
  8
0
  6
ByLayer
 62
0
440
16777216
 48
1.0
 60
0
370
-1
100
AcDbTrace
 10
47184.5972032284
 20
18593.358450704
 30
0.0
 11
47217.9305365617
 21
18593.358450704
 31
0.0
 12
47201.2638698951
 22
18493.358450704
 32
0.0
 13
47201.2638698951
 23
18493.358450704
 33
0.0
 39
0.0
210
0.0
220
0.0
230
1.0
  0
MTEXT
  5
581
330
578
100
AcDbEntity
  8
0
  6
ByLayer
 62
0
440
16777216
 48
1.0
 60
0
370
-1
100
AcDbMText
 10
47201.2638698951
 20
19743.358450704
 30
0.0
 40
100.0
 41
0.0
 44
1.0
 46
0.0
 71
5
 72
1
  1
\A1;2500.0000
  7
Standard
 73
1
 11
0.0000000000000001
 21
1.0
 31
0.0
210
0.0
220
0.0
230
1.0
  0
POINT
  5
582
330
578
100
AcDbEntity
  8
Defpoints
  6
ByLayer
 62
0
440
16777216
 48
1.0
 60
0
370
-1
100
AcDbPoint
 10
47348.3644086573
 20
20993.358450704
 30
0.0
 39
0.0
210
0.0
220
0.0
230
1.0
 50
0.0
  0
POINT
  5
583
330
578
100
AcDbEntity
  8
Defpoints
  6
ByLayer
 62
0
440
16777216
 48
1.0
 60
0
370
-1
100
AcDbPoint
 10
47348.3644086573
 20
18493.358450704
 30
0.0
 39
0.0
210
0.0
220
0.0
230
1.0
 50
0.0
  0
POINT
  5
584
330
578
100
AcDbEntity
  8
Defpoints
  6
ByLayer
 62
0
440
16777216
 48
1.0
 60
0
370
-1
100
AcDbPoint
 10
47201.2638698951
 20
18493.358450704
 30
0.0
 39
0.0
210
0.0
220
0.0
230
1.0
 50
0.0
  0
ENDBLK
  5
57A
330
578
100
AcDbEntity
  8
0
100
AcDbBlockEnd
  0
BLOCK
  5
586
330
585
100
AcDbEntity
  8
0
  6
ByLayer
 62
3
 48
1.0
 60
0
370
-1
100
AcDbBlockBegin
  2
*D23
 70
1
 10
0.0
 20
0.0
 30
0.0
  3
*D23
  4

  0
LINE
  5
588
330
585
100
AcDbEntity
  8
0
  6
ByLayer
 62
0
440
16777216
 48
1.0
 60
0
370
-2
100
AcDbLine
 10
47098.3644086573
 20
18051.174276327
 30
0.0
 11
47098.3644086573
 21
18001.174276327
 31
0.0
 39
0.0
210
0.0
220
0.0
230
1.0
  0
LINE
  5
589
330
585
100
AcDbEntity
  8
0
  6
ByLayer
 62
0
440
16777216
 48
1.0
 60
0
370
-2
100
AcDbLine
 10
51098.3644086573
 20
18051.174276327
 30
0.0
 11
51098.3644086573
 21
18001.174276327
 31
0.0
 39
0.0
210
0.0
220
0.0
230
1.0
  0
LINE
  5
58A
330
585
100
AcDbEntity
  8
0
  6
ByLayer
 62
0
440
16777216
 48
1.0
 60
0
370
-2
100
AcDbLine
 10
47198.3644086573
 20
18026.174276327
 30
0.0
 11
48772.3194291212
 21
18026.174276327
 31
0.0
 39
0.0
210
0.0
220
0.0
230
1.0
  0
LINE
  5
58B
330
585
100
AcDbEntity
  8
0
  6
ByLayer
 62
0
440
16777216
 48
1.0
 60
0
370
-2
100
AcDbLine
 10
50998.3644086573
 20
18026.174276327
 30
0.0
 11
49424.4093881935
 21
18026.174276327
 31
0.0
 39
0.0
210
0.0
220
0.0
230
1.0
  0
SOLID
  5
58C
330
585
100
AcDbEntity
  8
0
  6
ByLayer
 62
0
440
16777216
 48
1.0
 60
0
370
-1
100
AcDbTrace
 10
47198.3644086573
 20
18042.8409429937
 30
0.0
 11
47198.3644086573
 21
18009.5076096603
 31
0.0
 12
47098.3644086573
 22
18026.174276327
 32
0.0
 13
47098.3644086573
 23
18026.174276327
 33
0.0
 39
0.0
210
0.0
220
0.0
230
1.0
  0
SOLID
  5
58D
330
585
100
AcDbEntity
  8
0
  6
ByLayer
 62
0
440
16777216
 48
1.0
 60
0
370
-1
100
AcDbTrace
 10
50998.3644086573
 20
18042.8409429937
 30
0.0
 11
50998.3644086573
 21
18009.5076096603
 31
0.0
 12
51098.3644086573
 22
18026.174276327
 32
0.0
 13
51098.3644086573
 23
18026.174276327
 33
0.0
 39
0.0
210
0.0
220
0.0
230
1.0
  0
MTEXT
  5
58E
330
585
100
AcDbEntity
  8
0
  6
ByLayer
 62
0
440
16777216
 48
1.0
 60
0
370
-1
100
AcDbMText
 10
49098.3644086573
 20
18026.174276327
 30
0.0
 40
100.0
 41
0.0
 44
1.0
 46
0.0
 71
5
 72
1
  1
\A1;4000.0000
  7
Standard
 73
1
 11
1.0
 21
0.0
 31
0.0
210
0.0
220
0.0
230
1.0
  0
POINT
  5
58F
330
585
100
AcDbEntity
  8
Defpoints
  6
ByLayer
 62
0
440
16777216
 48
1.0
 60
0
370
-1
100
AcDbPoint
 10
47098.3644086573
 20
18243.358450704
 30
0.0
 39
0.0
210
0.0
220
0.0
230
1.0
 50
0.0
  0
POINT
  5
590
330
585
100
AcDbEntity
  8
Defpoints
  6
ByLayer
 62
0
440
16777216
 48
1.0
 60
0
370
-1
100
AcDbPoint
 10
51098.3644086573
 20
18243.358450704
 30
0.0
 39
0.0
210
0.0
220
0.0
230
1.0
 50
0.0
  0
POINT
  5
591
330
585
100
AcDbEntity
  8
Defpoints
  6
ByLayer
 62
0
440
16777216
 48
1.0
 60
0
370
-1
100
AcDbPoint
 10
51098.3644086573
 20
18026.174276327
 30
0.0
 39
0.0
210
0.0
220
0.0
230
1.0
 50
0.0
  0
ENDBLK
  5
587
330
585
100
AcDbEntity
  8
0
100
AcDbBlockEnd
  0
BLOCK
  5
593
330
592
100
AcDbEntity
  8
0
  6
ByLayer
 62
3
 48
1.0
 60
0
370
-1
100
AcDbBlockBegin
  2
*D24
 70
1
 10
0.0
 20
0.0
 30
0.0
  3
*D24
  4

  0
LINE
  5
595
330
592
100
AcDbEntity
  8
0
  6
ByLayer
 62
0
440
16777216
 48
1.0
 60
0
370
-2
100
AcDbLine
 10
47348.3644086573
 20
18392.9255620885
 30
0.0
 11
47348.3644086573
 21
18342.9255620885
 31
0.0
 39
0.0
210
0.0
220
0.0
230
1.0
  0
LINE
  5
596
330
592
100
AcDbEntity
  8
0
  6
ByLayer
 62
0
440
16777216
 48
1.0
 60
0
370
-2
100
AcDbLine
 10
50848.3644086573
 20
18392.9255620885
 30
0.0
 11
50848.3644086573
 21
18342.9255620885
 31
0.0
 39
0.0
210
0.0
220
0.0
230
1.0
  0
LINE
  5
597
330
592
100
AcDbEntity
  8
0
  6
ByLayer
 62
0
440
16777216
 48
1.0
 60
0
370
-2
100
AcDbLine
 10
47448.3644086573
 20
18367.9255620885
 30
0.0
 11
48774.3658138415
 21
18367.9255620885
 31
0.0
 39
0.0
210
0.0
220
0.0
230
1.0
  0
LINE
  5
598
330
592
100
AcDbEntity
  8
0
  6
ByLayer
 62
0
440
16777216
 48
1.0
 60
0
370
-2
100
AcDbLine
 10
50748.3644086573
 20
18367.9255620885
 30
0.0
 11
49422.3630034731
 21
18367.9255620885
 31
0.0
 39
0.0
210
0.0
220
0.0
230
1.0
  0
SOLID
  5
599
330
592
100
AcDbEntity
  8
0
  6
ByLayer
 62
0
440
16777216
 48
1.0
 60
0
370
-1
100
AcDbTrace
 10
47448.3644086573
 20
18384.5922287552
 30
0.0
 11
47448.3644086573
 21
18351.2588954218
 31
0.0
 12
47348.3644086573
 22
18367.9255620885
 32
0.0
 13
47348.3644086573
 23
18367.9255620885
 33
0.0
 39
0.0
210
0.0
220
0.0
230
1.0
  0
SOLID
  5
59A
330
592
100
AcDbEntity
  8
0
  6
ByLayer
 62
0
440
16777216
 48
1.0
 60
0
370
-1
100
AcDbTrace
 10
50748.3644086573
 20
18384.5922287552
 30
0.0
 11
50748.3644086573
 21
18351.2588954218
 31
0.0
 12
50848.3644086573
 22
18367.9255620885
 32
0.0
 13
50848.3644086573
 23
18367.9255620885
 33
0.0
 39
0.0
210
0.0
220
0.0
230
1.0
  0
MTEXT
  5
59B
330
592
100
AcDbEntity
  8
0
  6
ByLayer
 62
0
440
16777216
 48
1.0
 60
0
370
-1
100
AcDbMText
 10
49098.3644086573
 20
18367.9255620885
 30
0.0
 40
100.0
 41
0.0
 44
1.0
 46
0.0
 71
5
 72
1
  1
\A1;3500.0000
  7
Standard
 73
1
 11
1.0
 21
0.0
 31
0.0
210
0.0
220
0.0
230
1.0
  0
POINT
  5
59C
330
592
100
AcDbEntity
  8
Defpoints
  6
ByLayer
 62
0
440
16777216
 48
1.0
 60
0
370
-1
100
AcDbPoint
 10
47348.3644086573
 20
18493.358450704
 30
0.0
 39
0.0
210
0.0
220
0.0
230
1.0
 50
0.0
  0
POINT
  5
59D
330
592
100
AcDbEntity
  8
Defpoints
  6
ByLayer
 62
0
440
16777216
 48
1.0
 60
0
370
-1
100
AcDbPoint
 10
50848.3644086573
 20
18493.358450704
 30
0.0
 39
0.0
210
0.0
220
0.0
230
1.0
 50
0.0
  0
POINT
  5
59E
330
592
100
AcDbEntity
  8
Defpoints
  6
ByLayer
 62
0
440
16777216
 48
1.0
 60
0
370
-1
100
AcDbPoint
 10
50848.3644086573
 20
18367.9255620885
 30
0.0
 39
0.0
210
0.0
220
0.0
230
1.0
 50
0.0
  0
ENDBLK
  5
594
330
592
100
AcDbEntity
  8
0
100
AcDbBlockEnd
  0
BLOCK
  5
5A0
330
59F
100
AcDbEntity
  8
0
  6
ByLayer
 62
3
 48
1.0
 60
0
370
-1
100
AcDbBlockBegin
  2
*D25
 70
1
 10
0.0
 20
0.0
 30
0.0
  3
*D25
  4

  0
LINE
  5
5A2
330
59F
100
AcDbEntity
  8
0
  6
ByLayer
 62
0
440
16777216
 48
1.0
 60
0
370
-2
100
AcDbLine
 10
51277.4585678036
 20
21243.358450704
 30
0.0
 11
51327.4585678036
 21
21243.358450704
 31
0.0
 39
0.0
210
0.0
220
0.0
230
1.0
  0
LINE
  5
5A3
330
59F
100
AcDbEntity
  8
0
  6
ByLayer
 62
0
440
16777216
 48
1.0
 60
0
370
-2
100
AcDbLine
 10
51277.4585678036
 20
18243.358450704
 30
0.0
 11
51327.4585678036
 21
18243.358450704
 31
0.0
 39
0.0
210
0.0
220
0.0
230
1.0
  0
LINE
  5
5A4
330
59F
100
AcDbEntity
  8
0
  6
ByLayer
 62
0
440
16777216
 48
1.0
 60
0
370
-2
100
AcDbLine
 10
51302.4585678036
 20
21143.358450704
 30
0.0
 11
51302.4585678036
 21
20067.3570455198
 31
0.0
 39
0.0
210
0.0
220
0.0
230
1.0
  0
LINE
  5
5A5
330
59F
100
AcDbEntity
  8
0
  6
ByLayer
 62
0
440
16777216
 48
1.0
 60
0
370
-2
100
AcDbLine
 10
51302.4585678036
 20
18343.358450704
 30
0.0
 11
51302.4585678036
 21
19419.3598558881
 31
0.0
 39
0.0
210
0.0
220
0.0
230
1.0
  0
SOLID
  5
5A6
330
59F
100
AcDbEntity
  8
0
  6
ByLayer
 62
0
440
16777216
 48
1.0
 60
0
370
-1
100
AcDbTrace
 10
51285.791901137
 20
21143.358450704
 30
0.0
 11
51319.1252344703
 21
21143.358450704
 31
0.0
 12
51302.4585678036
 22
21243.358450704
 32
0.0
 13
51302.4585678036
 23
21243.358450704
 33
0.0
 39
0.0
210
0.0
220
0.0
230
1.0
  0
SOLID
  5
5A7
330
59F
100
AcDbEntity
  8
0
  6
ByLayer
 62
0
440
16777216
 48
1.0
 60
0
370
-1
100
AcDbTrace
 10
51285.791901137
 20
18343.358450704
 30
0.0
 11
51319.1252344703
 21
18343.358450704
 31
0.0
 12
51302.4585678036
 22
18243.358450704
 32
0.0
 13
51302.4585678036
 23
18243.358450704
 33
0.0
 39
0.0
210
0.0
220
0.0
230
1.0
  0
MTEXT
  5
5A8
330
59F
100
AcDbEntity
  8
0
  6
ByLayer
 62
0
440
16777216
 48
1.0
 60
0
370
-1
100
AcDbMText
 10
51302.4585678036
 20
19743.358450704
 30
0.0
 40
100.0
 41
0.0
 44
1.0
 46
0.0
 71
5
 72
1
  1
\A1;3000.0000
  7
Standard
 73
1
 11
0.0000000000000001
 21
1.0
 31
0.0
210
0.0
220
0.0
230
1.0
  0
POINT
  5
5A9
330
59F
100
AcDbEntity
  8
Defpoints
  6
ByLayer
 62
0
440
16777216
 48
1.0
 60
0
370
-1
100
AcDbPoint
 10
47098.3644086573
 20
21243.358450704
 30
0.0
 39
0.0
210
0.0
220
0.0
230
1.0
 50
0.0
  0
POINT
  5
5AA
330
59F
100
AcDbEntity
  8
Defpoints
  6
ByLayer
 62
0
440
16777216
 48
1.0
 60
0
370
-1
100
AcDbPoint
 10
47098.3644086573
 20
18243.358450704
 30
0.0
 39
0.0
210
0.0
220
0.0
230
1.0
 50
0.0
  0
POINT
  5
5AB
330
59F
100
AcDbEntity
  8
Defpoints
  6
ByLayer
 62
0
440
16777216
 48
1.0
 60
0
370
-1
100
AcDbPoint
 10
51302.4585678036
 20
18243.358450704
 30
0.0
 39
0.0
210
0.0
220
0.0
230
1.0
 50
0.0
  0
ENDBLK
  5
5A1
330
59F
100
AcDbEntity
  8
0
100
AcDbBlockEnd
  0
BLOCK
  5
5AD
330
5AC
100
AcDbEntity
  8
0
  6
ByLayer
 62
3
 48
1.0
 60
0
370
-1
100
AcDbBlockBegin
  2
*D26
 70
1
 10
0.0
 20
0.0
 30
0.0
  3
*D26
  4

  0
LINE
  5
5AF
330
5AC
100
AcDbEntity
  8
0
  6
ByLayer
 62
0
440
16777216
 48
1.0
 60
0
370
-2
100
AcDbLine
 10
51098.3644086573
 20
21344.3302852569
 30
0.0
 11
51098.3644086573
 21
21394.3302852569
 31
0.0
 39
0.0
210
0.0
220
0.0
230
1.0
  0
LINE
  5
5B0
330
5AC
100
AcDbEntity
  8
0
  6
ByLayer
 62
0
440
16777216
 48
1.0
 60
0
370
-2
100
AcDbLine
 10
47098.3644086573
 20
21344.3302852569
 30
0.0
 11
47098.3644086573
 21
21394.3302852569
 31
0.0
 39
0.0
210
0.0
220
0.0
230
1.0
  0
LINE
  5
5B1
330
5AC
100
AcDbEntity
  8
0
  6
ByLayer
 62
0
440
16777216
 48
1.0
 60
0
370
-2
100
AcDbLine
 10
50998.3644086573
 20
21369.3302852569
 30
0.0
 11
49424.4093881935
 21
21369.3302852569
 31
0.0
 39
0.0
210
0.0
220
0.0
230
1.0
  0
LINE
  5
5B2
330
5AC
100
AcDbEntity
  8
0
  6
ByLayer
 62
0
440
16777216
 48
1.0
 60
0
370
-2
100
AcDbLine
 10
47198.3644086573
 20
21369.3302852569
 30
0.0
 11
48772.3194291212
 21
21369.3302852569
 31
0.0
 39
0.0
210
0.0
220
0.0
230
1.0
  0
SOLID
  5
5B3
330
5AC
100
AcDbEntity
  8
0
  6
ByLayer
 62
0
440
16777216
 48
1.0
 60
0
370
-1
100
AcDbTrace
 10
50998.3644086573
 20
21385.9969519236
 30
0.0
 11
50998.3644086573
 21
21352.6636185902
 31
0.0
 12
51098.3644086573
 22
21369.3302852569
 32
0.0
 13
51098.3644086573
 23
21369.3302852569
 33
0.0
 39
0.0
210
0.0
220
0.0
230
1.0
  0
SOLID
  5
5B4
330
5AC
100
AcDbEntity
  8
0
  6
ByLayer
 62
0
440
16777216
 48
1.0
 60
0
370
-1
100
AcDbTrace
 10
47198.3644086573
 20
21385.9969519236
 30
0.0
 11
47198.3644086573
 21
21352.6636185902
 31
0.0
 12
47098.3644086573
 22
21369.3302852569
 32
0.0
 13
47098.3644086573
 23
21369.3302852569
 33
0.0
 39
0.0
210
0.0
220
0.0
230
1.0
  0
MTEXT
  5
5B5
330
5AC
100
AcDbEntity
  8
0
  6
ByLayer
 62
0
440
16777216
 48
1.0
 60
0
370
-1
100
AcDbMText
 10
49098.3644086573
 20
21369.3302852569
 30
0.0
 40
100.0
 41
0.0
 44
1.0
 46
0.0
 71
5
 72
1
  1
\A1;4000.0000
  7
Standard
 73
1
 11
1.0
 21
0.0
 31
0.0
210
0.0
220
0.0
230
1.0
  0
POINT
  5
5B6
330
5AC
100
AcDbEntity
  8
Defpoints
  6
ByLayer
 62
0
440
16777216
 48
1.0
 60
0
370
-1
100
AcDbPoint
 10
51098.3644086573
 20
21243.358450704
 30
0.0
 39
0.0
210
0.0
220
0.0
230
1.0
 50
0.0
  0
POINT
  5
5B7
330
5AC
100
AcDbEntity
  8
Defpoints
  6
ByLayer
 62
0
440
16777216
 48
1.0
 60
0
370
-1
100
AcDbPoint
 10
47098.3644086573
 20
21243.358450704
 30
0.0
 39
0.0
210
0.0
220
0.0
230
1.0
 50
0.0
  0
POINT
  5
5B8
330
5AC
100
AcDbEntity
  8
Defpoints
  6
ByLayer
 62
0
440
16777216
 48
1.0
 60
0
370
-1
100
AcDbPoint
 10
47098.3644086573
 20
21369.3302852569
 30
0.0
 39
0.0
210
0.0
220
0.0
230
1.0
 50
0.0
  0
ENDBLK
  5
5AE
330
5AC
100
AcDbEntity
  8
0
100
AcDbBlockEnd
  0
BLOCK
  5
5BA
330
5B9
100
AcDbEntity
  8
0
  6
ByLayer
 62
3
 48
1.0
 60
0
370
-1
100
AcDbBlockBegin
  2
*D27
 70
1
 10
0.0
 20
0.0
 30
0.0
  3
*D27
  4

  0
LINE
  5
5BC
330
5B9
100
AcDbEntity
  8
0
  6
ByLayer
 62
0
440
16777216
 48
1.0
 60
0
370
-2
100
AcDbLine
 10
46698.3644086573
 20
17687.5169279137
 30
0.0
 11
46698.3644086573
 21
17637.5169279137
 31
0.0
 39
0.0
210
0.0
220
0.0
230
1.0
  0
LINE
  5
5BD
330
5B9
100
AcDbEntity
  8
0
  6
ByLayer
 62
0
440
16777216
 48
1.0
 60
0
370
-2
100
AcDbLine
 10
51498.3644086573
 20
17687.5169279137
 30
0.0
 11
51498.3644086573
 21
17637.5169279137
 31
0.0
 39
0.0
210
0.0
220
0.0
230
1.0
  0
LINE
  5
5BE
330
5B9
100
AcDbEntity
  8
0
  6
ByLayer
 62
0
440
16777216
 48
1.0
 60
0
370
-2
100
AcDbLine
 10
46798.3644086573
 20
17662.5169279137
 30
0.0
 11
48772.3194291212
 21
17662.5169279137
 31
0.0
 39
0.0
210
0.0
220
0.0
230
1.0
  0
LINE
  5
5BF
330
5B9
100
AcDbEntity
  8
0
  6
ByLayer
 62
0
440
16777216
 48
1.0
 60
0
370
-2
100
AcDbLine
 10
51398.3644086573
 20
17662.5169279137
 30
0.0
 11
49424.4093881935
 21
17662.5169279137
 31
0.0
 39
0.0
210
0.0
220
0.0
230
1.0
  0
SOLID
  5
5C0
330
5B9
100
AcDbEntity
  8
0
  6
ByLayer
 62
0
440
16777216
 48
1.0
 60
0
370
-1
100
AcDbTrace
 10
46798.3644086573
 20
17679.1835945804
 30
0.0
 11
46798.3644086573
 21
17645.8502612471
 31
0.0
 12
46698.3644086573
 22
17662.5169279137
 32
0.0
 13
46698.3644086573
 23
17662.5169279137
 33
0.0
 39
0.0
210
0.0
220
0.0
230
1.0
  0
SOLID
  5
5C1
330
5B9
100
AcDbEntity
  8
0
  6
ByLayer
 62
0
440
16777216
 48
1.0
 60
0
370
-1
100
AcDbTrace
 10
51398.3644086573
 20
17679.1835945804
 30
0.0
 11
51398.3644086573
 21
17645.8502612471
 31
0.0
 12
51498.3644086573
 22
17662.5169279137
 32
0.0
 13
51498.3644086573
 23
17662.5169279137
 33
0.0
 39
0.0
210
0.0
220
0.0
230
1.0
  0
MTEXT
  5
5C2
330
5B9
100
AcDbEntity
  8
0
  6
ByLayer
 62
0
440
16777216
 48
1.0
 60
0
370
-1
100
AcDbMText
 10
49098.3644086573
 20
17662.5169279137
 30
0.0
 40
100.0
 41
0.0
 44
1.0
 46
0.0
 71
5
 72
1
  1
\A1;4800.0000
  7
Standard
 73
1
 11
1.0
 21
0.0
 31
0.0
210
0.0
220
0.0
230
1.0
  0
POINT
  5
5C3
330
5B9
100
AcDbEntity
  8
Defpoints
  6
ByLayer
 62
0
440
16777216
 48
1.0
 60
0
370
-1
100
AcDbPoint
 10
46698.3644086573
 20
21481.2271316491
 30
0.0
 39
0.0
210
0.0
220
0.0
230
1.0
 50
0.0
  0
POINT
  5
5C4
330
5B9
100
AcDbEntity
  8
Defpoints
  6
ByLayer
 62
0
440
16777216
 48
1.0
 60
0
370
-1
100
AcDbPoint
 10
51498.3644086573
 20
21481.2271316491
 30
0.0
 39
0.0
210
0.0
220
0.0
230
1.0
 50
0.0
  0
POINT
  5
5C5
330
5B9
100
AcDbEntity
  8
Defpoints
  6
ByLayer
 62
0
440
16777216
 48
1.0
 60
0
370
-1
100
AcDbPoint
 10
51498.3644086573
 20
17662.5169279137
 30
0.0
 39
0.0
210
0.0
220
0.0
230
1.0
 50
0.0
  0
ENDBLK
  5
5BB
330
5B9
100
AcDbEntity
  8
0
100
AcDbBlockEnd
  0
BLOCK
  5
5C7
330
5C6
100
AcDbEntity
  8
0
  6
ByLayer
 62
3
 48
1.0
 60
0
370
-1
100
AcDbBlockBegin
  2
*D28
 70
1
 10
0.0
 20
0.0
 30
0.0
  3
*D28
  4

  0
LINE
  5
5C9
330
5C6
100
AcDbEntity
  8
0
  6
ByLayer
 62
0
440
16777216
 48
1.0
 60
0
370
-2
100
AcDbLine
 10
46518.3761374689
 20
21643.358450704
 30
0.0
 11
46468.3761374689
 21
21643.358450704
 31
0.0
 39
0.0
210
0.0
220
0.0
230
1.0
  0
LINE
  5
5CA
330
5C6
100
AcDbEntity
  8
0
  6
ByLayer
 62
0
440
16777216
 48
1.0
 60
0
370
-2
100
AcDbLine
 10
46518.3761374689
 20
17843.358450704
 30
0.0
 11
46468.3761374689
 21
17843.358450704
 31
0.0
 39
0.0
210
0.0
220
0.0
230
1.0
  0
LINE
  5
5CB
330
5C6
100
AcDbEntity
  8
0
  6
ByLayer
 62
0
440
16777216
 48
1.0
 60
0
370
-2
100
AcDbLine
 10
46493.3761374689
 20
21543.358450704
 30
0.0
 11
46493.3761374689
 21
20067.3570455198
 31
0.0
 39
0.0
210
0.0
220
0.0
230
1.0
  0
LINE
  5
5CC
330
5C6
100
AcDbEntity
  8
0
  6
ByLayer
 62
0
440
16777216
 48
1.0
 60
0
370
-2
100
AcDbLine
 10
46493.3761374689
 20
17943.358450704
 30
0.0
 11
46493.3761374689
 21
19419.3598558881
 31
0.0
 39
0.0
210
0.0
220
0.0
230
1.0
  0
SOLID
  5
5CD
330
5C6
100
AcDbEntity
  8
0
  6
ByLayer
 62
0
440
16777216
 48
1.0
 60
0
370
-1
100
AcDbTrace
 10
46476.7094708022
 20
21543.358450704
 30
0.0
 11
46510.0428041356
 21
21543.358450704
 31
0.0
 12
46493.3761374689
 22
21643.358450704
 32
0.0
 13
46493.3761374689
 23
21643.358450704
 33
0.0
 39
0.0
210
0.0
220
0.0
230
1.0
  0
SOLID
  5
5CE
330
5C6
100
AcDbEntity
  8
0
  6
ByLayer
 62
0
440
16777216
 48
1.0
 60
0
370
-1
100
AcDbTrace
 10
46476.7094708022
 20
17943.358450704
 30
0.0
 11
46510.0428041356
 21
17943.358450704
 31
0.0
 12
46493.3761374689
 22
17843.358450704
 32
0.0
 13
46493.3761374689
 23
17843.358450704
 33
0.0
 39
0.0
210
0.0
220
0.0
230
1.0
  0
MTEXT
  5
5CF
330
5C6
100
AcDbEntity
  8
0
  6
ByLayer
 62
0
440
16777216
 48
1.0
 60
0
370
-1
100
AcDbMText
 10
46493.3761374689
 20
19743.358450704
 30
0.0
 40
100.0
 41
0.0
 44
1.0
 46
0.0
 71
5
 72
1
  1
\A1;3800.0000
  7
Standard
 73
1
 11
0.0000000000000001
 21
1.0
 31
0.0
210
0.0
220
0.0
230
1.0
  0
POINT
  5
5D0
330
5C6
100
AcDbEntity
  8
Defpoints
  6
ByLayer
 62
0
440
16777216
 48
1.0
 60
0
370
-1
100
AcDbPoint
 10
46698.3644086573
 20
21643.358450704
 30
0.0
 39
0.0
210
0.0
220
0.0
230
1.0
 50
0.0
  0
POINT
  5
5D1
330
5C6
100
AcDbEntity
  8
Defpoints
  6
ByLayer
 62
0
440
16777216
 48
1.0
 60
0
370
-1
100
AcDbPoint
 10
46698.3644086573
 20
17843.358450704
 30
0.0
 39
0.0
210
0.0
220
0.0
230
1.0
 50
0.0
  0
POINT
  5
5D2
330
5C6
100
AcDbEntity
  8
Defpoints
  6
ByLayer
 62
0
440
16777216
 48
1.0
 60
0
370
-1
100
AcDbPoint
 10
46493.3761374689
 20
17843.358450704
 30
0.0
 39
0.0
210
0.0
220
0.0
230
1.0
 50
0.0
  0
ENDBLK
  5
5C8
330
5C6
100
AcDbEntity
  8
0
100
AcDbBlockEnd
  0
BLOCK
  5
5D4
330
5D3
100
AcDbEntity
  8
0
  6
ByLayer
 62
3
 48
1.0
 60
0
370
-1
100
AcDbBlockBegin
  2
*D29
 70
1
 10
0.0
 20
0.0
 30
0.0
  3
*D29
  4

  0
LINE
  5
5D6
330
5D3
100
AcDbEntity
  8
0
  6
ByLayer
 62
0
440
16777216
 48
1.0
 60
0
370
-2
100
AcDbLine
 10
48011.1594371259
 20
18636.7885119631
 30
0.0
 11
48011.1594371259
 21
18586.7885119631
 31
0.0
 39
0.0
210
0.0
220
0.0
230
1.0
  0
LINE
  5
5D7
330
5D3
100
AcDbEntity
  8
0
  6
ByLayer
 62
0
440
16777216
 48
1.0
 60
0
370
-2
100
AcDbLine
 10
48911.1594371259
 20
18636.7885119631
 30
0.0
 11
48911.1594371259
 21
18586.7885119631
 31
0.0
 39
0.0
210
0.0
220
0.0
230
1.0
  0
LINE
  5
5D8
330
5D3
100
AcDbEntity
  8
0
  6
ByLayer
 62
0
440
16777216
 48
1.0
 60
0
370
-2
100
AcDbLine
 10
48111.1594371259
 20
18611.7885119631
 30
0.0
 11
48175.9739391723
 21
18611.7885119631
 31
0.0
 39
0.0
210
0.0
220
0.0
230
1.0
  0
LINE
  5
5D9
330
5D3
100
AcDbEntity
  8
0
  6
ByLayer
 62
0
440
16777216
 48
1.0
 60
0
370
-2
100
AcDbLine
 10
48811.1594371259
 20
18611.7885119631
 30
0.0
 11
48746.3449350795
 21
18611.7885119631
 31
0.0
 39
0.0
210
0.0
220
0.0
230
1.0
  0
SOLID
  5
5DA
330
5D3
100
AcDbEntity
  8
0
  6
ByLayer
 62
0
440
16777216
 48
1.0
 60
0
370
-1
100
AcDbTrace
 10
48111.1594371259
 20
18628.4551786297
 30
0.0
 11
48111.1594371259
 21
18595.1218452964
 31
0.0
 12
48011.1594371259
 22
18611.7885119631
 32
0.0
 13
48011.1594371259
 23
18611.7885119631
 33
0.0
 39
0.0
210
0.0
220
0.0
230
1.0
  0
SOLID
  5
5DB
330
5D3
100
AcDbEntity
  8
0
  6
ByLayer
 62
0
440
16777216
 48
1.0
 60
0
370
-1
100
AcDbTrace
 10
48811.1594371259
 20
18628.4551786297
 30
0.0
 11
48811.1594371259
 21
18595.1218452964
 31
0.0
 12
48911.1594371259
 22
18611.7885119631
 32
0.0
 13
48911.1594371259
 23
18611.7885119631
 33
0.0
 39
0.0
210
0.0
220
0.0
230
1.0
  0
MTEXT
  5
5DC
330
5D3
100
AcDbEntity
  8
0
  6
ByLayer
 62
0
440
16777216
 48
1.0
 60
0
370
-1
100
AcDbMText
 10
48461.1594371259
 20
18611.7885119631
 30
0.0
 40
100.0
 41
0.0
 44
1.0
 46
0.0
 71
5
 72
1
  1
\A1;900.0000
  7
Standard
 73
1
 11
1.0
 21
0.0
 31
0.0
210
0.0
220
0.0
230
1.0
  0
POINT
  5
5DD
330
5D3
100
AcDbEntity
  8
Defpoints
  6
ByLayer
 62
0
440
16777216
 48
1.0
 60
0
370
-1
100
AcDbPoint
 10
48011.1594371259
 20
18702.7487876794
 30
0.0
 39
0.0
210
0.0
220
0.0
230
1.0
 50
0.0
  0
POINT
  5
5DE
330
5D3
100
AcDbEntity
  8
Defpoints
  6
ByLayer
 62
0
440
16777216
 48
1.0
 60
0
370
-1
100
AcDbPoint
 10
48911.1594371259
 20
18702.7487876794
 30
0.0
 39
0.0
210
0.0
220
0.0
230
1.0
 50
0.0
  0
POINT
  5
5DF
330
5D3
100
AcDbEntity
  8
Defpoints
  6
ByLayer
 62
0
440
16777216
 48
1.0
 60
0
370
-1
100
AcDbPoint
 10
48911.1594371259
 20
18611.7885119631
 30
0.0
 39
0.0
210
0.0
220
0.0
230
1.0
 50
0.0
  0
ENDBLK
  5
5D5
330
5D3
100
AcDbEntity
  8
0
100
AcDbBlockEnd
  0
BLOCK
  5
5E1
330
5E0
100
AcDbEntity
  8
0
  6
ByLayer
 62
3
 48
1.0
 60
0
370
-1
100
AcDbBlockBegin
  2
*D30
 70
1
 10
0.0
 20
0.0
 30
0.0
  3
*D30
  4

  0
LINE
  5
5E3
330
5E0
100
AcDbEntity
  8
0
  6
ByLayer
 62
0
440
16777216
 48
1.0
 60
0
370
-2
100
AcDbLine
 10
49692.8162275862
 20
19501.9816724238
 30
0.0
 11
49692.8162275862
 21
19451.9816724238
 31
0.0
 39
0.0
210
0.0
220
0.0
230
1.0
  0
LINE
  5
5E4
330
5E0
100
AcDbEntity
  8
0
  6
ByLayer
 62
0
440
16777216
 48
1.0
 60
0
370
-2
100
AcDbLine
 10
50592.8162275862
 20
19501.9816724238
 30
0.0
 11
50592.8162275862
 21
19451.9816724238
 31
0.0
 39
0.0
210
0.0
220
0.0
230
1.0
  0
LINE
  5
5E5
330
5E0
100
AcDbEntity
  8
0
  6
ByLayer
 62
0
440
16777216
 48
1.0
 60
0
370
-2
100
AcDbLine
 10
49792.8162275862
 20
19476.9816724238
 30
0.0
 11
49857.6307296326
 21
19476.9816724238
 31
0.0
 39
0.0
210
0.0
220
0.0
230
1.0
  0
LINE
  5
5E6
330
5E0
100
AcDbEntity
  8
0
  6
ByLayer
 62
0
440
16777216
 48
1.0
 60
0
370
-2
100
AcDbLine
 10
50492.8162275862
 20
19476.9816724238
 30
0.0
 11
50428.0017255398
 21
19476.9816724238
 31
0.0
 39
0.0
210
0.0
220
0.0
230
1.0
  0
SOLID
  5
5E7
330
5E0
100
AcDbEntity
  8
0
  6
ByLayer
 62
0
440
16777216
 48
1.0
 60
0
370
-1
100
AcDbTrace
 10
49792.8162275862
 20
19493.6483390905
 30
0.0
 11
49792.8162275862
 21
19460.3150057571
 31
0.0
 12
49692.8162275862
 22
19476.9816724238
 32
0.0
 13
49692.8162275862
 23
19476.9816724238
 33
0.0
 39
0.0
210
0.0
220
0.0
230
1.0
  0
SOLID
  5
5E8
330
5E0
100
AcDbEntity
  8
0
  6
ByLayer
 62
0
440
16777216
 48
1.0
 60
0
370
-1
100
AcDbTrace
 10
50492.8162275862
 20
19493.6483390905
 30
0.0
 11
50492.8162275862
 21
19460.3150057571
 31
0.0
 12
50592.8162275862
 22
19476.9816724238
 32
0.0
 13
50592.8162275862
 23
19476.9816724238
 33
0.0
 39
0.0
210
0.0
220
0.0
230
1.0
  0
MTEXT
  5
5E9
330
5E0
100
AcDbEntity
  8
0
  6
ByLayer
 62
0
440
16777216
 48
1.0
 60
0
370
-1
100
AcDbMText
 10
50142.8162275862
 20
19476.9816724238
 30
0.0
 40
100.0
 41
0.0
 44
1.0
 46
0.0
 71
5
 72
1
  1
\A1;900.0000
  7
Standard
 73
1
 11
1.0
 21
0.0
 31
0.0
210
0.0
220
0.0
230
1.0
  0
POINT
  5
5EA
330
5E0
100
AcDbEntity
  8
Defpoints
  6
ByLayer
 62
0
440
16777216
 48
1.0
 60
0
370
-1
100
AcDbPoint
 10
49692.8162275862
 20
19620.3133777718
 30
0.0
 39
0.0
210
0.0
220
0.0
230
1.0
 50
0.0
  0
POINT
  5
5EB
330
5E0
100
AcDbEntity
  8
Defpoints
  6
ByLayer
 62
0
440
16777216
 48
1.0
 60
0
370
-1
100
AcDbPoint
 10
50592.8162275862
 20
19620.3133777718
 30
0.0
 39
0.0
210
0.0
220
0.0
230
1.0
 50
0.0
  0
POINT
  5
5EC
330
5E0
100
AcDbEntity
  8
Defpoints
  6
ByLayer
 62
0
440
16777216
 48
1.0
 60
0
370
-1
100
AcDbPoint
 10
50592.8162275862
 20
19476.9816724238
 30
0.0
 39
0.0
210
0.0
220
0.0
230
1.0
 50
0.0
  0
ENDBLK
  5
5E2
330
5E0
100
AcDbEntity
  8
0
100
AcDbBlockEnd
  0
BLOCK
  5
5EE
330
5ED
100
AcDbEntity
  8
0
  6
ByLayer
 62
3
 48
1.0
 60
0
370
-1
100
AcDbBlockBegin
  2
*D31
 70
1
 10
0.0
 20
0.0
 30
0.0
  3
*D31
  4

  0
LINE
  5
5F0
330
5ED
100
AcDbEntity
  8
0
  6
ByLayer
 62
0
440
16777216
 48
1.0
 60
0
370
-2
100
AcDbLine
 10
50697.2234929974
 20
20820.3133777718
 30
0.0
 11
50747.2234929974
 21
20820.3133777718
 31
0.0
 39
0.0
210
0.0
220
0.0
230
1.0
  0
LINE
  5
5F1
330
5ED
100
AcDbEntity
  8
0
  6
ByLayer
 62
0
440
16777216
 48
1.0
 60
0
370
-2
100
AcDbLine
 10
50697.2234929974
 20
19620.3133777718
 30
0.0
 11
50747.2234929974
 21
19620.3133777718
 31
0.0
 39
0.0
210
0.0
220
0.0
230
1.0
  0
LINE
  5
5F2
330
5ED
100
AcDbEntity
  8
0
  6
ByLayer
 62
0
440
16777216
 48
1.0
 60
0
370
-2
100
AcDbLine
 10
50722.2234929974
 20
20720.3133777718
 30
0.0
 11
50722.2234929974
 21
20539.6393941429
 31
0.0
 39
0.0
210
0.0
220
0.0
230
1.0
  0
LINE
  5
5F3
330
5ED
100
AcDbEntity
  8
0
  6
ByLayer
 62
0
440
16777216
 48
1.0
 60
0
370
-2
100
AcDbLine
 10
50722.2234929974
 20
19720.3133777718
 30
0.0
 11
50722.2234929974
 21
19900.9873614008
 31
0.0
 39
0.0
210
0.0
220
0.0
230
1.0
  0
SOLID
  5
5F4
330
5ED
100
AcDbEntity
  8
0
  6
ByLayer
 62
0
440
16777216
 48
1.0
 60
0
370
-1
100
AcDbTrace
 10
50705.5568263307
 20
20720.3133777718
 30
0.0
 11
50738.8901596641
 21
20720.3133777718
 31
0.0
 12
50722.2234929974
 22
20820.3133777718
 32
0.0
 13
50722.2234929974
 23
20820.3133777718
 33
0.0
 39
0.0
210
0.0
220
0.0
230
1.0
  0
SOLID
  5
5F5
330
5ED
100
AcDbEntity
  8
0
  6
ByLayer
 62
0
440
16777216
 48
1.0
 60
0
370
-1
100
AcDbTrace
 10
50705.5568263307
 20
19720.3133777718
 30
0.0
 11
50738.8901596641
 21
19720.3133777718
 31
0.0
 12
50722.2234929974
 22
19620.3133777718
 32
0.0
 13
50722.2234929974
 23
19620.3133777718
 33
0.0
 39
0.0
210
0.0
220
0.0
230
1.0
  0
MTEXT
  5
5F6
330
5ED
100
AcDbEntity
  8
0
  6
ByLayer
 62
0
440
16777216
 48
1.0
 60
0
370
-1
100
AcDbMText
 10
50722.2234929974
 20
20220.3133777718
 30
0.0
 40
100.0
 41
0.0
 44
1.0
 46
0.0
 71
5
 72
1
  1
\A1;1200.0000
  7
Standard
 73
1
 11
0.0000000000000001
 21
1.0
 31
0.0
210
0.0
220
0.0
230
1.0
  0
POINT
  5
5F7
330
5ED
100
AcDbEntity
  8
Defpoints
  6
ByLayer
 62
0
440
16777216
 48
1.0
 60
0
370
-1
100
AcDbPoint
 10
50592.8162275862
 20
20820.3133777718
 30
0.0
 39
0.0
210
0.0
220
0.0
230
1.0
 50
0.0
  0
POINT
  5
5F8
330
5ED
100
AcDbEntity
  8
Defpoints
  6
ByLayer
 62
0
440
16777216
 48
1.0
 60
0
370
-1
100
AcDbPoint
 10
50592.8162275862
 20
19620.3133777718
 30
0.0
 39
0.0
210
0.0
220
0.0
230
1.0
 50
0.0
  0
POINT
  5
5F9
330
5ED
100
AcDbEntity
  8
Defpoints
  6
ByLayer
 62
0
440
16777216
 48
1.0
 60
0
370
-1
100
AcDbPoint
 10
50722.2234929974
 20
19620.3133777718
 30
0.0
 39
0.0
210
0.0
220
0.0
230
1.0
 50
0.0
  0
ENDBLK
  5
5EF
330
5ED
100
AcDbEntity
  8
0
100
AcDbBlockEnd
  0
BLOCK
  5
5FB
330
5FA
100
AcDbEntity
  8
0
  6
ByLayer
 62
3
 48
1.0
 60
0
370
-1
100
AcDbBlockBegin
  2
*D32
 70
1
 10
0.0
 20
0.0
 30
0.0
  3
*D32
  4

  0
LINE
  5
5FD
330
5FA
100
AcDbEntity
  8
0
  6
ByLayer
 62
0
440
16777216
 48
1.0
 60
0
370
-2
100
AcDbLine
 10
46440.8343779698
 20
21900.8884813915
 30
0.0
 11
46405.4790389104
 21
21936.2438204508
 31
0.0
 39
0.0
210
0.0
220
0.0
230
1.0
  0
LINE
  5
5FE
330
5FA
100
AcDbEntity
  8
0
  6
ByLayer
 62
0
440
16777216
 48
1.0
 60
0
370
-2
100
AcDbLine
 10
48840.8343779698
 20
24300.8884813915
 30
0.0
 11
48805.4790389104
 21
24336.2438204508
 31
0.0
 39
0.0
210
0.0
220
0.0
230
1.0
  0
LINE
  5
5FF
330
5FA
100
AcDbEntity
  8
0
  6
ByLayer
 62
0
440
16777216
 48
1.0
 60
0
370
-2
100
AcDbLine
 10
46493.8673865588
 20
21989.2768290398
 30
0.0
 11
47393.6692349475
 21
22889.0786774286
 31
0.0
 39
0.0
210
0.0
220
0.0
230
1.0
  0
LINE
  5
600
330
5FA
100
AcDbEntity
  8
0
  6
ByLayer
 62
0
440
16777216
 48
1.0
 60
0
370
-2
100
AcDbLine
 10
48752.4460303215
 20
24247.8554728025
 30
0.0
 11
47852.6441819327
 21
23348.0536244137
 31
0.0
 39
0.0
210
0.0
220
0.0
230
1.0
  0
SOLID
  5
601
330
5FA
100
AcDbEntity
  8
0
  6
ByLayer
 62
0
440
16777216
 48
1.0
 60
0
370
-1
100
AcDbTrace
 10
46482.082273539
 20
22001.0619420596
 30
0.0
 11
46505.6524995785
 21
21977.49171602
 31
0.0
 12
46423.1567084401
 22
21918.5661509212
 32
0.0
 13
46423.1567084401
 23
21918.5661509212
 33
0.0
 39
0.0
210
0.0
220
0.0
230
1.0
  0
SOLID
  5
602
330
5FA
100
AcDbEntity
  8
0
  6
ByLayer
 62
0
440
16777216
 48
1.0
 60
0
370
-1
100
AcDbTrace
 10
48740.6609173017
 20
24259.6405858223
 30
0.0
 11
48764.2311433412
 21
24236.0703597827
 31
0.0
 12
48823.1567084401
 22
24318.5661509212
 32
0.0
 13
48823.1567084401
 23
24318.5661509212
 33
0.0
 39
0.0
210
0.0
220
0.0
230
1.0
  0
MTEXT
  5
603
330
5FA
100
AcDbEntity
  8
0
  6
ByLayer
 62
0
440
16777216
 48
1.0
 60
0
370
-1
100
AcDbMText
 10
47623.1567084401
 20
23118.5661509212
 30
0.0
 40
100.0
 41
0.0
 44
1.0
 46
0.0
 71
5
 72
1
  1
\A1;3394.1125
  7
Standard
 73
1
 11
0.707106781186548
 21
0.707106781186548
 31
0.0
210
0.0
220
0.0
230
1.0
  0
POINT
  5
604
330
5FA
100
AcDbEntity
  8
Defpoints
  6
ByLayer
 62
0
440
16777216
 48
1.0
 60
0
370
-1
100
AcDbPoint
 10
46698.3644086573
 20
21643.358450704
 30
0.0
 39
0.0
210
0.0
220
0.0
230
1.0
 50
0.0
  0
POINT
  5
605
330
5FA
100
AcDbEntity
  8
Defpoints
  6
ByLayer
 62
0
440
16777216
 48
1.0
 60
0
370
-1
100
AcDbPoint
 10
49098.3644086573
 20
24043.358450704
 30
0.0
 39
0.0
210
0.0
220
0.0
230
1.0
 50
0.0
  0
POINT
  5
606
330
5FA
100
AcDbEntity
  8
Defpoints
  6
ByLayer
 62
0
440
16777216
 48
1.0
 60
0
370
-1
100
AcDbPoint
 10
48823.1567084401
 20
24318.5661509212
 30
0.0
 39
0.0
210
0.0
220
0.0
230
1.0
 50
0.0
  0
ENDBLK
  5
5FC
330
5FA
100
AcDbEntity
  8
0
100
AcDbBlockEnd
  0
BLOCK
  5
608
330
607
100
AcDbEntity
  8
0
  6
ByLayer
 62
3
 48
1.0
 60
0
370
-1
100
AcDbBlockBegin
  2
*D33
 70
1
 10
0.0
 20
0.0
 30
0.0
  3
*D33
  4

  0
LINE
  5
60A
330
607
100
AcDbEntity
  8
0
  6
ByLayer
 62
0
440
16777216
 48
1.0
 60
0
370
-2
100
AcDbLine
 10
49315.8121840856
 20
24260.8062261322
 30
0.0
 11
49351.1675231449
 21
24296.1615651915
 31
0.0
 39
0.0
210
0.0
220
0.0
230
1.0
  0
LINE
  5
60B
330
607
100
AcDbEntity
  8
0
  6
ByLayer
 62
0
440
16777216
 48
1.0
 60
0
370
-2
100
AcDbLine
 10
51715.8121840856
 20
21860.8062261322
 30
0.0
 11
51751.1675231449
 21
21896.1615651915
 31
0.0
 39
0.0
210
0.0
220
0.0
230
1.0
  0
LINE
  5
60C
330
607
100
AcDbEntity
  8
0
  6
ByLayer
 62
0
440
16777216
 48
1.0
 60
0
370
-2
100
AcDbLine
 10
49404.2005317339
 20
24207.7732175432
 30
0.0
 11
50304.0023801227
 21
23307.9713691544
 31
0.0
 39
0.0
210
0.0
220
0.0
230
1.0
  0
LINE
  5
60D
330
607
100
AcDbEntity
  8
0
  6
ByLayer
 62
0
440
16777216
 48
1.0
 60
0
370
-2
100
AcDbLine
 10
51662.7791754966
 20
21949.1945737805
 30
0.0
 11
50762.9773271078
 21
22848.9964221693
 31
0.0
 39
0.0
210
0.0
220
0.0
230
1.0
  0
SOLID
  5
60E
330
607
100
AcDbEntity
  8
0
  6
ByLayer
 62
0
440
16777216
 48
1.0
 60
0
370
-1
100
AcDbTrace
 10
49415.9856447537
 20
24219.558330563
 30
0.0
 11
49392.4154187141
 21
24195.9881045235
 31
0.0
 12
49333.4898536152
 22
24278.4838956619
 32
0.0
 13
49333.4898536152
 23
24278.4838956619
 33
0.0
 39
0.0
210
0.0
220
0.0
230
1.0
  0
SOLID
  5
60F
330
607
100
AcDbEntity
  8
0
  6
ByLayer
 62
0
440
16777216
 48
1.0
 60
0
370
-1
100
AcDbTrace
 10
51674.5642885163
 20
21960.9796868003
 30
0.0
 11
51650.9940624768
 21
21937.4094607608
 31
0.0
 12
51733.4898536152
 22
21878.4838956619
 32
0.0
 13
51733.4898536152
 23
21878.4838956619
 33
0.0
 39
0.0
210
0.0
220
0.0
230
1.0
  0
MTEXT
  5
610
330
607
100
AcDbEntity
  8
0
  6
ByLayer
 62
0
440
16777216
 48
1.0
 60
0
370
-1
100
AcDbMText
 10
50533.4898536152
 20
23078.4838956619
 30
0.0
 40
100.0
 41
0.0
 44
1.0
 46
0.0
 71
5
 72
1
  1
\A1;3394.1125
  7
Standard
 73
1
 11
0.707106781186548
 21
-0.707106781186548
 31
0.0
210
0.0
220
0.0
230
1.0
  0
POINT
  5
611
330
607
100
AcDbEntity
  8
Defpoints
  6
ByLayer
 62
0
440
16777216
 48
1.0
 60
0
370
-1
100
AcDbPoint
 10
49098.3644086573
 20
24043.358450704
 30
0.0
 39
0.0
210
0.0
220
0.0
230
1.0
 50
0.0
  0
POINT
  5
612
330
607
100
AcDbEntity
  8
Defpoints
  6
ByLayer
 62
0
440
16777216
 48
1.0
 60
0
370
-1
100
AcDbPoint
 10
51498.3644086573
 20
21643.358450704
 30
0.0
 39
0.0
210
0.0
220
0.0
230
1.0
 50
0.0
  0
POINT
  5
613
330
607
100
AcDbEntity
  8
Defpoints
  6
ByLayer
 62
0
440
16777216
 48
1.0
 60
0
370
-1
100
AcDbPoint
 10
51733.4898536152
 20
21878.4838956619
 30
0.0
 39
0.0
210
0.0
220
0.0
230
1.0
 50
0.0
  0
ENDBLK
  5
609
330
607
100
AcDbEntity
  8
0
100
AcDbBlockEnd
  0
BLOCK
  5
615
330
614
100
AcDbEntity
  8
0
  6
ByLayer
 62
3
 48
1.0
 60
0
370
-1
100
AcDbBlockBegin
  2
*D34
 70
1
 10
0.0
 20
0.0
 30
0.0
  3
*D34
  4

  0
LINE
  5
617
330
614
100
AcDbEntity
  8
0
  6
ByLayer
 62
0
440
16777216
 48
1.0
 60
0
370
-2
100
AcDbLine
 10
49065.7962745225
 20
20820.3133777718
 30
0.0
 11
49115.7962745225
 21
20820.3133777718
 31
0.0
 39
0.0
210
0.0
220
0.0
230
1.0
  0
LINE
  5
618
330
614
100
AcDbEntity
  8
0
  6
ByLayer
 62
0
440
16777216
 48
1.0
 60
0
370
-2
100
AcDbLine
 10
49065.7962745225
 20
18702.7487876795
 30
0.0
 11
49115.7962745225
 21
18702.7487876795
 31
0.0
 39
0.0
210
0.0
220
0.0
230
1.0
  0
LINE
  5
619
330
614
100
AcDbEntity
  8
0
  6
ByLayer
 62
0
440
16777216
 48
1.0
 60
0
370
-2
100
AcDbLine
 10
49090.7962745225
 20
20720.3133777718
 30
0.0
 11
49090.7962745225
 21
20086.5528699016
 31
0.0
 39
0.0
210
0.0
220
0.0
230
1.0
  0
LINE
  5
61A
330
614
100
AcDbEntity
  8
0
  6
ByLayer
 62
0
440
16777216
 48
1.0
 60
0
370
-2
100
AcDbLine
 10
49090.7962745225
 20
18802.7487876795
 30
0.0
 11
49090.7962745225
 21
19436.5092955497
 31
0.0
 39
0.0
210
0.0
220
0.0
230
1.0
  0
SOLID
  5
61B
330
614
100
AcDbEntity
  8
0
  6
ByLayer
 62
0
440
16777216
 48
1.0
 60
0
370
-1
100
AcDbTrace
 10
49074.1296078558
 20
20720.3133777718
 30
0.0
 11
49107.4629411891
 21
20720.3133777718
 31
0.0
 12
49090.7962745225
 22
20820.3133777718
 32
0.0
 13
49090.7962745225
 23
20820.3133777718
 33
0.0
 39
0.0
210
0.0
220
0.0
230
1.0
  0
SOLID
  5
61C
330
614
100
AcDbEntity
  8
0
  6
ByLayer
 62
0
440
16777216
 48
1.0
 60
0
370
-1
100
AcDbTrace
 10
49074.1296078558
 20
18802.7487876795
 30
0.0
 11
49107.4629411891
 21
18802.7487876795
 31
0.0
 12
49090.7962745225
 22
18702.7487876795
 32
0.0
 13
49090.7962745225
 23
18702.7487876795
 33
0.0
 39
0.0
210
0.0
220
0.0
230
1.0
  0
MTEXT
  5
61D
330
614
100
AcDbEntity
  8
0
  6
ByLayer
 62
0
440
16777216
 48
1.0
 60
0
370
-1
100
AcDbMText
 10
49090.7962745225
 20
19761.5310827256
 30
0.0
 40
100.0
 41
0.0
 44
1.0
 46
0.0
 71
5
 72
1
  1
\A1;2117.5646
  7
Standard
 73
1
 11
0.0000000000000001
 21
1.0
 31
0.0
210
0.0
220
0.0
230
1.0
  0
POINT
  5
61E
330
614
100
AcDbEntity
  8
Defpoints
  6
ByLayer
 62
0
440
16777216
 48
1.0
 60
0
370
-1
100
AcDbPoint
 10
48911.1594371259
 20
20820.3133777718
 30
0.0
 39
0.0
210
0.0
220
0.0
230
1.0
 50
0.0
  0
POINT
  5
61F
330
614
100
AcDbEntity
  8
Defpoints
  6
ByLayer
 62
0
440
16777216
 48
1.0
 60
0
370
-1
100
AcDbPoint
 10
48911.1594371259
 20
18702.7487876795
 30
0.0
 39
0.0
210
0.0
220
0.0
230
1.0
 50
0.0
  0
POINT
  5
620
330
614
100
AcDbEntity
  8
Defpoints
  6
ByLayer
 62
0
440
16777216
 48
1.0
 60
0
370
-1
100
AcDbPoint
 10
49090.7962745225
 20
18702.7487876795
 30
0.0
 39
0.0
210
0.0
220
0.0
230
1.0
 50
0.0
  0
ENDBLK
  5
616
330
614
100
AcDbEntity
  8
0
100
AcDbBlockEnd
  0
BLOCK
  5
20
330
1F
100
AcDbEntity
  8
0
  6
ByLayer
 62
256
 48
1.0
 60
0
 67
0
370
-1
100
AcDbBlockBegin
  2
*Model_Space
 70
0
 10
0.0
 20
0.0
 30
0.0
  3
*Model_Space
  4

  0
ENDBLK
  5
21
330
1F
100
AcDbEntity
  8
0
100
AcDbBlockEnd
  0
BLOCK
  5
5A
330
58
100
AcDbEntity
  8
0
  6
ByLayer
 62
256
 48
1.0
 60
0
 67
1
370
-1
100
AcDbBlockBegin
  2
*Paper_Space
 70
0
 10
0.0
 20
0.0
 30
0.0
  3
*Paper_Space
  4

  0
ENDBLK
  5
5B
330
58
100
AcDbEntity
  8
0
100
AcDbBlockEnd
  0
ENDSEC
  0
SECTION
  2
ENTITIES
  0
LINE
  5
41A
330
1F
100
AcDbEntity
  8
CLADDING_22X2120
  6
ByLayer
 62
256
 48
1.0
 60
0
 67
0
370
-1
100
AcDbLine
 10
8651.66070673785
 20
7425.2815920224
 30
0.0
 11
8651.66070673785
 21
4425.2815920224
 31
0.0
 39
0.0
210
0.0
220
0.0
230
1.0
  0
LINE
  5
41B
330
1F
100
AcDbEntity
  8
CLADDING_22X2120
  6
ByLayer
 62
256
 48
1.0
 60
0
 67
0
370
-1
100
AcDbLine
 10
18651.6607067378
 20
7425.2815920224
 30
0.0
 11
18651.6607067378
 21
4425.2815920224
 31
0.0
 39
0.0
210
0.0
220
0.0
230
1.0
  0
LINE
  5
41C
330
1F
100
AcDbEntity
  8
CLADDING_22X2120
  6
ByLayer
 62
256
 48
1.0
 60
0
 67
0
370
-1
100
AcDbLine
 10
25301.9109792784
 20
7425.2815920224
 30
0.0
 11
25301.9109792784
 21
4425.2815920224
 31
0.0
 39
0.0
210
0.0
220
0.0
230
1.0
  0
LINE
  5
41D
330
1F
100
AcDbEntity
  8
CLADDING_22X2120
  6
ByLayer
 62
256
 48
1.0
 60
0
 67
0
370
-1
100
AcDbLine
 10
30301.9109792784
 20
4425.2815920224
 30
0.0
 11
30301.9109792784
 21
7425.2815920224
 31
0.0
 39
0.0
210
0.0
220
0.0
230
1.0
  0
LINE
  5
41E
330
1F
100
AcDbEntity
  8
JOIST_45X195
  6
ByLayer
 62
256
 48
1.0
 60
0
 67
0
370
-1
100
AcDbLine
 10
18651.6607067378
 20
4425.2815920224
 30
0.0
 11
8651.66070673785
 21
4425.2815920224
 31
0.0
 39
0.0
210
0.0
220
0.0
230
1.0
  0
LINE
  5
41F
330
1F
100
AcDbEntity
  8
ROOF_COVER
  6
ByLayer
 62
256
 48
1.0
 60
0
 67
0
370
-1
100
AcDbLine
 10
18651.6607067378
 20
7425.2815920224
 30
0.0
 11
8651.66070673785
 21
7425.2815920224
 31
0.0
 39
0.0
210
0.0
220
0.0
230
1.0
  0
LINE
  5
420
330
1F
100
AcDbEntity
  8
ROOF_COVER
  6
ByLayer
 62
256
 48
1.0
 60
0
 67
0
370
-1
100
AcDbLine
 10
18651.6607067378
 20
8925.2815920224
 30
0.0
 11
8651.66070673785
 21
8925.2815920224
 31
0.0
 39
0.0
210
0.0
220
0.0
230
1.0
  0
LINE
  5
421
330
1F
100
AcDbEntity
  8
JOIST_45X195
  6
ByLayer
 62
256
 48
1.0
 60
0
 67
0
370
-1
100
AcDbLine
 10
25301.9109792784
 20
4425.2815920224
 30
0.0
 11
30301.9109792784
 21
4425.2815920224
 31
0.0
 39
0.0
210
0.0
220
0.0
230
1.0
  0
LINE
  5
422
330
1F
100
AcDbEntity
  8
BEAM_90X225
  6
ByLayer
 62
256
 48
1.0
 60
0
 67
0
370
-1
100
AcDbLine
 10
25301.9109792784
 20
7425.2815920224
 30
0.0
 11
30301.9109792784
 21
7425.2815920224
 31
0.0
 39
0.0
210
0.0
220
0.0
230
1.0
  0
LINE
  5
424
330
1F
100
AcDbEntity
  8
RAFTER_45X145
  6
ByLayer
 62
256
 48
1.0
 60
0
 67
0
370
-1
100
AcDbLine
 10
25301.9109792784
 20
7425.2815920224
 30
0.0
 11
27801.9109792784
 21
8925.2815920224
 31
0.0
 39
0.0
210
0.0
220
0.0
230
1.0
  0
LINE
  5
425
330
1F
100
AcDbEntity
  8
RAFTER_45X145
  6
ByLayer
 62
256
 48
1.0
 60
0
 67
0
370
-1
100
AcDbLine
 10
27801.9109792784
 20
8925.2815920224
 30
0.0
 11
30301.9109792784
 21
7425.2815920224
 31
0.0
 39
0.0
210
0.0
220
0.0
230
1.0
  0
LINE
  5
426
330
1F
100
AcDbEntity
  8
JOIST_45X195
  6
ByLayer
 62
256
 48
1.0
 60
0
 67
0
370
-1
100
AcDbLine
 10
8651.66070673785
 20
22012.3875903281
 30
0.0
 11
8651.66070673785
 21
17012.3875903281
 31
0.0
 39
0.0
210
0.0
220
0.0
230
1.0
  0
LINE
  5
427
330
1F
100
AcDbEntity
  8
JOIST_45X195
  6
ByLayer
 62
256
 48
1.0
 60
0
 67
0
370
-1
100
AcDbLine
 10
18651.6607067378
 20
22012.3875903281
 30
0.0
 11
18651.6607067378
 21
17012.3875903281
 31
0.0
 39
0.0
210
0.0
220
0.0
230
1.0
  0
LINE
  5
428
330
1F
100
AcDbEntity
  8
JOIST_45X195
  6
ByLayer
 62
256
 48
1.0
 60
0
 67
0
370
-1
100
AcDbLine
 10
18651.6607067378
 20
17012.3875903281
 30
0.0
 11
8651.66070673785
 21
17012.3875903281
 31
0.0
 39
0.0
210
0.0
220
0.0
230
1.0
  0
LINE
  5
429
330
1F
100
AcDbEntity
  8
JOIST_45X195
  6
ByLayer
 62
256
 48
1.0
 60
0
 67
0
370
-1
100
AcDbLine
 10
18651.6607067378
 20
22012.3875903281
 30
0.0
 11
8651.66070673785
 21
22012.3875903281
 31
0.0
 39
0.0
210
0.0
220
0.0
230
1.0
  0
LWPOLYLINE
  5
42A
330
1F
100
AcDbEntity
  8
0
  6
ByLayer
 62
3
 48
1.0
 60
0
 67
0
370
-1
100
AcDbPolyline
 90
4
 70
1
 38
0.0
 39
0.0
 10
6804.9364006229
 20
10934.0541309421
 40
0.0
 41
0.0
 42
0.0
 10
20317.6861006145
 20
10934.0541309421
 40
0.0
 41
0.0
 42
0.0
 10
20317.6861006145
 20
2704.28590397794
 40
0.0
 41
0.0
 42
0.0
 10
6804.9364006229
 20
2704.28590397794
 40
0.0
 41
0.0
 42
0.0
210
0.0
220
0.0
230
1.0
  0
LWPOLYLINE
  5
42B
330
1F
100
AcDbEntity
  8
0
  6
ByLayer
 62
3
 48
1.0
 60
0
 67
0
370
-1
100
AcDbPolyline
 90
4
 70
1
 38
0.0
 39
0.0
 10
24006.8812595038
 20
10934.0541309421
 40
0.0
 41
0.0
 42
0.0
 10
31348.3957907116
 20
10934.0541309421
 40
0.0
 41
0.0
 42
0.0
 10
31348.3957907116
 20
2704.28590397794
 40
0.0
 41
0.0
 42
0.0
 10
24006.8812595038
 20
2704.28590397794
 40
0.0
 41
0.0
 42
0.0
210
0.0
220
0.0
230
1.0
  0
TEXT
  5
42D
330
1F
100
AcDbEntity
  8
0
  6
ByLayer
 62
3
 48
1.0
 60
0
 67
0
370
-1
100
AcDbText
  1
NORTH ELEVATION
 10
10473.8682188881
 20
3254.64962196147
 30
0.0
 40
736.658423829297
 41
0.7
  7
Text 25
 11
0.0
 21
0.0
 31
0.0
210
0.0
220
0.0
230
1.0
100
AcDbText
  0
TEXT
  5
42F
330
1F
100
AcDbEntity
  8
0
  6
ByLayer
 62
3
 48
1.0
 60
0
 67
0
370
-1
100
AcDbText
  1
EAST ELEVATION
 10
24544.9455370316
 20
3210.2440454314
 30
0.0
 40
736.658423829297
 41
0.7
  7
Text 25
 11
0.0
 21
0.0
 31
0.0
210
0.0
220
0.0
230
1.0
100
AcDbText
  0
LINE
  5
430
330
1F
100
AcDbEntity
  8
CLADDING_22X2120
  6
ByLayer
 62
256
 48
1.0
 60
0
 67
0
370
-1
100
AcDbLine
 10
48248.1995943336
 20
7425.2815920224
 30
0.0
 11
48248.1995943336
 21
4425.2815920224
 31
0.0
 39
0.0
210
0.0
220
0.0
230
1.0
  0
LINE
  5
431
330
1F
100
AcDbEntity
  8
CLADDING_22X2120
  6
ByLayer
 62
256
 48
1.0
 60
0
 67
0
370
-1
100
AcDbLine
 10
58248.1995943336
 20
7425.2815920224
 30
0.0
 11
58248.1995943336
 21
4425.2815920224
 31
0.0
 39
0.0
210
0.0
220
0.0
230
1.0
  0
LINE
  5
432
330
1F
100
AcDbEntity
  8
CLADDING_22X2120
  6
ByLayer
 62
256
 48
1.0
 60
0
 67
0
370
-1
100
AcDbLine
 10
35796.5488497499
 20
7425.2815920224
 30
0.0
 11
35796.5488497499
 21
4425.2815920224
 31
0.0
 39
0.0
210
0.0
220
0.0
230
1.0
  0
LINE
  5
433
330
1F
100
AcDbEntity
  8
CLADDING_22X2120
  6
ByLayer
 62
256
 48
1.0
 60
0
 67
0
370
-1
100
AcDbLine
 10
40796.5488497499
 20
4425.2815920224
 30
0.0
 11
40796.5488497499
 21
7425.2815920224
 31
0.0
 39
0.0
210
0.0
220
0.0
230
1.0
  0
LINE
  5
434
330
1F
100
AcDbEntity
  8
JOIST_45X195
  6
ByLayer
 62
256
 48
1.0
 60
0
 67
0
370
-1
100
AcDbLine
 10
58248.1995943336
 20
4425.2815920224
 30
0.0
 11
48248.1995943336
 21
4425.2815920224
 31
0.0
 39
0.0
210
0.0
220
0.0
230
1.0
  0
LINE
  5
435
330
1F
100
AcDbEntity
  8
JOIST_45X195
  6
ByLayer
 62
256
 48
1.0
 60
0
 67
0
370
-1
100
AcDbLine
 10
35796.5488497499
 20
4425.2815920224
 30
0.0
 11
40796.5488497499
 21
4425.2815920224
 31
0.0
 39
0.0
210
0.0
220
0.0
230
1.0
  0
LINE
  5
436
330
1F
100
AcDbEntity
  8
ROOF_COVER
  6
ByLayer
 62
256
 48
1.0
 60
0
 67
0
370
-1
100
AcDbLine
 10
58248.1995943336
 20
7425.2815920224
 30
0.0
 11
48248.1995943336
 21
7425.2815920224
 31
0.0
 39
0.0
210
0.0
220
0.0
230
1.0
  0
LINE
  5
437
330
1F
100
AcDbEntity
  8
BEAM_90X225
  6
ByLayer
 62
256
 48
1.0
 60
0
 67
0
370
-1
100
AcDbLine
 10
35796.5488497499
 20
7425.2815920224
 30
0.0
 11
40796.5488497499
 21
7425.2815920224
 31
0.0
 39
0.0
210
0.0
220
0.0
230
1.0
  0
LINE
  5
438
330
1F
100
AcDbEntity
  8
ROOF_COVER
  6
ByLayer
 62
256
 48
1.0
 60
0
 67
0
370
-1
100
AcDbLine
 10
58248.1995943336
 20
8925.2815920224
 30
0.0
 11
48248.1995943336
 21
8925.2815920224
 31
0.0
 39
0.0
210
0.0
220
0.0
230
1.0
  0
LINE
  5
439
330
1F
100
AcDbEntity
  8
RAFTER_45X145
  6
ByLayer
 62
256
 48
1.0
 60
0
 67
0
370
-1
100
AcDbLine
 10
35796.5488497499
 20
7425.2815920224
 30
0.0
 11
38296.5488497499
 21
8925.2815920224
 31
0.0
 39
0.0
210
0.0
220
0.0
230
1.0
  0
LINE
  5
43A
330
1F
100
AcDbEntity
  8
RAFTER_45X145
  6
ByLayer
 62
256
 48
1.0
 60
0
 67
0
370
-1
100
AcDbLine
 10
38296.5488497499
 20
8925.2815920224
 30
0.0
 11
40796.5488497499
 21
7425.2815920224
 31
0.0
 39
0.0
210
0.0
220
0.0
230
1.0
  0
LWPOLYLINE
  5
43B
330
1F
100
AcDbEntity
  8
0
  6
ByLayer
 62
3
 48
1.0
 60
0
 67
0
370
-1
100
AcDbPolyline
 90
4
 70
1
 38
0.0
 39
0.0
 10
46401.4752882186
 20
10934.0541309421
 40
0.0
 41
0.0
 42
0.0
 10
59914.2249882102
 20
10934.0541309421
 40
0.0
 41
0.0
 42
0.0
 10
59914.2249882102
 20
2704.28590397794
 40
0.0
 41
0.0
 42
0.0
 10
46401.4752882186
 20
2704.28590397794
 40
0.0
 41
0.0
 42
0.0
210
0.0
220
0.0
230
1.0
  0
LWPOLYLINE
  5
43C
330
1F
100
AcDbEntity
  8
0
  6
ByLayer
 62
3
 48
1.0
 60
0
 67
0
370
-1
100
AcDbPolyline
 90
4
 70
1
 38
0.0
 39
0.0
 10
34501.5191299753
 20
10934.0541309421
 40
0.0
 41
0.0
 42
0.0
 10
41843.0336611831
 20
10934.0541309421
 40
0.0
 41
0.0
 42
0.0
 10
41843.0336611831
 20
2704.28590397794
 40
0.0
 41
0.0
 42
0.0
 10
34501.5191299753
 20
2704.28590397794
 40
0.0
 41
0.0
 42
0.0
210
0.0
220
0.0
230
1.0
  0
TEXT
  5
43D
330
1F
100
AcDbEntity
  8
0
  6
ByLayer
 62
3
 48
1.0
 60
0
 67
0
370
-1
100
AcDbText
  1
SOUTH ELEVATION
 10
50070.4071064838
 20
3254.64962196147
 30
0.0
 40
736.658423829297
 41
0.7
  7
Text 25
 11
0.0
 21
0.0
 31
0.0
210
0.0
220
0.0
230
1.0
100
AcDbText
  0
TEXT
  5
43E
330
1F
100
AcDbEntity
  8
0
  6
ByLayer
 62
3
 48
1.0
 60
0
 67
0
370
-1
100
AcDbText
  1
WEST ELEVATION
 10
35124.4969748592
 20
3210.2440454314
 30
0.0
 40
736.658423829297
 41
0.7
  7
Text 25
 11
0.0
 21
0.0
 31
0.0
210
0.0
220
0.0
230
1.0
100
AcDbText
  0
LWPOLYLINE
  5
43F
330
1F
100
AcDbEntity
  8
0
  6
ByLayer
 62
3
 48
1.0
 60
0
 67
0
370
-1
100
AcDbPolyline
 90
4
 70
1
 38
0.0
 39
0.0
 10
6801.1403841672
 20
23729.8056558568
 40
0.0
 41
0.0
 42
0.0
 10
20761.6205510207
 20
23729.8056558568
 40
0.0
 41
0.0
 42
0.0
 10
20761.6205510207
 20
14312.0633679494
 40
0.0
 41
0.0
 42
0.0
 10
6801.1403841672
 20
14312.0633679494
 40
0.0
 41
0.0
 42
0.0
210
0.0
220
0.0
230
1.0
  0
TEXT
  5
440
330
1F
100
AcDbEntity
  8
0
  6
ByLayer
 62
3
 48
1.0
 60
0
 67
0
370
-1
100
AcDbText
  1
GROUND FLOOR PLAN
 10
9411.35079662778
 20
15143.8714330408
 30
0.0
 40
736.658423829297
 41
0.7
  7
Text 25
 11
0.0
 21
0.0
 31
0.0
210
0.0
220
0.0
230
1.0
100
AcDbText
  0
LINE
  5
441
330
1F
100
AcDbEntity
  8
RAFTER_45X145
  6
ByLayer
 62
256
 48
1.0
 60
0
 67
0
370
-1
100
AcDbLine
 10
26182.6007092661
 20
22012.3875903281
 30
0.0
 11
26182.6007092661
 21
17012.3875903281
 31
0.0
 39
0.0
210
0.0
220
0.0
230
1.0
  0
LINE
  5
442
330
1F
100
AcDbEntity
  8
RAFTER_45X145
  6
ByLayer
 62
256
 48
1.0
 60
0
 67
0
370
-1
100
AcDbLine
 10
36182.6007092661
 20
22012.3875903281
 30
0.0
 11
36182.6007092661
 21
17012.3875903281
 31
0.0
 39
0.0
210
0.0
220
0.0
230
1.0
  0
LINE
  5
443
330
1F
100
AcDbEntity
  8
BEAM_90X225
  6
ByLayer
 62
256
 48
1.0
 60
0
 67
0
370
-1
100
AcDbLine
 10
36182.6007092661
 20
17012.3875903281
 30
0.0
 11
26182.6007092661
 21
17012.3875903281
 31
0.0
 39
0.0
210
0.0
220
0.0
230
1.0
  0
LINE
  5
444
330
1F
100
AcDbEntity
  8
BEAM_90X225
  6
ByLayer
 62
256
 48
1.0
 60
0
 67
0
370
-1
100
AcDbLine
 10
36182.6007092661
 20
22012.3875903281
 30
0.0
 11
26182.6007092661
 21
22012.3875903281
 31
0.0
 39
0.0
210
0.0
220
0.0
230
1.0
  0
LWPOLYLINE
  5
445
330
1F
100
AcDbEntity
  8
0
  6
ByLayer
 62
3
 48
1.0
 60
0
 67
0
370
-1
100
AcDbPolyline
 90
4
 70
1
 38
0.0
 39
0.0
 10
24332.0803866955
 20
23729.8056558568
 40
0.0
 41
0.0
 42
0.0
 10
38292.560553549
 20
23729.8056558568
 40
0.0
 41
0.0
 42
0.0
 10
38292.560553549
 20
14312.0633679494
 40
0.0
 41
0.0
 42
0.0
 10
24332.0803866955
 20
14312.0633679494
 40
0.0
 41
0.0
 42
0.0
210
0.0
220
0.0
230
1.0
  0
TEXT
  5
446
330
1F
100
AcDbEntity
  8
0
  6
ByLayer
 62
3
 48
1.0
 60
0
 67
0
370
-1
100
AcDbText
  1
ROOF PLAN
 10
28905.3737379989
 20
15143.8714330408
 30
0.0
 40
736.658423829297
 41
0.7
  7
Text 25
 11
0.0
 21
0.0
 31
0.0
210
0.0
220
0.0
230
1.0
100
AcDbText
  0
LINE
  5
44E
330
1F
100
AcDbEntity
  8
RAFTER_45X145
  6
ByLayer
 62
256
 48
1.0
 60
0
 67
0
370
-1
100
AcDbLine
 10
27849.2673759328
 20
22012.3875903281
 30
0.0
 11
27849.2673759328
 21
17012.3875903281
 31
0.0
 39
0.0
210
0.0
220
0.0
230
1.0
  0
LINE
  5
44F
330
1F
100
AcDbEntity
  8
RAFTER_45X145
  6
ByLayer
 62
256
 48
1.0
 60
0
 67
0
370
-1
100
AcDbLine
 10
29515.9340425994
 20
22012.3875903281
 30
0.0
 11
29515.9340425994
 21
17012.3875903281
 31
0.0
 39
0.0
210
0.0
220
0.0
230
1.0
  0
LINE
  5
450
330
1F
100
AcDbEntity
  8
RAFTER_45X145
  6
ByLayer
 62
256
 48
1.0
 60
0
 67
0
370
-1
100
AcDbLine
 10
31182.6007092661
 20
22012.3875903281
 30
0.0
 11
31182.6007092661
 21
17012.3875903281
 31
0.0
 39
0.0
210
0.0
220
0.0
230
1.0
  0
LINE
  5
451
330
1F
100
AcDbEntity
  8
RAFTER_45X145
  6
ByLayer
 62
256
 48
1.0
 60
0
 67
0
370
-1
100
AcDbLine
 10
32849.2673759328
 20
22012.3875903281
 30
0.0
 11
32849.2673759328
 21
17012.3875903281
 31
0.0
 39
0.0
210
0.0
220
0.0
230
1.0
  0
LINE
  5
452
330
1F
100
AcDbEntity
  8
RAFTER_45X145
  6
ByLayer
 62
256
 48
1.0
 60
0
 67
0
370
-1
100
AcDbLine
 10
34515.9340425994
 20
22012.3875903281
 30
0.0
 11
34515.9340425994
 21
17012.3875903281
 31
0.0
 39
0.0
210
0.0
220
0.0
230
1.0
  0
LINE
  5
621
330
1F
100
AcDbEntity
  8
RIDGE_50X150
  6
ByLayer
 62
256
 48
1.0
 60
0
 67
0
370
-1
100
AcDbLine
 10
36182.6007092661
 20
19512.3875903281
 30
0.0
 11
26182.6007092661
 21
19512.3875903281
 31
0.0
 39
0.0
210
0.0
220
0.0
230
1.0
  0
LWPOLYLINE
  5
623
330
1F
100
AcDbEntity
  8
WINDOW
  6
ByLayer
 62
256
 48
1.0
 60
0
 67
0
370
-1
100
AcDbPolyline
 90
4
 70
1
 38
0.0
 39
0.0
 10
28504.5109752846
 20
6640.57164079252
 40
0.0
 41
0.0
 42
0.0
 10
29404.5109752846
 20
6640.57164079251
 40
0.0
 41
0.0
 42
0.0
 10
29404.5109752846
 20
5440.57164079252
 40
0.0
 41
0.0
 42
0.0
 10
28504.5109752846
 20
5440.57164079252
 40
0.0
 41
0.0
 42
0.0
210
0.0
220
0.0
230
1.0
  0
LWPOLYLINE
  5
625
330
1F
100
AcDbEntity
  8
WINDOW
  6
ByLayer
 62
256
 48
1.0
 60
0
 67
0
370
-1
100
AcDbPolyline
 90
4
 70
1
 38
0.0
 39
0.0
 10
27099.3109832722
 20
6640.57164079252
 40
0.0
 41
0.0
 42
0.0
 10
26199.3109832722
 20
6640.57164079251
 40
0.0
 41
0.0
 42
0.0
 10
26199.3109832722
 20
5440.57164079252
 40
0.0
 41
0.0
 42
0.0
 10
27099.3109832722
 20
5440.57164079252
 40
0.0
 41
0.0
 42
0.0
210
0.0
220
0.0
230
1.0
  0
LWPOLYLINE
  5
626
330
1F
100
AcDbEntity
  8
WINDOW
  6
ByLayer
 62
256
 48
1.0
 60
0
 67
0
370
-1
100
AcDbPolyline
 90
4
 70
1
 38
0.0
 39
0.0
 10
38999.1488457561
 20
6640.57164079252
 40
0.0
 41
0.0
 42
0.0
 10
39899.1488457561
 20
6640.57164079251
 40
0.0
 41
0.0
 42
0.0
 10
39899.1488457561
 20
5440.57164079252
 40
0.0
 41
0.0
 42
0.0
 10
38999.1488457561
 20
5440.57164079252
 40
0.0
 41
0.0
 42
0.0
210
0.0
220
0.0
230
1.0
  0
LWPOLYLINE
  5
627
330
1F
100
AcDbEntity
  8
WINDOW
  6
ByLayer
 62
256
 48
1.0
 60
0
 67
0
370
-1
100
AcDbPolyline
 90
4
 70
1
 38
0.0
 39
0.0
 10
37593.9488537438
 20
6640.57164079252
 40
0.0
 41
0.0
 42
0.0
 10
36693.9488537438
 20
6640.57164079251
 40
0.0
 41
0.0
 42
0.0
 10
36693.9488537438
 20
5440.57164079252
 40
0.0
 41
0.0
 42
0.0
 10
37593.9488537438
 20
5440.57164079252
 40
0.0
 41
0.0
 42
0.0
210
0.0
220
0.0
230
1.0
  0
LWPOLYLINE
  5
628
330
1F
100
AcDbEntity
  8
DOOR
  6
ByLayer
 62
256
 48
1.0
 60
0
 67
0
370
-1
100
AcDbPolyline
 90
4
 70
1
 38
0.0
 39
0.0
 10
13201.6607067378
 20
6525.2815920224
 40
0.0
 41
0.0
 42
0.0
 10
14101.6607067378
 20
6525.2815920224
 40
0.0
 41
0.0
 42
0.0
 10
14101.6607067378
 20
4425.2815920224
 40
0.0
 41
0.0
 42
0.0
 10
13201.6607067378
 20
4425.2815920224
 40
0.0
 41
0.0
 42
0.0
210
0.0
220
0.0
230
1.0
  0
LWPOLYLINE
  5
629
330
1F
100
AcDbEntity
  8
WINDOW
  6
ByLayer
 62
256
 48
1.0
 60
0
 67
0
370
-1
100
AcDbPolyline
 90
4
 70
1
 38
0.0
 39
0.0
 10
17224.1444920781
 20
6525.28159202241
 40
0.0
 41
0.0
 42
0.0
 10
18124.1444920781
 20
6525.2815920224
 40
0.0
 41
0.0
 42
0.0
 10
18124.1444920781
 20
5325.28159202241
 40
0.0
 41
0.0
 42
0.0
 10
17224.1444920781
 20
5325.28159202241
 40
0.0
 41
0.0
 42
0.0
210
0.0
220
0.0
230
1.0
  0
LWPOLYLINE
  5
62A
330
1F
100
AcDbEntity
  8
WINDOW
  6
ByLayer
 62
256
 48
1.0
 60
0
 67
0
370
-1
100
AcDbPolyline
 90
4
 70
1
 38
0.0
 39
0.0
 10
15320.9738865769
 20
6525.28159202241
 40
0.0
 41
0.0
 42
0.0
 10
16220.9738865769
 20
6525.2815920224
 40
0.0
 41
0.0
 42
0.0
 10
16220.9738865769
 20
5325.28159202241
 40
0.0
 41
0.0
 42
0.0
 10
15320.9738865769
 20
5325.28159202241
 40
0.0
 41
0.0
 42
0.0
210
0.0
220
0.0
230
1.0
  0
LWPOLYLINE
  5
62C
330
1F
100
AcDbEntity
  8
WINDOW
  6
ByLayer
 62
256
 48
1.0
 60
0
 67
0
370
-1
100
AcDbPolyline
 90
4
 70
1
 38
0.0
 39
0.0
 10
10079.1769213976
 20
6525.28159202241
 40
0.0
 41
0.0
 42
0.0
 10
9179.17692139757
 20
6525.2815920224
 40
0.0
 41
0.0
 42
0.0
 10
9179.17692139757
 20
5325.28159202241
 40
0.0
 41
0.0
 42
0.0
 10
10079.1769213976
 20
5325.28159202241
 40
0.0
 41
0.0
 42
0.0
210
0.0
220
0.0
230
1.0
  0
LWPOLYLINE
  5
62D
330
1F
100
AcDbEntity
  8
WINDOW
  6
ByLayer
 62
256
 48
1.0
 60
0
 67
0
370
-1
100
AcDbPolyline
 90
4
 70
1
 38
0.0
 39
0.0
 10
11982.3475268988
 20
6525.28159202241
 40
0.0
 41
0.0
 42
0.0
 10
11082.3475268988
 20
6525.2815920224
 40
0.0
 41
0.0
 42
0.0
 10
11082.3475268988
 20
5325.28159202241
 40
0.0
 41
0.0
 42
0.0
 10
11982.3475268988
 20
5325.28159202241
 40
0.0
 41
0.0
 42
0.0
210
0.0
220
0.0
230
1.0
  0
LWPOLYLINE
  5
62E
330
1F
100
AcDbEntity
  8
DOOR
  6
ByLayer
 62
256
 48
1.0
 60
0
 67
0
370
-1
100
AcDbPolyline
 90
4
 70
1
 38
0.0
 39
0.0
 10
52798.1995943336
 20
6525.2815920224
 40
0.0
 41
0.0
 42
0.0
 10
53698.1995943336
 20
6525.2815920224
 40
0.0
 41
0.0
 42
0.0
 10
53698.1995943336
 20
4425.2815920224
 40
0.0
 41
0.0
 42
0.0
 10
52798.1995943336
 20
4425.2815920224
 40
0.0
 41
0.0
 42
0.0
210
0.0
220
0.0
230
1.0
  0
LWPOLYLINE
  5
62F
330
1F
100
AcDbEntity
  8
WINDOW
  6
ByLayer
 62
256
 48
1.0
 60
0
 67
0
370
-1
100
AcDbPolyline
 90
4
 70
1
 38
0.0
 39
0.0
 10
56820.6833796739
 20
6525.28159202241
 40
0.0
 41
0.0
 42
0.0
 10
57720.6833796739
 20
6525.2815920224
 40
0.0
 41
0.0
 42
0.0
 10
57720.6833796739
 20
5325.28159202241
 40
0.0
 41
0.0
 42
0.0
 10
56820.6833796739
 20
5325.28159202241
 40
0.0
 41
0.0
 42
0.0
210
0.0
220
0.0
230
1.0
  0
LWPOLYLINE
  5
630
330
1F
100
AcDbEntity
  8
WINDOW
  6
ByLayer
 62
256
 48
1.0
 60
0
 67
0
370
-1
100
AcDbPolyline
 90
4
 70
1
 38
0.0
 39
0.0
 10
54917.5127741726
 20
6525.28159202241
 40
0.0
 41
0.0
 42
0.0
 10
55817.5127741726
 20
6525.2815920224
 40
0.0
 41
0.0
 42
0.0
 10
55817.5127741726
 20
5325.28159202241
 40
0.0
 41
0.0
 42
0.0
 10
54917.5127741726
 20
5325.28159202241
 40
0.0
 41
0.0
 42
0.0
210
0.0
220
0.0
230
1.0
  0
LWPOLYLINE
  5
631
330
1F
100
AcDbEntity
  8
WINDOW
  6
ByLayer
 62
256
 48
1.0
 60
0
 67
0
370
-1
100
AcDbPolyline
 90
4
 70
1
 38
0.0
 39
0.0
 10
49675.7158089933
 20
6525.28159202241
 40
0.0
 41
0.0
 42
0.0
 10
48775.7158089933
 20
6525.2815920224
 40
0.0
 41
0.0
 42
0.0
 10
48775.7158089933
 20
5325.28159202241
 40
0.0
 41
0.0
 42
0.0
 10
49675.7158089933
 20
5325.28159202241
 40
0.0
 41
0.0
 42
0.0
210
0.0
220
0.0
230
1.0
  0
LWPOLYLINE
  5
632
330
1F
100
AcDbEntity
  8
WINDOW
  6
ByLayer
 62
256
 48
1.0
 60
0
 67
0
370
-1
100
AcDbPolyline
 90
4
 70
1
 38
0.0
 39
0.0
 10
51578.8864144946
 20
6525.28159202241
 40
0.0
 41
0.0
 42
0.0
 10
50678.8864144946
 20
6525.2815920224
 40
0.0
 41
0.0
 42
0.0
 10
50678.8864144946
 20
5325.28159202241
 40
0.0
 41
0.0
 42
0.0
 10
51578.8864144946
 20
5325.28159202241
 40
0.0
 41
0.0
 42
0.0
210
0.0
220
0.0
230
1.0
  0
LINE
  5
633
330
1F
100
AcDbEntity
  8
ROOF_COVER
  6
ByLayer
 62
256
 48
1.0
 60
0
 67
0
370
-1
100
AcDbLine
 10
8651.66070673785
 20
7425.2815920224
 30
0.0
 11
8651.66070673785
 21
8925.2815920224
 31
0.0
 39
0.0
210
0.0
220
0.0
230
1.0
  0
LINE
  5
634
330
1F
100
AcDbEntity
  8
ROOF_COVER
  6
ByLayer
 62
256
 48
1.0
 60
0
 67
0
370
-1
100
AcDbLine
 10
18651.6607067378
 20
7425.2815920224
 30
0.0
 11
18651.6607067378
 21
8925.2815920224
 31
0.0
 39
0.0
210
0.0
220
0.0
230
1.0
  0
LINE
  5
636
330
1F
100
AcDbEntity
  8
ROOF_COVER
  6
ByLayer
 62
256
 48
1.0
 60
0
 67
0
370
-1
100
AcDbLine
 10
48248.1995943336
 20
7425.2815920224
 30
0.0
 11
48248.1995943336
 21
8925.2815920224
 31
0.0
 39
0.0
210
0.0
220
0.0
230
1.0
  0
LINE
  5
637
330
1F
100
AcDbEntity
  8
ROOF_COVER
  6
ByLayer
 62
256
 48
1.0
 60
0
 67
0
370
-1
100
AcDbLine
 10
58248.1995943336
 20
7425.2815920224
 30
0.0
 11
58248.1995943336
 21
8925.2815920224
 31
0.0
 39
0.0
210
0.0
220
0.0
230
1.0
  0
ENDSEC
  0
SECTION
  2
OBJECTS
  0
DICTIONARY
  5
C
330
0
100
AcDbDictionary
280
0
281
1
  3
ACAD_CIP_PREVIOUS_PRODUCT_INFO
350
1A5
  3
ACAD_COLOR
350
73
  3
ACAD_DETAILVIEWSTYLE
350
1AB
  3
ACAD_GROUP
350
D
  3
ACAD_LAST_SAVED_VERSION_INFO
350
38F
  3
ACAD_LAYOUT
350
1A
  0
DICTIONARY
  5
18E
330
2
100
AcDbDictionary
280
1
281
1
  3
ACAD_LAYERSTATES
350
18F
  0
DICTIONARY
  5
E6
330
10
100
AcDbDictionary
280
1
281
1
  0
DICTIONARY
  5
28A
330
289
100
AcDbDictionary
280
1
281
1
  0
DICTIONARY
  5
28C
330
28B
100
AcDbDictionary
280
1
281
1
  0
DICTIONARY
  5
28E
330
28D
100
AcDbDictionary
280
1
281
1
  0
DICTIONARY
  5
36F
330
36E
100
AcDbDictionary
280
1
281
1
  0
DICTIONARY
  5
398
330
397
100
AcDbDictionary
280
1
281
1
  0
DICTIONARY
  5
39A
330
399
100
AcDbDictionary
280
1
281
1
  0
DICTIONARY
  5
39C
330
39B
100
AcDbDictionary
280
1
281
1
  0
DICTIONARY
  5
15D
330
1F
100
AcDbDictionary
280
1
281
1
  3
ACAD_SORTENTS
350
253
  0
XRECORD
  5
1A5
102
{ACAD_REACTORS
330
C
102
}
330
C
100
AcDbXrecord
280
1
300
ACD
300
2024
300

  0
DICTIONARY
  5
73
102
{ACAD_REACTORS
330
C
102
}
330
C
100
AcDbDictionary
280
0
281
1
  0
DICTIONARY
  5
1AB
102
{ACAD_REACTORS
330
C
102
}
330
C
100
AcDbDictionary
280
0
281
1
  0
DICTIONARY
  5
D
102
{ACAD_REACTORS
330
C
102
}
330
C
100
AcDbDictionary
280
0
281
1
  0
XRECORD
  5
38F
102
{ACAD_REACTORS
330
C
102
}
330
C
100
AcDbXrecord
280
1
300
{63239319-C662-5F4B-8CE6-2A0D5F7F0DAC}
301
{D808A391-72A9-7E48-BDB5-52DDDFD35C4E}
302
{63239319-C662-5F4B-8CE6-2A0D5F7F0DAC}
303
F:\AutoCAD\Andreas - cut lists\Files\new file Aug 2026.dwg
  0
DICTIONARY
  5
1A
102
{ACAD_REACTORS
330
C
102
}
330
C
100
AcDbDictionary
280
0
281
1
  3
Layout1
350
59
  3
Layout2
350
5E
  3
Model
350
22
  0
DICTIONARY
  5
18F
102
{ACAD_REACTORS
330
18E
102
}
330
18E
100
AcDbDictionary
280
0
281
1
  0
SORTENTSTABLE
  5
253
102
{ACAD_REACTORS
330
15D
102
}
330
15D
100
AcDbSortentsTable
330
1F
331
421
  5
41F
331
41F
  5
420
331
422
  5
421
331
420
  5
422
  0
LAYOUT
  5
59
102
{ACAD_REACTORS
330
1A
102
}
330
1A
100
AcDbPlotSettings
  1

  2
None
  4

  7

 40
0.0
 41
0.0
 42
0.0
 43
0.0
 44
0.0
 45
0.0
 46
0.0
 47
0.0
 48
0.0
 49
0.0
140
0.0
141
0.0
142
1.0
143
1.0
 70
688
 72
0
 73
0
 74
5
 75
16
 76
0
 77
2
 78
300
147
1.0
148
0.0
149
0.0
100
AcDbLayout
  1
Layout1
 71
1
 10
0.0
 20
0.0
 11
12.0
 21
9.0
 12
0.0
 22
0.0
 32
0.0
 13
0.0
 23
0.0
 33
0.0
 14
0.0
 24
0.0
 34
0.0
 15
0.0
 25
0.0
 35
0.0
 16
1.0
 26
0.0
 36
0.0
 17
0.0
 27
1.0
 37
0.0
146
0.0
 76
0
330
58
  0
LAYOUT
  5
5E
102
{ACAD_REACTORS
330
1A
102
}
330
1A
100
AcDbPlotSettings
  1

  2
None
  4

  7

 40
0.0
 41
0.0
 42
0.0
 43
0.0
 44
0.0
 45
0.0
 46
0.0
 47
0.0
 48
0.0
 49
0.0
140
0.0
141
0.0
142
1.0
143
1.0
 70
688
 72
0
 73
0
 74
5
 75
16
 76
0
 77
2
 78
300
147
1.0
148
0.0
149
0.0
100
AcDbLayout
  1
Layout2
 71
2
 10
0.0
 20
0.0
 11
12.0
 21
9.0
 12
0.0
 22
0.0
 32
0.0
 13
0.0
 23
0.0
 33
0.0
 14
0.0
 24
0.0
 34
0.0
 15
0.0
 25
0.0
 35
0.0
 16
1.0
 26
0.0
 36
0.0
 17
0.0
 27
1.0
 37
0.0
146
0.0
 76
0
330
5D
  0
LAYOUT
  5
22
102
{ACAD_XDICTIONARY
360
194
102
}
102
{ACAD_REACTORS
330
1A
102
}
330
1A
100
AcDbPlotSettings
  1

  2
none_device
  4
ANSI_A_(8.50_x_11.00_Inches)
  7

 40
6.34999990463257
 41
19.0499992370605
 42
6.35000610351562
 43
19.0499877929688
 44
215.899993896484
 45
279.399993896484
 46
0.0
 47
0.0
 48
0.0
 49
0.0
140
0.0
141
0.0
142
1.0
143
2.58489546470837
 70
11952
 72
0
 73
1
 74
0
 75
0
 76
0
 77
2
 78
300
147
0.386862839775542
148
0.0
149
0.0
100
AcDbLayout
  1
Model
 71
0
 10
0.0
 20
0.0
 11
12.0
 21
9.0
 12
0.0
 22
0.0
 32
0.0
 13
0.0
 23
0.0
 33
0.0
 14
0.0
 24
0.0
 34
0.0
 15
0.0
 25
0.0
 35
0.0
 16
1.0
 26
0.0
 36
0.0
 17
0.0
 27
1.0
 37
0.0
146
0.0
 76
0
330
1F
  0
DICTIONARY
  5
194
330
22
100
AcDbDictionary
280
1
281
1
  0
ENDSEC
  0
EOF
